<svg width="63" height="58" viewBox="0 0 63 58" fill="none" xmlns="http://www.w3.org/2000/svg">
<path d="M0.116263 44.2656C0.30794 43.9583 0.606453 43.9363 1.02437 44.2029C10.5611 49.722 20.9399 52.4972 32.1514 52.4972C39.6331 52.4972 47.0143 51.0955 54.3074 48.3202L55.1307 47.9534C55.492 47.7934 55.7434 47.6899 55.8974 47.6115C56.4913 47.3795 56.9217 47.4955 57.2737 47.9534C57.5942 48.4018 57.5125 48.8283 56.9595 49.2077C56.2902 49.7032 55.3883 50.2801 54.32 50.9167C51.0615 52.8578 47.3976 54.3599 43.3473 55.4355C39.4835 56.4723 35.5019 57.0077 31.501 57.0285C25.5653 57.0285 19.9375 55.9937 14.6303 53.924C9.39446 51.8787 4.57136 48.9075 0.39278 45.153C0.128832 44.9618 0 44.7673 0 44.576C0 44.4537 0.0502755 44.344 0.128832 44.2342L0.116263 44.2656ZM17.3326 27.9937C17.3326 25.3596 17.9831 23.1175 19.2777 21.2454C20.5786 19.3889 22.3476 17.9809 24.6289 17.0245C26.7216 16.1433 29.2323 15.5193 32.2646 15.1367C33.2889 15.0207 34.97 14.867 37.2921 14.682V13.7099C37.2921 11.2859 37.0282 9.63645 36.5129 8.80545C35.721 7.67969 34.4704 7.10896 32.7328 7.10896H32.2614C31.0045 7.23126 29.9173 7.61697 28.9966 8.30999C28.0726 9.01789 27.4418 10.0403 27.2244 11.1824C27.0704 11.9664 26.6839 12.396 26.0901 12.5183L19.4756 11.6904C18.8189 11.5305 18.4984 11.2201 18.4984 10.6681C18.4984 10.5521 18.5172 10.4361 18.5549 10.2824C19.2117 6.902 20.8017 4.38391 23.3312 2.74386C25.8889 1.13204 28.8364 0.191287 32.2174 0H33.6346C37.9677 0 41.3928 1.13204 43.828 3.37417C44.1894 3.75988 44.5413 4.15813 44.8964 4.62224C45.2106 5.05812 45.4871 5.4501 45.6317 5.80445C45.8296 6.15253 46.0307 6.66681 46.147 7.29398C46.3072 7.96191 46.4235 8.39779 46.5021 8.62985C46.5743 8.89953 46.6623 9.41381 46.7032 10.2417C46.722 11.0633 46.7534 11.5274 46.7534 11.6873V25.5038C46.7534 26.4885 46.9074 27.3916 47.1839 28.2163C47.4605 29.0317 47.7307 29.6306 48.0072 29.9818L49.3521 31.741C49.5534 32.0199 49.674 32.3486 49.7009 32.6912C49.7009 33.011 49.5469 33.2807 49.2358 33.5065C46.0873 36.2566 44.3559 37.7462 44.0857 37.9845C43.6552 38.3389 43.1022 38.3765 42.436 38.1068C41.9523 37.7001 41.4917 37.2666 41.0566 36.8086L40.2459 35.896C40.0856 35.6985 39.8028 35.3504 39.41 34.7922L38.6245 33.6539C36.5003 35.9744 34.4201 37.4326 32.3337 38.0221C31.0328 38.4141 29.4617 38.6117 27.5292 38.6117C24.6195 38.6117 22.1842 37.718 20.2926 35.9054C18.4135 34.0992 17.4646 31.5497 17.4646 28.2132L17.3295 28.0156L17.3326 27.9937ZM27.171 26.8428C27.171 28.3324 27.5386 29.5146 28.2865 30.4146C29.028 31.3083 30.0556 31.7567 31.3187 31.7567C31.4287 31.7567 31.5953 31.7316 31.8215 31.7003C32.0666 31.6626 32.1703 31.6375 32.2646 31.6375C33.8734 31.2205 35.0989 30.1919 36.0007 28.5581C36.4362 27.8196 36.7532 27.0175 36.9402 26.1812C37.179 25.3408 37.2544 24.6321 37.289 24.0927C37.3393 23.5722 37.3393 22.6722 37.3393 21.4586V20.0443C35.1303 20.0443 33.4429 20.198 32.2991 20.5084C28.9589 21.4586 27.259 23.5722 27.259 26.8711L27.1678 26.8209V26.8428H27.171ZM51.1966 45.2346C51.2751 45.0746 51.3945 44.9461 51.5391 44.7861C52.4849 44.1558 53.4119 43.7137 54.2948 43.4816C55.6771 43.127 57.0923 42.9158 58.518 42.8513C58.8856 42.82 59.2533 42.8513 59.6052 42.9297C61.2989 43.0897 62.3484 43.3719 62.6752 43.7858C62.8417 44.0304 62.9077 44.3848 62.9077 44.8144V45.2064C62.9077 46.5422 62.5401 48.1101 61.8142 49.9164C61.0884 51.7226 60.0766 53.1808 58.7882 54.3128C58.5966 54.4665 58.4269 54.5449 58.2729 54.5449C58.1944 54.5449 58.1127 54.5449 58.0404 54.5135C57.8016 54.3975 57.7576 54.2 57.8676 53.8832C59.2847 50.5875 59.9791 48.2795 59.9791 46.9812C59.9791 46.583 59.9006 46.2694 59.7466 46.075C59.3727 45.6454 58.3106 45.3945 56.5415 45.3945C55.7788 45.4059 55.0167 45.4467 54.2571 45.5168C53.305 45.6454 52.4283 45.7614 51.6365 45.8774C51.404 45.8774 51.25 45.8335 51.1652 45.7614C51.0866 45.683 51.0677 45.6391 51.1086 45.5607C51.1086 45.5168 51.1274 45.4823 51.1652 45.3945V45.2408L51.1966 45.2346Z" fill="#000458" fill-opacity="0.36"/>
</svg>
