<svg xmlns="http://www.w3.org/2000/svg" width="63" height="58" fill="none"><path fill="#000458" fill-opacity=".36" d="M.116 44.266c.192-.308.49-.33.908-.063 9.537 5.519 19.916 8.294 31.127 8.294 7.482 0 14.863-1.401 22.156-4.177l.824-.367c.361-.16.612-.263.766-.342.594-.231 1.025-.115 1.377.342.32.449.239.875-.315 1.255-.669.495-1.57 1.072-2.639 1.709-3.258 1.94-6.922 3.443-10.973 4.518a46.7 46.7 0 0 1-11.846 1.593c-5.936 0-11.564-1.034-16.87-3.104A46.8 46.8 0 0 1 .392 45.153C.129 44.962 0 44.767 0 44.576c0-.122.05-.232.129-.342zm17.217-16.272c0-2.634.65-4.876 1.945-6.749 1.3-1.856 3.07-3.264 5.35-4.22 2.094-.882 4.604-1.506 7.637-1.888 1.024-.116 2.705-.27 5.027-.455v-.972c0-2.424-.264-4.074-.78-4.905-.791-1.125-2.042-1.696-3.78-1.696h-.47c-1.258.122-2.345.508-3.265 1.201a4.73 4.73 0 0 0-1.773 2.872c-.154.784-.54 1.214-1.134 1.336l-6.614-.828c-.657-.16-.978-.47-.978-1.022 0-.116.02-.232.057-.386.657-3.38 2.247-5.898 4.776-7.538C25.89 1.132 28.836.19 32.217 0h1.418c4.333 0 7.758 1.132 10.193 3.374.361.386.713.784 1.068 1.248.315.436.591.828.736 1.182.198.349.399.863.515 1.49.16.668.276 1.104.355 1.336.072.27.16.784.201 1.612.019.821.05 1.285.05 1.445v13.817c0 .984.154 1.888.43 2.712.278.816.548 1.415.824 1.766l1.345 1.759c.201.279.322.608.349.95q0 .478-.465.816c-3.149 2.75-4.88 4.24-5.15 4.477-.43.355-.984.392-1.65.123q-.726-.61-1.38-1.298l-.81-.913c-.16-.197-.443-.546-.836-1.104l-.785-1.138c-2.125 2.32-4.205 3.779-6.291 4.368-1.301.392-2.872.59-4.805.59-2.91 0-5.345-.894-7.236-2.707-1.88-1.806-2.828-4.355-2.828-7.692l-.136-.197zm9.838-1.151c0 1.49.368 2.672 1.116 3.572.741.893 1.769 1.342 3.032 1.342.11 0 .276-.025.503-.057.245-.037.348-.062.443-.062 1.608-.418 2.834-1.446 3.736-3.08.435-.738.752-1.54.94-2.377.238-.84.313-1.549.348-2.088.05-.52.05-1.42.05-2.634v-1.415c-2.209 0-3.896.154-5.04.464-3.34.95-5.04 3.064-5.04 6.363l-.091-.05v.022zm24.026 18.392c.078-.16.197-.289.342-.449.946-.63 1.873-1.072 2.756-1.304a20.8 20.8 0 0 1 4.223-.63c.368-.032.735 0 1.087.078 1.694.16 2.743.442 3.07.856.167.244.233.599.233 1.028v.392c0 1.336-.368 2.904-1.094 4.71s-1.737 3.265-3.026 4.397q-.285.231-.515.232c-.079 0-.16 0-.233-.032-.238-.115-.282-.313-.172-.63 1.417-3.296 2.111-5.604 2.111-6.902 0-.398-.078-.712-.232-.906-.374-.43-1.436-.68-3.206-.68q-1.143.016-2.284.122c-.952.128-1.829.244-2.62.36-.233 0-.387-.044-.472-.116-.078-.078-.097-.122-.056-.2 0-.044.018-.079.056-.166v-.154z"/></svg>