<svg width="36" height="26" viewBox="0 0 36 26" fill="none" xmlns="http://www.w3.org/2000/svg">
<g clip-path="url(#clip0_7_215)">
<path d="M12.5547 23.7647C12.5888 23.6229 12.6365 23.3055 12.7319 23.0016C14.9201 15.904 17.1152 8.81305 19.3102 1.71538C19.6443 0.634864 20.4077 0.00681219 21.3757 5.89438e-05C22.2756 -0.0066943 23.1072 0.567332 23.339 1.47227C23.4413 1.86395 23.4481 2.33668 23.3254 2.72162C21.1099 9.96785 18.8739 17.2006 16.6244 24.4401C16.2767 25.5476 15.3019 26.1554 14.2589 25.9798C13.2705 25.8042 12.5547 24.9533 12.5547 23.7647Z" fill="currentColor"/>
<path d="M31.0108 12.982C29.2111 11.2127 27.4592 9.4771 25.7004 7.75502C25.1551 7.22151 24.8756 6.60697 24.9983 5.85735C25.1278 5.08073 25.5641 4.52021 26.3276 4.26359C27.1524 3.98671 27.9091 4.14878 28.5295 4.75658C29.9542 6.1545 31.3653 7.55917 32.7832 8.96385C33.6217 9.7945 34.467 10.6184 35.2918 11.4558C36.253 12.4283 36.253 13.6033 35.2782 14.5758C33.0491 16.7976 30.8063 19.0194 28.5635 21.2277C27.6637 22.1124 26.3958 22.1259 25.5641 21.2953C24.7324 20.4646 24.7597 19.2153 25.6527 18.3171C27.2615 16.7098 28.8771 15.1161 30.4927 13.5155C30.6427 13.3602 30.7927 13.2049 31.0108 12.982Z" fill="currentColor"/>
<path d="M5.00104 13.0282C6.7598 14.7638 8.49811 16.4791 10.2432 18.1877C10.7477 18.6739 11.0749 19.2277 11.0272 19.9368C10.9795 20.7742 10.5568 21.4022 9.77287 21.7264C8.99574 22.0505 8.23907 21.9357 7.6051 21.3684C7.04611 20.8687 6.52803 20.3217 5.99631 19.7949C4.258 18.0729 2.5197 16.3575 0.788205 14.6355C-0.261596 13.5887 -0.261596 12.4204 0.781388 11.3804C3.00369 9.17209 5.226 6.97053 7.45512 4.77572C8.17771 4.06663 9.1798 3.93157 10.0046 4.39754C10.809 4.85001 11.2249 5.79546 10.9386 6.70715C10.8159 7.09209 10.5568 7.47702 10.2705 7.76741C8.68898 9.36793 7.0802 10.9414 5.48504 12.5284C5.33507 12.677 5.19192 12.8323 5.00104 13.0282Z" fill="currentColor"/>
</g>
<defs>
<clipPath id="clip0_7_215">
<rect width="36" height="26" fill="white"/>
</clipPath>
</defs>
</svg>
