<svg xmlns="http://www.w3.org/2000/svg" width="29" height="29" fill="none"><g fill="currentColor" clip-path="url(#a)"><path d="M25.709 5.343q.562-.281 1.116-.562.658-.332 1.315-.67c.223-.115.439-.12.644.039.2.153.25.358.205.608-.484 2.557-.957 5.113-1.44 7.67-.086.46-.445.648-.872.45-2.358-1.103-4.716-2.217-7.08-3.319-.222-.102-.37-.261-.375-.517-.012-.267.13-.443.364-.557.803-.409 1.6-.818 2.466-1.261-.45-.381-.848-.767-1.293-1.091C14.586 1.559 5.832 4.775 4.118 12.24c-.205.903-.347.92-1.156.909-.752-.011-1.498 0-2.25 0-.54 0-.78-.261-.683-.784C1.117 6.474 4.499 2.502 10.206.678 15.77-1.1 21.676.701 25.504 5.116c.062.074.125.142.204.227M6.983 21.821c.889.915 1.891 1.63 3.024 2.17 5.946 2.842 13.031-.391 14.768-6.744.08-.284.131-.573.2-.858.08-.33.261-.494.597-.5.94-.005 1.88-.011 2.82 0 .427.006.655.296.592.716-.883 6.046-5.587 11.023-11.59 12.108-5.513 1-10.16-.659-13.913-4.812-.148-.165-.245-.193-.444-.085-.695.369-1.402.715-2.096 1.08-.245.124-.484.187-.718.005-.233-.176-.25-.415-.2-.688.48-2.528.952-5.057 1.43-7.585.091-.477.444-.66.889-.454l7.05 3.306c.234.108.388.273.388.546s-.148.432-.376.55c-.678.342-1.35.688-2.028 1.035-.125.068-.25.136-.393.21"/></g><defs><clipPath id="a"><path fill="#fff" d="M0 0h29v29H0z"/></clipPath></defs></svg>