<svg xmlns="http://www.w3.org/2000/svg" width="33" height="28" fill="none"><path fill="currentColor" d="M12.679 27.767c-2.747 0-5.495-.075-8.23.022-2.792.097-4.732-2.12-4.405-4.755.469-3.775 3.303-6.82 7.108-7.368a8 8 0 0 1 1.253-.075c2.89-.011 5.779-.022 8.668 0 4.153.043 7.445 2.732 8.252 6.755.262 1.312.251 2.614-.6 3.754-.817 1.097-1.929 1.656-3.314 1.667-2.921.011-5.832 0-8.732 0M19.624 6.62c-.011 3.754-3.107 6.809-6.89 6.809-3.816 0-6.912-3.098-6.89-6.874C5.854 2.79 8.94-.222 12.756-.21c3.804.01 6.879 3.066 6.868 6.83M22.06 3.884c1 0 1.81-.8 1.81-1.786S23.06.313 22.06.313s-1.81.799-1.81 1.785.81 1.786 1.81 1.786M26.622 3.884c1 0 1.81-.8 1.81-1.786s-.81-1.785-1.81-1.785-1.81.799-1.81 1.785.81 1.786 1.81 1.786M31.193 3.884c.999 0 1.81-.8 1.81-1.786S32.191.313 31.192.313c-1 0-1.81.799-1.81 1.785s.81 1.786 1.81 1.786"/></svg>