<svg xmlns="http://www.w3.org/2000/svg" width="35" height="32" fill="none"><path fill="currentColor" d="M26.702 5.417c-.01 2.335-1.486 4.273-3.77 4.945-2.087.616-4.513-.276-5.649-2.203-.732-1.255-1.748-1.795-3.147-1.729-.623.033-1.235.011-1.858.011-1.169 0-2.043.496-2.655 1.52-1.158 1.938-2.907 2.82-5.114 2.522C2.335 10.196.87 8.908.215 6.783-.681 3.897 1.329.77 4.367.285c2.098-.33 4.13.595 5.212 2.445.667 1.145 1.628 1.619 2.885 1.63.656.01 1.311.022 1.967 0 1.191-.033 2.12-.507 2.754-1.575C18.79.054 22.288-.618 24.735 1.32c1.312 1.036 1.967 2.412 1.967 4.097M26.79 26.066c-.098 2.29-1.605 4.306-3.758 4.934-2.207.639-4.6-.253-5.77-2.258-.71-1.222-1.726-1.707-3.07-1.696-.569.011-1.126 0-1.694 0-1.278.011-2.251.496-2.928 1.652-1.017 1.718-2.601 2.566-4.568 2.478-2.076-.088-3.628-1.145-4.524-3.05-1.136-2.423-.142-5.309 2.218-6.619 2.382-1.322 5.42-.595 6.808 1.729.743 1.244 1.737 1.806 3.147 1.729.601-.033 1.202-.011 1.803 0 1.213.01 2.098-.507 2.743-1.564 1.125-1.872 2.83-2.73 4.972-2.5 2.054.22 3.485 1.399 4.229 3.348.207.584.262 1.223.393 1.817"/><path fill="currentColor" d="M21.59 16.705c-.525.022-1.06.022-1.574.088-.962.12-1.683.616-2.175 1.475-.83 1.432-2.054 2.28-3.693 2.544-2.437.386-4.863-1.112-5.628-3.513-1.038-3.26 1.323-6.684 4.721-6.75 1.945-.044 3.519.781 4.524 2.477.7 1.179 1.683 1.674 2.983 1.663.841 0 1.683.011 2.502-.077.918-.099 1.607-.605 2.087-1.42 1.104-1.884 2.776-2.82 4.918-2.61 2.316.23 3.879 1.552 4.556 3.832.82 2.731-1.169 5.892-3.977 6.354-2.35.396-4.294-.495-5.507-2.544-.602-1.024-1.52-1.431-2.634-1.486-.36-.023-.732 0-1.093 0-.01-.011-.01-.023-.01-.034"/></svg>