<svg width="32" height="30" viewBox="0 0 32 30" fill="none" xmlns="http://www.w3.org/2000/svg">
<path d="M21.2581 29.8791C20.458 29.8338 19.9397 29.5322 19.513 29.0118C18.3927 27.6619 16.9524 27.1641 15.23 27.5337C14.2927 27.7373 13.5382 28.2501 12.9438 29.0043C12.1207 30.0525 11.3968 30.226 10.1469 29.7358C8.62276 29.14 7.23576 28.318 5.96308 27.2999C5.18575 26.6739 4.95712 25.8142 5.34579 24.9092C6.46606 22.2999 4.89616 19.5397 2.04596 19.1249C0.940931 18.9666 0.354125 18.3934 0.178845 17.2999C-0.0955063 15.5578 -0.0497812 13.8157 0.285537 12.0887C0.460817 11.1838 1.11621 10.5804 2.03834 10.4598C4.035 10.2034 5.44486 8.86852 5.74969 6.92282C5.85639 6.23654 5.75732 5.57289 5.53631 4.91678C5.17051 3.84589 5.40676 3.10683 6.31364 2.40547C7.57108 1.4477 8.95046 0.708638 10.4289 0.143027C11.2977 -0.188798 12.1055 0.0299045 12.7533 0.768969C14.2851 2.52613 16.6933 2.82779 18.5223 1.47033C18.8119 1.25162 19.071 0.980131 19.3148 0.708638C19.9321 0.022363 20.7552 -0.181257 21.624 0.143027C23.2472 0.761428 24.7409 1.60607 26.0898 2.69205C26.89 3.33307 27.1186 4.10984 26.7833 5.07515C25.9221 7.56384 27.3853 10.0676 29.9917 10.5653C31.0738 10.769 31.6073 11.3421 31.7902 12.4206C32.0798 14.1098 32.0645 15.7991 31.7673 17.4809C31.5768 18.5367 30.99 19.1174 29.9154 19.2908C27.271 19.7056 25.7087 22.3904 26.6842 24.8715C27.05 25.8067 26.829 26.6287 26.0441 27.2622C24.8095 28.2652 23.453 29.0721 21.9669 29.6604C21.7078 29.781 21.4182 29.8338 21.2581 29.8791ZM16.0379 9.7207C13.0886 9.7207 10.688 12.0736 10.6804 14.9771C10.6728 17.9107 13.0657 20.2788 16.0302 20.2788C18.9643 20.2788 21.3496 17.9032 21.3496 14.9847C21.3496 12.1038 18.949 9.7207 16.0379 9.7207Z" fill="currentColor"/>
</svg>
