<svg width="29" height="29" viewBox="0 0 29 29" fill="none" xmlns="http://www.w3.org/2000/svg">
<g clip-path="url(#clip0_7_247)">
<path d="M25.7085 5.34305C26.0844 5.15555 26.4546 4.96805 26.8248 4.78055C27.2633 4.55896 27.7019 4.33737 28.1404 4.11009C28.3625 3.99646 28.5789 3.99077 28.7839 4.14987C28.9833 4.30327 29.0345 4.50782 28.989 4.75782C28.5049 7.31464 28.0322 9.87146 27.5481 12.4283C27.4627 12.8885 27.1039 13.076 26.6767 12.8771C24.3189 11.7749 21.9611 10.6612 19.5976 9.55896C19.3755 9.45668 19.2274 9.29759 19.2217 9.04191C19.2103 8.77487 19.3527 8.59873 19.5862 8.48509C20.3892 8.076 21.1865 7.66691 22.0522 7.22373C21.6023 6.84305 21.2036 6.45668 20.7594 6.13282C14.5858 1.55896 5.83226 4.77487 4.118 12.2408C3.91297 13.1442 3.77059 13.1612 2.96187 13.1499C2.2101 13.1385 1.46403 13.1499 0.712263 13.1499C0.171219 13.1499 -0.0679801 12.8885 0.0288385 12.3658C1.11662 6.47373 4.49958 2.50214 10.2062 0.678274C15.7704 -1.10013 21.6763 0.701002 25.5035 5.11577C25.5662 5.18964 25.6288 5.25782 25.7085 5.34305Z" fill="currentColor"/>
<path d="M6.98329 21.8212C7.87174 22.736 8.8741 23.4519 10.0074 23.9916C15.9532 26.8326 23.0381 23.5996 24.7751 17.2473C24.8549 16.9632 24.9061 16.6735 24.9745 16.3894C25.0542 16.0598 25.2364 15.8951 25.5724 15.8894C26.5122 15.8837 27.4519 15.878 28.3916 15.8894C28.8187 15.8951 29.0465 16.1848 28.9839 16.6053C28.1011 22.6507 23.3969 27.628 17.3941 28.7132C11.8812 29.7132 7.23388 28.0541 3.48074 23.9007C3.33266 23.736 3.23584 23.7076 3.03651 23.8155C2.34169 24.1848 1.63549 24.5314 0.940672 24.8951C0.695779 25.0201 0.45658 25.0826 0.223076 24.9007C-0.0104273 24.7246 -0.0275129 24.486 0.023744 24.2132C0.502141 21.6848 0.974844 19.1564 1.45324 16.628C1.54436 16.1507 1.89747 15.9689 2.34169 16.1735C4.69381 17.2757 7.04024 18.378 9.39236 19.4803C9.62586 19.5882 9.77964 19.753 9.77964 20.0257C9.77964 20.2985 9.63156 20.4576 9.40375 20.5769C8.72602 20.9178 8.05399 21.2644 7.37626 21.611C7.25096 21.6791 7.12567 21.7473 6.98329 21.8212Z" fill="currentColor"/>
</g>
<defs>
<clipPath id="clip0_7_247">
<rect width="29" height="29" fill="white"/>
</clipPath>
</defs>
</svg>
