<svg width="33" height="28" viewBox="0 0 33 28" fill="none" xmlns="http://www.w3.org/2000/svg">
<path d="M12.679 27.7673C9.93175 27.7673 7.18447 27.692 4.4481 27.7888C1.65722 27.8856 -0.283315 25.6697 0.0437416 23.0343C0.512523 19.2586 3.34701 16.2144 7.15177 15.6658C7.56604 15.6013 7.98031 15.5905 8.40549 15.5905C11.2945 15.5798 14.1835 15.569 17.0725 15.5905C21.2261 15.6336 24.5185 18.3228 25.3252 22.3458C25.5869 23.6582 25.576 24.9597 24.7256 26.1C23.908 27.1972 22.796 27.7565 21.4114 27.7673C18.4897 27.778 15.5789 27.7673 12.679 27.7673Z" fill="currentColor"/>
<path d="M19.6238 6.61967C19.6129 10.3738 16.5168 13.4287 12.7339 13.4287C8.9182 13.4287 5.82206 10.3308 5.84386 6.55513C5.85477 2.79024 8.94 -0.221666 12.7557 -0.210909C16.5604 -0.200152 19.6347 2.85478 19.6238 6.61967Z" fill="currentColor"/>
<path d="M22.0597 3.88376C23.0592 3.88376 23.8694 3.08431 23.8694 2.09813C23.8694 1.11195 23.0592 0.3125 22.0597 0.3125C21.0602 0.3125 20.25 1.11195 20.25 2.09813C20.25 3.08431 21.0602 3.88376 22.0597 3.88376Z" fill="currentColor"/>
<path d="M26.6222 3.88376C27.6217 3.88376 28.4319 3.08431 28.4319 2.09813C28.4319 1.11195 27.6217 0.3125 26.6222 0.3125C25.6227 0.3125 24.8125 1.11195 24.8125 2.09813C24.8125 3.08431 25.6227 3.88376 26.6222 3.88376Z" fill="currentColor"/>
<path d="M31.1925 3.88376C32.192 3.88376 33.0022 3.08431 33.0022 2.09813C33.0022 1.11195 32.192 0.3125 31.1925 0.3125C30.193 0.3125 29.3828 1.11195 29.3828 2.09813C29.3828 3.08431 30.193 3.88376 31.1925 3.88376Z" fill="currentColor"/>
</svg>
