<svg xmlns="http://www.w3.org/2000/svg" width="34" height="25" fill="none"><path fill="currentColor" d="M11.863 14.973c-.72.767-1.358 1.463-2.01 2.143-2.133 2.23-4.272 4.452-6.412 6.682-.539.561-1.153.553-1.692-.008-.448-.467-.895-.925-1.343-1.4-.531-.561-.546-1.186-.015-1.74 3.285-3.431 6.578-6.863 9.871-10.287.956-.989 2.231-.957 3.202.047q1.694 1.757 3.377 3.527c.151.158.273.34.387.482l9.34-9.734h-4.31c-.796 0-1.221-.435-1.221-1.265 0-.657-.008-1.321 0-1.977.007-.767.417-1.226 1.138-1.226q5.349-.012 10.698 0c.706 0 1.13.459 1.13 1.202v11.11c0 .736-.424 1.186-1.13 1.194-.622.008-1.236 0-1.859 0-.918 0-1.305-.403-1.305-1.384V7.88c-.174.167-.273.261-.38.372-3.444 3.59-6.889 7.173-10.326 10.763-.425.442-.895.759-1.517.806-.736.048-1.32-.245-1.829-.783-1.123-1.194-2.269-2.372-3.4-3.558-.12-.135-.22-.293-.394-.506"/></svg>