<svg width="34" height="25" viewBox="0 0 34 25" fill="none" xmlns="http://www.w3.org/2000/svg">
<path d="M11.8633 14.9727C11.1425 15.7398 10.5051 16.4356 9.85257 17.1157C7.72046 19.3457 5.58075 21.5678 3.44105 23.7978C2.90233 24.3592 2.28774 24.3513 1.74902 23.7899C1.30135 23.3233 0.853685 22.8646 0.406017 22.3902C-0.125114 21.8287 -0.140289 21.204 0.390842 20.6505C3.67627 17.2185 6.96928 13.7866 10.2623 10.3625C11.2183 9.37403 12.4931 9.40567 13.4643 10.4099C14.5948 11.5803 15.7178 12.7585 16.8407 13.9368C16.9925 14.095 17.1139 14.2768 17.2277 14.4192C20.3766 11.1375 23.4571 7.92692 26.568 4.68474C26.4315 4.68474 26.2949 4.68474 26.1659 4.68474C24.8608 4.68474 23.5633 4.68474 22.2583 4.68474C21.4616 4.68474 21.0367 4.24982 21.0367 3.4195C21.0367 2.76316 21.0291 2.09891 21.0367 1.44257C21.0443 0.675517 21.454 0.216868 22.1748 0.216868C25.741 0.208961 29.3072 0.208961 32.8733 0.216868C33.579 0.216868 34.0039 0.675517 34.0039 1.41885C34.0039 5.11967 34.0039 8.8284 34.0039 12.5292C34.0039 13.2646 33.579 13.7154 32.8733 13.7233C32.2511 13.7312 31.6365 13.7233 31.0144 13.7233C30.0963 13.7233 29.7093 13.32 29.7093 12.3394C29.7093 11.0347 29.7093 9.72988 29.7093 8.42511C29.7093 8.28277 29.7093 8.14043 29.7093 7.87947C29.5348 8.04553 29.4361 8.14043 29.3299 8.25113C25.8852 11.8413 22.4404 15.4235 19.0032 19.0136C18.5783 19.4564 18.1079 19.7727 17.4857 19.8202C16.7497 19.8676 16.1654 19.575 15.6571 19.0373C14.5341 17.8432 13.3884 16.665 12.2578 15.4788C12.1364 15.3444 12.0378 15.1862 11.8633 14.9727Z" fill="currentColor"/>
</svg>
