<svg xmlns="http://www.w3.org/2000/svg" width="28" height="33" fill="none"><g fill="currentColor" clip-path="url(#a)"><path d="M14.359 0c.374 0 1.055.19 1.684.585 3.47 2.204 6.94 4.39 10.394 6.61 1.616 1.033 2.041 3.03.986 4.58-.102.155-.255.31-.425.413-3.93 2.513-7.876 5.01-11.806 7.505-.782.5-1.565.517-2.364 0-3.947-2.513-7.893-5.01-11.823-7.522-.63-.414-.867-1.085-.952-1.808C-.117 8.97.46 7.901 1.6 7.161a445 445 0 0 1 5.256-3.34c1.667-1.067 3.334-2.117 5.001-3.184.68-.43 1.361-.637 2.5-.637"/><path d="M.549 14.734c.868.551 1.701 1.085 2.535 1.601 2.857 1.808 5.698 3.65 8.573 5.44 1.582.981 3.198.947 4.78-.034 3.59-2.256 7.145-4.545 10.717-6.8.085-.052.187-.12.306-.19.29.38.442.81.51 1.275.17 1.342-.323 2.444-1.445 3.167a1473 1473 0 0 1-11.38 7.23c-.766.482-1.549.465-2.314-.017-1.803-1.136-3.59-2.29-5.393-3.426-1.973-1.257-3.963-2.513-5.936-3.77A3.22 3.22 0 0 1 .31 15.113c.068-.12.153-.224.238-.379"/><path d="M.464 21.398c.715.448 1.395.878 2.058 1.309 3.028 1.928 6.056 3.873 9.101 5.767 1.582.98 3.232.964 4.797-.035 3.607-2.255 7.179-4.562 10.768-6.834.102-.069.204-.12.324-.19.255.38.39.775.425 1.188.153 1.395-.408 2.462-1.548 3.202a1825 1825 0 0 1-9.611 6.111c-.562.362-1.157.706-1.77.913-1.088.361-2.143.172-3.112-.448-3.437-2.169-6.856-4.355-10.292-6.541-1.446-.913-1.99-2.565-1.361-4.063.068-.12.136-.224.221-.379"/></g><defs><clipPath id="a"><path fill="#fff" d="M0 0h28v33H0z"/></clipPath></defs></svg>