<svg width="28" height="33" viewBox="0 0 28 33" fill="none" xmlns="http://www.w3.org/2000/svg">
<g clip-path="url(#clip0_7_256)">
<path d="M14.3589 0C14.7332 0 15.4136 0.189358 16.043 0.58529C19.5132 2.78873 22.9835 4.97496 26.4367 7.19562C28.0527 8.22848 28.478 10.2254 27.4233 11.7746C27.3212 11.9296 27.1681 12.0845 26.998 12.1878C23.0685 14.7011 19.122 17.1972 15.1924 19.6933C14.4099 20.1925 13.6274 20.2097 12.8279 19.6933C8.88139 17.18 4.93485 14.6839 1.00533 12.1706C0.375922 11.7574 0.137769 11.0861 0.052714 10.3631C-0.117395 8.9687 0.460976 7.90141 1.60071 7.16119C3.35284 6.02504 5.10496 4.92332 6.85709 3.8216C8.52416 2.7543 10.1912 1.70423 11.8583 0.636933C12.5387 0.206573 13.2192 0 14.3589 0Z" fill="currentColor"/>
<path d="M0.548951 14.7344C1.41651 15.2852 2.25004 15.8189 3.08358 16.3353C5.94142 18.1428 8.78224 19.9848 11.6571 21.7751C13.2391 22.7563 14.8551 22.7219 16.4372 21.7406C20.0265 19.4855 23.5818 17.196 27.154 14.9409C27.2391 14.8893 27.3412 14.8204 27.4602 14.7516C27.7494 15.1303 27.9025 15.5607 27.9706 16.0255C28.1407 17.3682 27.6474 18.4699 26.5246 19.1929C22.8843 21.5341 19.2099 23.858 15.5526 26.1647C15.4165 26.2508 15.2804 26.3369 15.1443 26.423C14.3788 26.905 13.5963 26.8877 12.8308 26.4057C11.0277 25.2696 9.24154 24.1162 7.43838 22.9801C5.46511 21.7234 3.47483 20.4668 1.50156 19.2101C0.123677 18.3322 -0.386651 16.5763 0.310798 15.1131C0.378841 14.9926 0.463896 14.8893 0.548951 14.7344Z" fill="currentColor"/>
<path d="M0.464154 21.3984C1.17861 21.846 1.85905 22.2764 2.52248 22.7067C5.55042 24.6347 8.57837 26.58 11.6233 28.4736C13.2053 29.4548 14.8554 29.4376 16.4204 28.4391C20.0267 26.184 23.599 23.8773 27.1883 21.605C27.2904 21.5362 27.3925 21.4845 27.5115 21.4157C27.7667 21.7944 27.9028 22.1903 27.9368 22.6034C28.0899 23.9978 27.5286 25.0651 26.3888 25.8053C23.1908 27.8538 19.9927 29.8851 16.7776 31.9164C16.2163 32.2779 15.6209 32.6222 15.0085 32.8288C13.9198 33.1903 12.8651 33.0009 11.8955 32.3812C8.45929 30.2122 5.0401 28.026 1.60389 25.8398C0.157957 24.9274 -0.386393 23.2748 0.243012 21.7772C0.311056 21.6567 0.379099 21.5534 0.464154 21.3984Z" fill="currentColor"/>
</g>
<defs>
<clipPath id="clip0_7_256">
<rect width="28" height="33" fill="white"/>
</clipPath>
</defs>
</svg>
