<svg xmlns="http://www.w3.org/2000/svg" width="36" height="26" fill="none"><g fill="currentColor" clip-path="url(#a)"><path d="M12.555 23.765c.034-.142.082-.46.177-.763 2.188-7.098 4.383-14.189 6.578-21.287C19.644.635 20.408.007 21.376 0c.9-.007 1.731.567 1.963 1.472.102.392.11.865-.014 1.25a4995 4995 0 0 1-6.7 21.718c-.348 1.108-1.323 1.715-2.366 1.54-.989-.176-1.704-1.027-1.704-2.215M31.01 12.982c-1.799-1.77-3.55-3.505-5.31-5.227-.545-.533-.824-1.148-.702-1.898.13-.776.566-1.337 1.33-1.593.824-.277 1.581-.115 2.201.493 1.425 1.398 2.836 2.802 4.254 4.207.839.83 1.684 1.654 2.509 2.492.961.972.961 2.147-.014 3.12-2.229 2.222-4.472 4.443-6.714 6.652-.9.884-2.168.898-3 .067-.832-.83-.804-2.08.089-2.978 1.609-1.607 3.224-3.2 4.84-4.802zM5.001 13.028c1.759 1.736 3.497 3.451 5.242 5.16.505.486.832 1.04.784 1.749-.047.837-.47 1.465-1.254 1.79-.777.323-1.534.209-2.168-.359-.559-.5-1.077-1.046-1.609-1.573-1.738-1.722-3.476-3.437-5.208-5.16-1.05-1.046-1.05-2.215-.007-3.255q3.333-3.312 6.674-6.604c.723-.71 1.725-.844 2.55-.378.804.452 1.22 1.397.934 2.31-.123.384-.382.769-.668 1.06-1.582 1.6-3.19 3.173-4.786 4.76-.15.149-.293.304-.484.5"/></g><defs><clipPath id="a"><path fill="#fff" d="M0 0h36v26H0z"/></clipPath></defs></svg>