<svg width="34" height="32" viewBox="0 0 34 32" fill="none" xmlns="http://www.w3.org/2000/svg">
<path d="M11.9925 0.789062C17.9 0.832945 22.9436 5.31625 23.8567 11.3793C24.8823 18.2323 20.2883 24.7049 13.7135 25.6557C11.3252 25.9994 9.02819 25.685 6.82955 24.6391C6.67501 24.566 6.46428 24.5513 6.29569 24.5952C5.42466 24.8146 4.55364 25.0706 3.68261 25.3046C1.7228 25.8385 0.0369357 24.1052 0.535669 22.05C0.760451 21.1212 1.00631 20.1924 1.22406 19.2562C1.26621 19.0734 1.24514 18.8393 1.16787 18.6784C-2.23195 11.2257 2.12319 2.42734 9.93434 1.01579C10.6157 0.891455 11.3041 0.8622 11.9925 0.789062Z" fill="currentColor"/>
<path d="M27.2203 7.78906C27.3544 7.84816 27.4462 7.8851 27.5309 7.93681C31.9212 10.5297 34.1022 14.4597 33.9963 19.7489C33.961 21.4405 33.5234 23.0435 32.8317 24.5801C32.7682 24.7204 32.7541 24.9125 32.7823 25.0602C32.987 26.0206 33.2199 26.9735 33.4317 27.9338C33.8975 30.0466 32.2106 31.753 30.213 31.199C29.3872 30.97 28.5614 30.7188 27.7285 30.512C27.5238 30.4603 27.2627 30.4824 27.0721 30.5711C22.4559 32.6469 18.1856 32.078 14.247 28.7981C14.1765 28.739 14.1059 28.6726 14.0353 28.5987C14.0212 28.5839 14.0141 28.5618 14 28.5248C18.835 28.0299 22.7171 25.7768 25.4204 21.5513C28.1238 17.3259 28.632 12.7015 27.2203 7.78906Z" fill="currentColor"/>
</svg>
