<svg xmlns="http://www.w3.org/2000/svg" width="32" height="30" fill="none"><path fill="currentColor" d="M21.258 29.88c-.8-.046-1.318-.348-1.745-.868-1.12-1.35-2.56-1.848-4.283-1.478-.937.203-1.692.716-2.286 1.47-.823 1.048-1.547 1.222-2.797.732A16 16 0 0 1 5.963 27.3c-.777-.626-1.006-1.486-.617-2.39 1.12-2.61-.45-5.37-3.3-5.785C.941 18.967.354 18.393.179 17.3a15 15 0 0 1 .107-5.211c.175-.905.83-1.509 1.752-1.63 1.997-.256 3.407-1.59 3.712-3.536.106-.686.007-1.35-.214-2.006-.365-1.071-.13-1.81.778-2.512C7.57 1.448 8.95.71 10.429.143c.869-.332 1.676-.113 2.324.626 1.532 1.757 3.94 2.059 5.77.701.289-.218.548-.49.792-.761.617-.687 1.44-.89 2.309-.566a16.4 16.4 0 0 1 4.466 2.55c.8.64 1.029 1.417.693 2.382-.86 2.489.602 4.993 3.209 5.49 1.082.204 1.615.777 1.798 1.856.29 1.689.275 3.378-.023 5.06-.19 1.056-.777 1.636-1.852 1.81-2.644.415-4.206 3.1-3.23 5.58.365.936.144 1.758-.64 2.391a15.5 15.5 0 0 1-4.078 2.398c-.26.121-.549.174-.709.22m-5.22-20.16c-2.95 0-5.35 2.354-5.358 5.257-.007 2.934 2.386 5.302 5.35 5.302 2.934 0 5.32-2.376 5.32-5.294 0-2.881-2.401-5.264-5.312-5.264"/></svg>