<svg width="35" height="32" viewBox="0 0 35 32" fill="none" xmlns="http://www.w3.org/2000/svg">
<path d="M26.7023 5.41705C26.6914 7.75168 25.2162 9.68987 22.9324 10.3616C20.8453 10.9783 18.4194 10.0863 17.283 8.15914C16.5509 6.90372 15.5346 6.36412 14.1359 6.43019C13.5131 6.46323 12.9012 6.4412 12.2783 6.4412C11.1091 6.4412 10.2349 6.93676 9.62299 7.96092C8.4647 9.89911 6.71634 10.7801 4.50903 10.4828C2.33451 10.1964 0.870256 8.90799 0.214621 6.78259C-0.681414 3.89733 1.3292 0.7698 4.36698 0.285252C6.46501 -0.0451205 8.49748 0.879924 9.57928 2.73001C10.2458 3.87531 11.2074 4.34884 12.4641 4.35985C13.1197 4.37086 13.7753 4.38188 14.431 4.35985C15.6221 4.32682 16.5509 3.85328 17.1847 2.78507C18.791 0.0539915 22.2877 -0.617767 24.7354 1.32042C26.0467 2.35559 26.7023 3.73214 26.7023 5.41705Z" fill="currentColor"/>
<path d="M26.7909 26.0662C26.6925 28.3568 25.1846 30.372 23.0319 30.9997C20.8246 31.6385 18.4315 30.7465 17.2623 28.7422C16.552 27.5198 15.5358 27.0353 14.1918 27.0463C13.6235 27.0573 13.0662 27.0463 12.498 27.0463C11.2195 27.0573 10.247 27.5418 9.56952 28.6981C8.55329 30.4161 6.96883 31.264 5.00193 31.1759C2.92575 31.0878 1.37408 30.0306 0.478045 28.1255C-0.65839 25.7028 0.335991 22.8175 2.69628 21.507C5.07842 20.1855 8.1162 20.9124 9.50396 23.236C10.247 24.4804 11.2414 25.042 12.651 24.9649C13.252 24.9319 13.853 24.9539 14.454 24.9649C15.6669 24.9759 16.552 24.4584 17.1967 23.4012C18.3223 21.529 20.0269 20.6701 22.1686 20.9013C24.223 21.1216 25.6544 22.2999 26.3975 24.2491C26.6051 24.8328 26.6598 25.4715 26.7909 26.0662Z" fill="currentColor"/>
<path d="M21.5894 16.7045C21.0649 16.7265 20.5295 16.7265 20.0159 16.7926C19.0543 16.9137 18.3331 17.4093 17.8414 18.2683C17.0109 19.6999 15.787 20.5478 14.148 20.8121C11.7112 21.1976 9.28533 19.6999 8.52042 17.2992C7.48233 14.0395 9.84262 10.6146 13.241 10.5485C15.186 10.5045 16.7596 11.3304 17.7649 13.0263C18.4642 14.2047 19.4477 14.7002 20.748 14.6892C21.5894 14.6892 22.4308 14.7002 23.2504 14.6121C24.1683 14.513 24.8567 14.0065 25.3375 13.1915C26.4411 11.3084 28.113 10.3723 30.2547 10.5816C32.5713 10.8128 34.1339 12.1343 34.8114 14.4139C35.6309 17.145 33.6422 20.3056 30.8339 20.7681C28.4845 21.1645 26.5395 20.2725 25.3265 18.2242C24.7255 17.2001 23.8077 16.7926 22.6931 16.7375C22.3325 16.7155 21.9609 16.7375 21.6003 16.7375C21.5894 16.7265 21.5894 16.7155 21.5894 16.7045Z" fill="currentColor"/>
</svg>
