<svg xmlns="http://www.w3.org/2000/svg" width="34" height="32" fill="none"><path fill="currentColor" d="M11.993.79c5.907.043 10.95 4.526 11.864 10.59 1.025 6.852-3.569 13.325-10.143 14.276-2.389.343-4.686.029-6.884-1.017a.83.83 0 0 0-.534-.044c-.871.22-1.742.476-2.613.71-1.96.534-3.646-1.2-3.147-3.255.224-.929.47-1.858.688-2.794a.95.95 0 0 0-.056-.578c-3.4-7.452.955-16.25 8.766-17.662.682-.125 1.37-.154 2.059-.227"/><path fill="currentColor" d="M27.22 7.79c.134.058.226.095.31.147 4.391 2.593 6.572 6.523 6.466 11.812-.035 1.692-.473 3.295-1.164 4.831a.86.86 0 0 0-.05.48c.205.96.438 1.914.65 2.874.465 2.113-1.221 3.819-3.219 3.265-.826-.229-1.652-.48-2.485-.687a1.05 1.05 0 0 0-.656.06c-4.616 2.075-8.886 1.506-12.825-1.774a3 3 0 0 1-.212-.2c-.014-.014-.02-.036-.035-.073 4.835-.495 8.717-2.748 11.42-6.974 2.704-4.225 3.212-8.85 1.8-13.762"/></svg>