<svg width="100" height="60" viewBox="0 0 100 60" fill="none" xmlns="http://www.w3.org/2000/svg">
<path d="M25.2224 30.5446V10H30.216V22.6309C32.6754 19.6995 36.0527 18.8491 39.3851 18.8491C44.9624 18.8491 51.1632 22.6209 51.1632 30.7697C51.1632 31.7452 51.0934 32.6756 50.9088 33.566C51.9065 29.5792 56.2117 28.1135 62.9712 27.9484C65.0964 27.8684 67.5308 27.8684 69.4664 27.8684V27.3131C69.4664 23.6214 67.1517 22.1157 63.101 22.1157C60.0978 22.1157 57.9128 23.3663 57.6634 25.4973H52.3555C52.9192 20.1147 58.6062 18.7341 63.5399 18.7341C67.9748 18.7341 71.851 19.8596 73.602 22.9961L71.7811 19.4844H77.6527L86.2132 36.7075L94.7736 19.4744H99.9468L84.4572 49.9787H78.85L83.3098 41.4597L73.607 23.1712C74.1457 24.2367 74.4401 25.4973 74.4401 27.058V37.3378C74.4401 38.7835 74.485 40.2092 74.6097 41.5298H69.9653C69.84 40.4689 69.7767 39.4016 69.7757 38.3333C67.2664 41.3997 64.2733 42.3502 60.1128 42.3502C53.9468 42.3502 50.6494 39.0886 50.6494 35.2668C50.6494 34.6416 50.7142 34.0863 50.804 33.576C49.5519 38.7835 45.1419 42.2801 39.2803 42.2801C35.6536 42.2801 32.2264 40.9695 30.1162 38.4033C30.1162 39.4088 30.0514 40.4643 29.9516 41.4597H25.0329C25.1226 39.839 25.2025 37.8931 25.2025 36.2723V31.8853H5.08838C5.35777 36.4574 8.49561 39.1437 12.8058 39.1437C15.7939 39.1437 18.4479 37.8931 19.3359 35.2668H24.4991C23.5013 40.6594 17.7944 42.4652 12.8806 42.4652C3.95597 42.5553 0 37.5979 0 30.9548C0 23.6364 4.08567 18.8091 12.9804 18.8091C20.0093 18.8091 25.1775 22.5009 25.2224 30.5246V30.5446ZM63.2706 31.31C58.706 31.4451 55.8924 32.2754 55.8924 35.2768C55.8924 37.2228 57.394 39.3237 61.33 39.3237C66.578 39.3237 69.3866 36.4524 69.3866 31.7502V31.2049C67.5109 31.2049 65.266 31.2349 63.2057 31.305H63.2606L63.2706 31.31ZM38.0332 39.1337C42.6576 39.1337 45.8453 35.7721 45.8453 30.6997C45.8453 25.6273 42.6427 22.2658 37.9633 22.2658C33.3339 22.2658 30.0913 25.6273 30.0913 30.6997C30.0913 35.7721 33.279 39.1337 37.8985 39.1337H38.0332ZM19.9195 28.6387C19.7349 23.9415 16.3577 22.1807 12.7359 22.1807C8.8049 22.1807 5.68203 24.1566 5.17319 28.6387H19.9195Z" fill="#000458" fill-opacity="0.36"/>
</svg>
