<svg xmlns="http://www.w3.org/2000/svg" width="100" height="60" fill="none"><path fill="#000458" fill-opacity=".36" d="M25.222 30.545V10h4.994v12.63c2.46-2.93 5.837-3.78 9.17-3.78 5.576 0 11.777 3.77 11.777 11.92 0 .975-.07 1.906-.254 2.796.998-3.987 5.303-5.453 12.062-5.618 2.125-.08 4.56-.08 6.495-.08v-.555c0-3.692-2.314-5.197-6.365-5.197-3.003 0-5.188 1.25-5.438 3.381h-5.307c.563-5.382 6.25-6.763 11.184-6.763 4.435 0 8.311 1.126 10.062 4.262l-1.82-3.512h5.87l8.561 17.224 8.56-17.234h5.174L84.457 49.98H78.85l4.46-8.52-9.703-18.288c.539 1.066.833 2.326.833 3.887v10.28c0 1.445.045 2.871.17 4.192h-4.645a28 28 0 0 1-.19-3.197c-2.509 3.067-5.502 4.017-9.662 4.017-6.166 0-9.464-3.261-9.464-7.083 0-.625.065-1.18.155-1.691-1.252 5.207-5.662 8.704-11.524 8.704-3.626 0-7.054-1.31-9.164-3.877 0 1.006-.065 2.061-.164 3.057h-4.92c.09-1.621.17-3.567.17-5.188v-4.387H5.089c.27 4.572 3.408 7.259 7.718 7.259 2.988 0 5.642-1.25 6.53-3.877h5.163c-.998 5.392-6.705 7.198-11.618 7.198C3.956 42.555 0 37.598 0 30.955c0-7.319 4.086-12.146 12.98-12.146 7.03 0 12.197 3.692 12.242 11.716zm38.049.765c-4.565.135-7.379.965-7.379 3.967 0 1.946 1.502 4.047 5.438 4.047 5.248 0 8.057-2.872 8.057-7.574v-.545c-1.876 0-4.121.03-6.181.1h.055zm-25.238 7.824c4.625 0 7.812-3.362 7.812-8.434 0-5.073-3.202-8.434-7.882-8.434-4.63 0-7.872 3.361-7.872 8.434s3.188 8.434 7.807 8.434zM19.92 28.639c-.184-4.697-3.561-6.458-7.183-6.458-3.931 0-7.054 1.976-7.563 6.458z"/></svg>