<svg xmlns="http://www.w3.org/2000/svg" width="139" height="46" fill="none"><path fill="#000458" fill-opacity=".36" d="M59.294 24.108c0 6.431-5.015 11.17-11.17 11.17s-11.17-4.739-11.17-11.17c0-6.477 5.015-11.17 11.17-11.17s11.17 4.693 11.17 11.17m-4.89 0c0-4.019-2.907-6.769-6.28-6.769s-6.28 2.75-6.28 6.769c0 3.979 2.906 6.769 6.28 6.769s6.28-2.795 6.28-6.769M83.992 24.108c0 6.431-5.148 11.17-11.465 11.17s-11.465-4.739-11.465-11.17c0-6.472 5.148-11.17 11.465-11.17s11.465 4.693 11.465 11.17m-5.02 0c0-4.019-2.982-6.769-6.445-6.769s-6.446 2.75-6.446 6.769c0 3.979 2.983 6.769 6.446 6.769s6.446-2.795 6.446-6.769M107.503 13.612V33.66c0 8.246-4.942 11.614-10.784 11.614-5.5 0-8.81-3.62-10.058-6.58l4.338-1.777c.773 1.818 2.665 3.962 5.715 3.962 3.739 0 6.057-2.27 6.057-6.544v-1.606h-.174c-1.115 1.354-3.264 2.537-5.975 2.537-5.674 0-10.872-4.863-10.872-11.121 0-6.303 5.198-11.206 10.871-11.206 2.707 0 4.856 1.183 5.976 2.496h.174v-1.817h4.732zm-4.379 10.532c0-3.932-2.666-6.806-6.057-6.806-3.438 0-6.319 2.874-6.319 6.806 0 3.892 2.88 6.726 6.319 6.726 3.391 0 6.057-2.834 6.057-6.726M115.149 1.766v32.923h-4.704V1.766zM134.063 27.79l3.803 2.538c-1.227 1.818-4.185 4.95-9.295 4.95-6.338 0-11.071-4.905-11.071-11.17 0-6.643 4.773-11.17 10.523-11.17 5.789 0 8.621 4.613 9.546 7.106l.508 1.269-14.913 6.185c1.141 2.24 2.917 3.384 5.407 3.384 2.495 0 4.225-1.229 5.492-3.092m-11.704-4.02 9.969-4.144c-.548-1.395-2.198-2.367-4.139-2.367-2.49 0-5.956 2.2-5.83 6.512M18.256 20.967v-4.82h16.112c.158.84.24 1.834.24 2.91 0 3.615-.981 8.086-4.142 11.271-3.074 3.227-7.002 4.947-12.205 4.947-9.644 0-17.753-7.917-17.753-17.637S8.618 0 18.26 0c5.336 0 9.136 2.11 11.992 4.86l-3.374 3.4c-2.048-1.935-4.822-3.44-8.623-3.44-7.042 0-12.55 5.72-12.55 12.818s5.508 12.818 12.55 12.818c4.568 0 7.17-1.848 8.836-3.528 1.352-1.363 2.241-3.309 2.592-5.967z"/></svg>