<svg width="139" height="46" viewBox="0 0 139 46" fill="none" xmlns="http://www.w3.org/2000/svg">
<path d="M59.2942 24.108C59.2942 30.5394 54.2787 35.2786 48.1237 35.2786C41.9686 35.2786 36.9531 30.5394 36.9531 24.108C36.9531 17.6313 41.9686 12.9375 48.1237 12.9375C54.2787 12.9375 59.2942 17.6313 59.2942 24.108ZM54.4043 24.108C54.4043 20.0891 51.4974 17.3392 48.1237 17.3392C44.7499 17.3392 41.8431 20.0891 41.8431 24.108C41.8431 28.0867 44.7499 30.8768 48.1237 30.8768C51.4974 30.8768 54.4043 28.0817 54.4043 24.108Z" fill="#000458" fill-opacity="0.36"/>
<path d="M83.9915 24.108C83.9915 30.5394 78.8441 35.2786 72.527 35.2786C66.2099 35.2786 61.0625 30.5394 61.0625 24.108C61.0625 17.6364 66.2099 12.9375 72.527 12.9375C78.8441 12.9375 83.9915 17.6313 83.9915 24.108ZM78.9729 24.108C78.9729 20.0891 75.9895 17.3392 72.527 17.3392C69.0645 17.3392 66.0811 20.0891 66.0811 24.108C66.0811 28.0867 69.0645 30.8768 72.527 30.8768C75.9895 30.8768 78.9729 28.0817 78.9729 24.108Z" fill="#000458" fill-opacity="0.36"/>
<path d="M107.503 13.6121V33.659C107.503 41.9053 102.561 45.2732 96.7187 45.2732C91.219 45.2732 87.9089 41.6535 86.6606 38.6933L90.999 36.9162C91.7715 38.7336 93.6644 40.8782 96.7135 40.8782C100.453 40.8782 102.771 38.6077 102.771 34.3336V32.7276H102.597C101.482 34.0818 99.3329 35.2649 96.6215 35.2649C90.9478 35.2649 85.75 30.4017 85.75 24.144C85.75 17.841 90.9478 12.9375 96.6215 12.9375C99.3278 12.9375 101.477 14.1206 102.597 15.4345H102.771V13.6171H107.503V13.6121ZM103.124 24.144C103.124 20.2122 100.458 17.3375 97.0665 17.3375C93.6286 17.3375 90.7483 20.2122 90.7483 24.144C90.7483 28.0356 93.6286 30.8699 97.0665 30.8699C100.458 30.8699 103.124 28.0356 103.124 24.144Z" fill="#000458" fill-opacity="0.36"/>
<path d="M115.149 1.76562V34.6893H110.445V1.76562H115.149Z" fill="#000458" fill-opacity="0.36"/>
<path d="M134.063 27.7896L137.866 30.3279C136.639 32.146 133.681 35.2786 128.571 35.2786C122.233 35.2786 117.5 30.3732 117.5 24.108C117.5 17.4651 122.273 12.9375 128.023 12.9375C133.812 12.9375 136.644 17.5508 137.569 20.0437L138.077 21.3129L123.164 27.4975C124.305 29.7386 126.081 30.8819 128.571 30.8819C131.066 30.8819 132.796 29.653 134.063 27.7896ZM122.359 23.7706L132.328 19.6257C131.78 18.2307 130.13 17.2587 128.189 17.2587C125.699 17.2587 122.233 19.4595 122.359 23.7706Z" fill="#000458" fill-opacity="0.36"/>
<path d="M18.2562 20.9665V16.1474H34.3685C34.526 16.9873 34.6073 17.9808 34.6073 19.0563C34.6073 22.6719 33.6267 27.1428 30.4662 30.3282C27.3921 33.5546 23.4644 35.2754 18.2613 35.2754C8.61731 35.2754 0.507812 27.3579 0.507812 17.6377C0.507812 7.91749 8.61731 0 18.2613 0C23.5965 0 27.3972 2.10997 30.2528 4.86009L26.8789 8.26062C24.8312 6.32478 22.0569 4.81912 18.2562 4.81912C11.2138 4.81912 5.70582 10.5396 5.70582 17.6377C5.70582 24.7358 11.2138 30.4562 18.2562 30.4562C22.8242 30.4562 25.4257 28.6075 27.0923 26.9277C28.4439 25.5654 29.3331 23.6193 29.6837 20.9614L18.2562 20.9665Z" fill="#000458" fill-opacity="0.36"/>
</svg>
