<svg xmlns="http://www.w3.org/2000/svg" width="18" height="18" fill="none"><g fill="currentColor" clip-path="url(#a)"><path d="M9.006 18.003c1.332-.032 2.667-.038 3.995-.105 1.37-.067 2.607-.495 3.582-1.517a4.63 4.63 0 0 0 1.272-2.758c.102-.916.137-1.843.14-2.767.015-1.746-.01-3.488-.03-5.233-.011-.864-.107-1.718-.434-2.53C16.907 1.56 15.766.629 14.163.236 13.248.01 12.31.007 11.381.003 9.478-.007 7.576.01 5.674.031c-.845.01-1.687.092-2.49.394C1.592 1.029.619 2.177.21 3.814c-.162.65-.208 1.317-.212 1.984-.003 2.072-.007 4.145 0 6.217.004.896.057 1.791.367 2.648.613 1.7 1.835 2.715 3.59 3.101.982.215 1.982.187 2.98.207.686.015 1.373.004 2.06.004a.04.04 0 0 1 .01.028m-.01-1.616v-.028c-.476 0-.951.014-1.427-.003-1.025-.035-2.057-.028-3.075-.151-1.331-.165-2.244-.92-2.642-2.227-.183-.593-.215-1.208-.222-1.823a350 350 0 0 1-.02-5.444 18 18 0 0 1 .13-2.17c.183-1.447 1.088-2.43 2.525-2.715.624-.123 1.268-.158 1.906-.169a237 237 0 0 1 4.738-.014c.898.004 1.796-.007 2.684.148 1.36.239 2.3 1.106 2.575 2.451.12.587.162 1.195.176 1.795.031 1.458.042 2.915.024 4.373a37 37 0 0 1-.133 2.996c-.088.941-.518 1.731-1.321 2.28-.61.417-1.307.575-2.03.603-1.296.046-2.592.067-3.888.098"/><path d="M8.993 13.612c2.557-.003 4.639-2.083 4.632-4.625a4.63 4.63 0 0 0-4.646-4.612C6.418 4.39 4.36 6.444 4.357 8.99a4.635 4.635 0 0 0 4.636 4.622m3.001-4.632a2.987 2.987 0 0 1-2.987 3.002 2.99 2.99 0 0 1-3.015-2.974 2.99 2.99 0 0 1 2.994-3.01 2.99 2.99 0 0 1 3.008 2.982M3.098 4.18c-.003.601.476 1.086 1.078 1.086a1.077 1.077 0 0 0 .01-2.157 1.07 1.07 0 0 0-1.088 1.072"/></g><defs><clipPath id="a"><path fill="#fff" d="M18 0H0v18h18z"/></clipPath></defs></svg>