<svg width="18" height="18" viewBox="0 0 18 18" fill="none" xmlns="http://www.w3.org/2000/svg">
<g clip-path="url(#clip0_7_60)">
<path d="M9.00642 18.0031C10.3379 17.9715 11.673 17.9645 13.0009 17.8978C14.3712 17.8311 15.6076 17.4026 16.5833 16.3805C17.3231 15.6043 17.7422 14.6701 17.855 13.6234C17.9571 12.7068 17.9923 11.7795 17.9959 10.8558C18.0099 9.11027 17.9853 7.36822 17.9642 5.62266C17.9536 4.75866 17.8585 3.9052 17.5309 3.09388C16.9074 1.55905 15.7661 0.62832 14.1634 0.234954C13.2475 0.0101739 12.3105 0.00666168 11.3806 0.00314949C9.47844 -0.0073871 7.57628 0.0101739 5.67413 0.031247C4.82873 0.0417836 3.98685 0.122564 3.18372 0.424613C1.59155 1.02871 0.619337 2.1772 0.210726 3.81388C0.0486909 4.46364 0.00289832 5.13095 -0.000624185 5.79827C-0.00414669 7.87047 -0.0076692 9.94266 -0.000624185 12.0149C0.00289832 12.9105 0.0557357 13.8061 0.365716 14.6631C0.978632 16.363 2.20094 17.378 3.95515 17.7643C4.93793 17.9786 5.93832 17.9505 6.93519 17.9715C7.62208 17.9856 8.30897 17.9751 8.99586 17.9751C9.0029 17.9821 9.00642 17.9926 9.00642 18.0031ZM8.99586 16.3875C8.99586 16.377 8.99586 16.37 8.99586 16.3594C8.52032 16.3594 8.04478 16.3735 7.56924 16.3559C6.54419 16.3208 5.5121 16.3278 4.49409 16.2049C3.16259 16.0398 2.25026 15.2847 1.85221 13.9782C1.66904 13.3846 1.63734 12.77 1.6303 12.1553C1.61268 10.3395 1.59859 8.52725 1.60916 6.71144C1.61268 5.98793 1.64791 5.25739 1.73949 4.54091C1.92266 3.09388 2.82795 2.11047 4.26513 1.82598C4.88861 1.70305 5.53323 1.66793 6.17081 1.65739C7.74889 1.63281 9.32697 1.63632 10.9086 1.64334C11.8068 1.64686 12.7051 1.63632 13.5927 1.79086C14.9524 2.02969 15.8929 2.8972 16.1677 4.24237C16.2874 4.82891 16.3297 5.43652 16.3438 6.0371C16.3755 7.49466 16.3861 8.95222 16.3685 10.4098C16.3579 11.4108 16.3262 12.4117 16.2346 13.4057C16.1465 14.347 15.7168 15.1372 14.9137 15.6851C14.3043 16.1031 13.6068 16.2611 12.8847 16.2892C11.5884 16.3349 10.2921 16.3559 8.99586 16.3875Z" fill="currentColor"/>
<path d="M8.99289 13.6121C11.5502 13.6086 13.632 11.5294 13.625 8.98658C13.6179 6.43322 11.5326 4.36102 8.9788 4.37507C6.41794 4.38912 4.36079 6.44375 4.35727 8.9901C4.35727 11.5364 6.43907 13.6157 8.99289 13.6121ZM11.9941 8.97956C12.0011 10.6373 10.6696 11.9755 9.00698 11.9825C7.34436 11.9895 6.00228 10.6654 5.99171 9.00766C5.98115 7.34288 7.3197 6.00122 8.98584 5.99771C10.6485 5.99419 11.987 7.3218 11.9941 8.97956Z" fill="currentColor"/>
<path d="M3.09844 4.18061C3.09492 4.7812 3.57398 5.26588 4.17633 5.26588C4.76811 5.26588 5.25421 4.79174 5.25774 4.20169C5.26478 3.6011 4.78924 3.11642 4.18689 3.10939C3.58455 3.10588 3.10196 3.57652 3.09844 4.18061Z" fill="currentColor"/>
</g>
<defs>
<clipPath id="clip0_7_60">
<rect width="18" height="18" fill="white" transform="matrix(-1 0 0 1 18 0)"/>
</clipPath>
</defs>
</svg>
