<svg width="17" height="17" viewBox="0 0 17 17" fill="none" xmlns="http://www.w3.org/2000/svg">
<g clip-path="url(#clip0_7_69)">
<path d="M3.64286 5.03906H0V17.002H3.64286V5.03906Z" fill="currentColor"/>
<path d="M0 1.57407C0 0.692593 0.728571 0 1.82143 0C2.91429 0 3.58214 0.692593 3.64286 1.57407C3.64286 2.45556 2.975 3.14815 1.82143 3.14815C0.728571 3.14815 0 2.45556 0 1.57407Z" fill="currentColor"/>
<path d="M17.0045 17.002H13.3616C13.3616 17.002 13.3616 11.1465 13.3616 10.7057C13.3616 9.44647 12.7545 8.18721 11.2366 8.18721H11.1759C9.71875 8.18721 9.11161 9.44647 9.11161 10.7057C9.11161 11.2724 9.11161 17.002 9.11161 17.002H5.46875V5.03906H9.11161V6.6761C9.11161 6.6761 10.2652 5.03906 12.633 5.03906C15.0616 5.03906 17.0045 6.73906 17.0045 10.265V17.002Z" fill="currentColor"/>
</g>
<defs>
<clipPath id="clip0_7_69">
<rect width="17" height="17" fill="white"/>
</clipPath>
</defs>
</svg>
