<svg xmlns="http://www.w3.org/2000/svg" width="17" height="17" fill="none"><g fill="currentColor" clip-path="url(#a)"><path d="M3.643 5.04H0v11.962h3.643zM0 1.574C0 .693.729 0 1.821 0s1.761.693 1.822 1.574c0 .882-.668 1.574-1.822 1.574C.73 3.148 0 2.456 0 1.574M17.005 17.002h-3.643v-6.296c0-1.26-.607-2.519-2.125-2.519h-.061c-1.457 0-2.064 1.26-2.064 2.519v6.296H5.469V5.039h3.643v1.637s1.153-1.637 3.521-1.637c2.429 0 4.372 1.7 4.372 5.226z"/></g><defs><clipPath id="a"><path fill="#fff" d="M0 0h17v17H0z"/></clipPath></defs></svg>