<svg xmlns="http://www.w3.org/2000/svg" width="183" height="52" fill="none"><g fill="currentColor" clip-path="url(#a)"><path d="M19.63 22.113c0 3.695-3.014 6.702-6.722 6.702s-6.724-3.006-6.724-6.702c0-3.695 3.016-6.7 6.724-6.7 1.303 0 2.567.371 3.653 1.073l3.368-5.17a12.9 12.9 0 0 0-7.021-2.068C5.79 9.247 0 15.02 0 22.113S5.79 34.98 12.908 34.98c2.519 0 4.869-.725 6.858-1.974v6.128c0 3.695-3.016 6.702-6.724 6.702-3.707 0-6.723-3.006-6.723-6.702H.135C.135 46.228 5.925 52 13.042 52c7.118 0 12.908-5.771 12.908-12.866v-17.02zM84.797 28.521a6.7 6.7 0 0 1-5.123-.49 6.67 6.67 0 0 1-3.275-3.955 6.64 6.64 0 0 1 .492-5.106 6.68 6.68 0 0 1 3.968-3.264 6.7 6.7 0 0 1 5.123.49 6.7 6.7 0 0 1 2.721 2.657l5.408-2.992a12.85 12.85 0 0 0-5.227-5.11 12.87 12.87 0 0 0-9.835-.94 12.81 12.81 0 0 0-7.62 6.266 12.75 12.75 0 0 0-.943 9.803 12.79 12.79 0 0 0 6.287 7.595 12.9 12.9 0 0 0 6.04 1.51c1.27 0 2.546-.189 3.795-.57a12.8 12.8 0 0 0 7.62-6.267l-5.461-2.892a6.68 6.68 0 0 1-3.97 3.265M136.697 28.521a6.7 6.7 0 0 1-5.123-.49 6.67 6.67 0 0 1-3.274-3.955 6.64 6.64 0 0 1 .491-5.106 6.68 6.68 0 0 1 3.969-3.264 6.7 6.7 0 0 1 5.122.49 6.67 6.67 0 0 1 2.721 2.657l5.409-2.992a12.85 12.85 0 0 0-5.228-5.11 12.87 12.87 0 0 0-9.835-.94 12.81 12.81 0 0 0-7.62 6.266 12.75 12.75 0 0 0-.943 9.803 12.78 12.78 0 0 0 6.288 7.595 12.88 12.88 0 0 0 9.835.94 12.8 12.8 0 0 0 7.62-6.267l-5.462-2.892a6.68 6.68 0 0 1-3.97 3.265M35.9.938h-6.185v34.04H35.9zM154.494 1.072h-6.185v34.041h6.185zM45.852 9.114h-6.186v26h6.186zM55.8 1.072h-6.185v34.041h6.186V15.412h4.84V9.247h-4.84zM42.892 6.434a3.22 3.22 0 0 0 3.227-3.217A3.22 3.22 0 0 0 42.892 0a3.22 3.22 0 0 0-3.228 3.217 3.22 3.22 0 0 0 3.228 3.217M102.861 9.114h-6.185v26h6.185zM182.817 24.392c.118-.698.182-1.414.182-2.144 0-7.095-5.79-12.866-12.908-12.866s-12.907 5.772-12.907 12.866 5.79 12.865 12.907 12.865c5.406 0 10.043-3.331 11.963-8.04h-7.304a6.7 6.7 0 0 1-4.658 1.875 6.73 6.73 0 0 1-6.367-4.556zm-12.726-8.846a6.73 6.73 0 0 1 6.368 4.557h-12.735a6.73 6.73 0 0 1 6.367-4.557M99.903 6.434a3.22 3.22 0 0 0 3.228-3.217A3.22 3.22 0 0 0 99.903 0a3.22 3.22 0 0 0-3.227 3.217 3.22 3.22 0 0 0 3.227 3.217M112.811 11.465V9h-6.186v26.113h6.186V24.359c.219-3.962 1.351-5.603 2.688-6.936 1.613-1.608 4.319-1.8 6.186-1.608V9.127c-3.203-.3-6.578.382-8.874 2.338"/></g><defs><clipPath id="a"><path fill="#fff" d="M0 0h183v52H0z"/></clipPath></defs></svg>