<svg xmlns="http://www.w3.org/2000/svg" width="246" height="21" fill="none"><g fill="#fff" clip-path="url(#a)"><path d="M176.645 8.277v5.007h4.139v-.677h-3.433v-1.533h2.877v-.632h-2.877V8.91h3.433v-.632zm33.062 0v5.007h4.139v-.677h-3.432v-1.533h2.877v-.632h-2.877V8.91h3.432v-.632zm6.664 0v5.007h4.139v-.677h-3.432v-1.533h2.877v-.632h-2.877V8.91h3.432v-.632zm-28.873 3.879-3.534-3.879h-.706v5.007h.706V9.495l3.534 3.79h.707V8.276h-.707zm11.609-3.879h-.707v5.007h.707zm7.067 3.879-3.534-3.879h-.706v5.007h.706V9.495l3.534 3.79h.707V8.276h-.707zm24.582-3.879h-.707v5.007h.707zm7.068 3.879-3.533-3.879h-.707v5.007h.707V9.495l3.533 3.79h.707V8.276h-.707zm-42.805-3.879h-3.23s-.707 0-.707.632v3.744c0 .631.707.631.707.631h3.23s.707 0 .707-.631v-1.895h-2.322v.632h1.615v1.263h-3.23V8.909h3.23v.722h.707v-.722c0-.632-.707-.632-.707-.632m50.98 1.353v-.72c0-.632-.706-.632-.706-.632h-3.231s-.707 0-.707.632v3.744c0 .631.707.631.707.631h3.231s.706 0 .706-.631v-1.895h-2.322v.632h1.616v1.263h-3.231V8.909h3.231v.722zm-18.575.18v-.134s-.05-1.263-1.312-1.399h-3.18v5.007h.706v-2.03h1.717l1.261 2.03h.859l-1.262-2.03c.252-.045 1.211-.27 1.211-1.443m-3.735-.901h2.17s.757 0 .757.812-.504.857-.656.857h-2.322v-1.67zM23.04 12.336s.05-1.263-.96-2.21c-1.009-.947-2.372-.947-2.372-.947H3.404V3.045h18.374L23.04.113H3.404s-1.363 0-2.372.947c-.96.947-.96 2.21-.96 2.21v5.638s-.05 1.263.96 2.21 2.372.948 2.372.948h16.304v5.728H1.335L.073 20.726h19.635s1.363 0 2.373-.947c.959-.947.959-2.21.959-2.21zM124.197.068h-22.412l-1.262 2.977h10.197V20.77h3.281V3.045h8.934zm30.186 20.703h3.635l-4.745-8.75h1.11s1.363 0 2.373-.948c.959-.947.959-2.21.959-2.21V3.27s.05-1.263-.959-2.21c-1.01-.947-2.373-.947-2.373-.947h-19.737v20.703h3.282v-8.75h11.71zM137.928 3.045h16.455v6.089h-16.455zM53.781.068v9.021H37.326V.068h-3.332V20.77h3.332v-8.75H53.78v8.75h3.281V.068zm36.244.992c-1.01-.947-2.373-.947-2.373-.947H71.197s-1.363 0-2.373.947c-.959.947-.959 2.21-.959 2.21v17.501h3.332v-8.75h16.455v8.75h3.332v-17.5c-.05 0 0-1.264-.96-2.211M71.197 9.089v-6.09h16.455v6.09z"/><path d="M191.787 15.269h-3.331v2.57H172V3h16.456v2.617h3.331v-2.39s.051-1.264-.959-2.21c-1.01-.948-2.372-.948-2.372-.948H172s-1.363 0-2.373.947c-.959.947-.959 2.21-.959 2.21V17.57s-.05 1.263.959 2.21c1.01.947 2.373.947 2.373.947h16.456s1.362 0 2.372-.947c.959-.947.959-2.21.959-2.21z"/></g><defs><clipPath id="a"><path fill="#fff" d="M0 0h246v21H0z"/></clipPath></defs></svg>