<svg width="183" height="52" viewBox="0 0 183 52" fill="none" xmlns="http://www.w3.org/2000/svg">
<g clip-path="url(#clip0_118_308)">
<path d="M19.6309 22.1134C19.6309 25.8079 16.6155 28.8147 12.9076 28.8147C9.19978 28.8147 6.18434 25.8092 6.18434 22.1134C6.18434 18.4177 9.19978 15.4121 12.9076 15.4121C14.2114 15.4121 15.4752 15.784 16.5606 16.4865L19.9291 11.316C17.8381 9.96307 15.4103 9.24805 12.9076 9.24805C5.7901 9.2468 0 15.0192 0 22.1134C0 29.2077 5.7901 34.9788 12.9076 34.9788C15.4265 34.9788 17.777 34.2539 19.7657 33.0054V39.1334C19.7657 42.8279 16.7502 45.8347 13.0424 45.8347C9.33452 45.8347 6.31908 42.8291 6.31908 39.1334H0.13474C0.13474 46.2276 5.92484 51.9988 13.0424 51.9988C20.1599 51.9988 25.95 46.2276 25.95 39.1334V22.1134H19.6309Z" fill="currentColor"/>
<path d="M84.7967 28.5212C83.0788 29.0447 81.261 28.8719 79.6741 28.0313C78.0884 27.1919 76.9256 25.7867 76.3992 24.0757C75.8739 22.3646 76.0473 20.5515 76.8907 18.9698C77.7328 17.3893 79.1426 16.2303 80.8593 15.7056C82.576 15.1821 84.395 15.3549 85.982 16.1955C87.1335 16.8048 88.0742 17.7238 88.703 18.8529L94.1113 15.861C92.9011 13.6886 91.0934 11.9216 88.8839 10.7514C85.8385 9.13982 82.3465 8.80532 79.0491 9.81132C75.7517 10.8173 73.0456 13.0432 71.4287 16.0774C69.8119 19.1128 69.4762 22.5934 70.4856 25.88C71.4949 29.1666 73.7281 31.8638 76.7734 33.4754C78.6648 34.4764 80.7296 34.985 82.8131 34.985C84.0831 34.985 85.3594 34.796 86.6082 34.4155C89.9056 33.4095 92.6117 31.1836 94.2286 28.1482L88.7666 25.2558C87.9232 26.8375 86.5134 27.9965 84.7967 28.5212Z" fill="currentColor"/>
<path d="M136.697 28.5212C134.979 29.0447 133.161 28.8719 131.574 28.0313C129.989 27.1919 128.826 25.7867 128.3 24.0757C127.774 22.3646 127.948 20.5515 128.791 18.9698C129.633 17.3893 131.043 16.2303 132.76 15.7056C134.476 15.1821 136.295 15.3549 137.882 16.1955C139.034 16.8048 139.975 17.7238 140.603 18.8529L146.012 15.861C144.802 13.6886 142.994 11.9216 140.784 10.7514C137.739 9.13982 134.247 8.80532 130.949 9.81132C127.652 10.8173 124.946 13.0432 123.329 16.0774C121.712 19.1128 121.377 22.5934 122.386 25.88C123.395 29.1666 125.628 31.8638 128.674 33.4754C130.565 34.4764 132.63 34.985 134.713 34.985C135.984 34.985 137.26 34.796 138.509 34.4155C141.806 33.4095 144.512 31.1836 146.129 28.1482L140.667 25.2558C139.824 26.8375 138.415 27.9965 136.697 28.5212Z" fill="currentColor"/>
<path d="M35.9004 0.9375H29.7148V34.9787H35.9004V0.9375Z" fill="currentColor"/>
<path d="M154.494 1.07178H148.309V35.113H154.494V1.07178Z" fill="currentColor"/>
<path d="M45.8516 9.11377H39.666V35.1131H45.8516V9.11377Z" fill="currentColor"/>
<path d="M55.8008 1.07178H49.6152V35.113H55.8008V15.412H60.6415V9.24663H55.8008V1.07178Z" fill="currentColor"/>
<path d="M42.8916 6.43394C44.6741 6.43394 46.1191 4.99365 46.1191 3.21697C46.1191 1.44029 44.6741 0 42.8916 0C41.1091 0 39.6641 1.44029 39.6641 3.21697C39.6641 4.99365 41.1091 6.43394 42.8916 6.43394Z" fill="currentColor"/>
<path d="M102.861 9.11377H96.6758V35.1131H102.861V9.11377Z" fill="currentColor"/>
<path d="M182.817 24.3915C182.935 23.6939 182.999 22.9777 182.999 22.2477C182.999 15.1535 177.209 9.38232 170.091 9.38232C162.974 9.38232 157.184 15.1535 157.184 22.2477C157.184 29.342 162.974 35.1131 170.091 35.1131C175.497 35.1131 180.134 31.7817 182.054 27.0725H174.75C173.541 28.2327 171.899 28.9478 170.092 28.9478C167.138 28.9478 164.624 27.0377 163.725 24.3915H182.817ZM170.091 15.5464C173.046 15.5464 175.559 17.4565 176.459 20.1027H163.724C164.623 17.4565 167.137 15.5464 170.091 15.5464Z" fill="currentColor"/>
<path d="M99.9033 6.43394C101.686 6.43394 103.131 4.99365 103.131 3.21697C103.131 1.44029 101.686 0 99.9033 0C98.1208 0 96.6758 1.44029 96.6758 3.21697C96.6758 4.99365 98.1208 6.43394 99.9033 6.43394Z" fill="currentColor"/>
<path d="M112.811 11.4651V9.00049H106.625V35.113H112.811V24.3591C113.03 20.3973 114.162 18.7559 115.499 17.4228C117.112 15.8149 119.818 15.6234 121.685 15.8149V9.12733C118.482 8.82764 115.107 9.50909 112.811 11.4651Z" fill="currentColor"/>
</g>
<defs>
<clipPath id="clip0_118_308">
<rect width="183" height="52" fill="white"/>
</clipPath>
</defs>
</svg>
