<svg width="0" height="0" class="hidden">
  <symbol fill="none" xmlns="http://www.w3.org/2000/svg" viewBox="0 0 149 122" id="sign-2">
    <path d="M67.3486 1.44531C110.257 1.44531 141.246 33.8999 141.246 61.947C141.246 89.9941 112.641 109.627 73.3081 109.627C33.9757 109.627 1 87.1894 1 57.5396C1 29.9453 24.4405 11.4453 67.3486 11.4453C110.257 11.4453 148 35.5026 148 61.947C148 88.3914 126.149 120.445 73.3081 120.445C20.4676 120.445 8.15135 77.9739 8.15135 61.947C8.15135 45.9201 15.6913 23.0817 67.3486 23.0817C119.006 23.0817 160 57.5396 137 113.445" stroke="currentColor" stroke-width="2"></path>
  </symbol>
  <symbol fill="none" xmlns="http://www.w3.org/2000/svg" viewBox="0 0 12 11" id="close">
    <rect width="14" height="1" transform="matrix(-0.707107 -0.707107 -0.707107 0.707107 11.3047 10.0938)" fill="currentColor"></rect>
    <rect x="0.695312" y="10.0938" width="14" height="1" transform="rotate(-45 0.695312 10.0938)" fill="currentColor"></rect>
  </symbol>
  <symbol fill="none" xmlns="http://www.w3.org/2000/svg" viewBox="0 0 75 60" id="windows">
    <path d="M10 10.6844L32.1783 7.67313L32.1903 29.0013L10.0211 29.1275L10 10.6844ZM32.1692 31.4595L32.1873 52.8057L10.0181 49.7674V31.3153L32.1692 31.4595ZM34.8582 7.27945L64.2654 3V28.7308L34.8582 28.9622V7.27945ZM64.2745 31.6609L64.2654 57.2745L34.8582 53.1332L34.816 31.6128L64.2745 31.6609Z" fill="currentColor" fill-opacity="0.36"></path>
  </symbol>
  <symbol fill="none" xmlns="http://www.w3.org/2000/svg" viewBox="0 0 100 60" id="visa">
    <path d="M72.2281 16.2523C69.919 15.4075 67.4782 14.9836 65.0207 15.0005C57.0731 15.0005 51.4602 19.0202 51.4205 24.7903C51.3708 29.0295 55.4091 31.4183 58.464 32.8347C61.5983 34.2909 62.6463 35.2086 62.6364 36.5102C62.6165 38.4902 60.1329 39.3879 57.8232 39.3879C54.6491 39.3879 52.9156 38.944 50.2482 37.8319L49.2597 37.368L48.1322 44.011C50.0644 44.8189 53.5464 45.5121 57.1427 45.572C65.5919 45.572 71.1154 41.5772 71.18 35.438C71.2495 32.0517 69.064 29.4933 64.4643 27.3787C61.6678 26.0072 59.9342 25.0896 59.9342 23.6981C59.9342 22.4663 61.4194 21.1497 64.5239 21.1497C66.5901 21.0995 68.6434 21.4887 70.5492 22.2918L71.2942 22.6259L72.4218 16.2074L72.2281 16.2523ZM92.8519 15.5391H86.6429C84.7106 15.5391 83.2553 16.0727 82.4108 17.9978L70.4697 45.158H78.9189L80.6077 40.7045L90.9196 40.7144C91.163 41.7568 91.9081 45.158 91.9081 45.158H99.3589L92.8519 15.5391ZM39.9909 15.2897H48.0428L43.006 44.9236H34.9641L39.9909 15.2798V15.2897ZM19.5509 31.6228L20.3854 35.7372L28.2534 15.5391H36.7821L24.1108 45.1181H15.602L8.6479 20.0725C8.53527 19.6595 8.27076 19.3048 7.90778 19.08C5.40134 17.78 2.7456 16.7935 0 16.1425L0.109278 15.5192H13.0687C14.8271 15.589 16.2427 16.1426 16.7146 18.0277L19.5459 31.6378L19.5509 31.6228ZM82.9175 34.645L86.1263 26.3563C86.0866 26.4461 86.7869 24.6457 87.1942 23.5336L87.7456 26.092L89.6083 34.64H82.9125L82.9175 34.645Z" fill="currentColor" fill-opacity="0.36"></path>
  </symbol>
  <symbol fill="none" xmlns="http://www.w3.org/2000/svg" viewBox="0 0 299 31" id="sign-3">
    <path d="M1 29.2777C70.6667 13.7777 198.3 -12.0223 151.5 8.77766C93 34.7777 250.5 -5.22217 298.5 18.7778" stroke="currentColor" stroke-width="2"></path>
  </symbol>
  <symbol fill="none" xmlns="http://www.w3.org/2000/svg" viewBox="0 0 379 118" id="sign-1">
    <path d="M239.503 1.95183C118.503 12.9517 1.25829 54.9519 1.25832 95.7734C6.36992 120.659 94.7171 123.537 198.587 102.202C302.457 80.8661 382.517 43.3966 377.405 18.5111C372.964 -3.10968 266.695 5.46147 181.003 18.5111" stroke="currentColor" stroke-width="2"></path>
  </symbol>
  <symbol fill="none" xmlns="http://www.w3.org/2000/svg" viewBox="0 0 29 29" id="plus">
    <path d="M14.25 0L14.25 28.5" stroke="currentColor" stroke-width="5"></path>
    <path d="M28.5 14.25L0 14.25" stroke="currentColor" stroke-width="5"></path>
  </symbol>
  <symbol fill="none" xmlns="http://www.w3.org/2000/svg" viewBox="0 0 21 21" id="pen">
    <g clip-path="url(#clip0_7_352)">
      <path d="M5.87821 20.0577L0 21L0.942308 15.1218L16.0641 0L21 4.9359L5.87821 20.0577Z" fill="currentColor"></path>
    </g>
    <defs>
      <clipPath id="clip0_7_352">
        <rect width="21" height="21" fill="white"></rect>
      </clipPath>
    </defs>
  </symbol>
  <symbol fill="none" xmlns="http://www.w3.org/2000/svg" viewBox="0 0 29 6" id="minus">
    <path d="M28.5 3.25L0 3.25" stroke="currentColor" stroke-width="5"></path>
  </symbol>
  <symbol fill="none" xmlns="http://www.w3.org/2000/svg" viewBox="0 0 14 6" id="menu">
    <rect width="14" height="1" fill="currentColor"></rect>
    <rect y="5" width="14" height="1" fill="currentColor"></rect>
  </symbol>
  <symbol fill="none" xmlns="http://www.w3.org/2000/svg" viewBox="0 0 183 52" id="logo">
    <g clip-path="url(#clip0_118_308)">
      <path d="M19.6309 22.1134C19.6309 25.8079 16.6155 28.8147 12.9076 28.8147C9.19978 28.8147 6.18434 25.8092 6.18434 22.1134C6.18434 18.4177 9.19978 15.4121 12.9076 15.4121C14.2114 15.4121 15.4752 15.784 16.5606 16.4865L19.9291 11.316C17.8381 9.96307 15.4103 9.24805 12.9076 9.24805C5.7901 9.2468 0 15.0192 0 22.1134C0 29.2077 5.7901 34.9788 12.9076 34.9788C15.4265 34.9788 17.777 34.2539 19.7657 33.0054V39.1334C19.7657 42.8279 16.7502 45.8347 13.0424 45.8347C9.33452 45.8347 6.31908 42.8291 6.31908 39.1334H0.13474C0.13474 46.2276 5.92484 51.9988 13.0424 51.9988C20.1599 51.9988 25.95 46.2276 25.95 39.1334V22.1134H19.6309Z" fill="currentColor"></path>
      <path d="M84.7967 28.5212C83.0788 29.0447 81.261 28.8719 79.6741 28.0313C78.0884 27.1919 76.9256 25.7867 76.3992 24.0757C75.8739 22.3646 76.0473 20.5515 76.8907 18.9698C77.7328 17.3893 79.1426 16.2303 80.8593 15.7056C82.576 15.1821 84.395 15.3549 85.982 16.1955C87.1335 16.8048 88.0742 17.7238 88.703 18.8529L94.1113 15.861C92.9011 13.6886 91.0934 11.9216 88.8839 10.7514C85.8385 9.13982 82.3465 8.80532 79.0491 9.81132C75.7517 10.8173 73.0456 13.0432 71.4287 16.0774C69.8119 19.1128 69.4762 22.5934 70.4856 25.88C71.4949 29.1666 73.7281 31.8638 76.7734 33.4754C78.6648 34.4764 80.7296 34.985 82.8131 34.985C84.0831 34.985 85.3594 34.796 86.6082 34.4155C89.9056 33.4095 92.6117 31.1836 94.2286 28.1482L88.7666 25.2558C87.9232 26.8375 86.5134 27.9965 84.7967 28.5212Z" fill="currentColor"></path>
      <path d="M136.697 28.5212C134.979 29.0447 133.161 28.8719 131.574 28.0313C129.989 27.1919 128.826 25.7867 128.3 24.0757C127.774 22.3646 127.948 20.5515 128.791 18.9698C129.633 17.3893 131.043 16.2303 132.76 15.7056C134.476 15.1821 136.295 15.3549 137.882 16.1955C139.034 16.8048 139.975 17.7238 140.603 18.8529L146.012 15.861C144.802 13.6886 142.994 11.9216 140.784 10.7514C137.739 9.13982 134.247 8.80532 130.949 9.81132C127.652 10.8173 124.946 13.0432 123.329 16.0774C121.712 19.1128 121.377 22.5934 122.386 25.88C123.395 29.1666 125.628 31.8638 128.674 33.4754C130.565 34.4764 132.63 34.985 134.713 34.985C135.984 34.985 137.26 34.796 138.509 34.4155C141.806 33.4095 144.512 31.1836 146.129 28.1482L140.667 25.2558C139.824 26.8375 138.415 27.9965 136.697 28.5212Z" fill="currentColor"></path>
      <path d="M35.9004 0.9375H29.7148V34.9787H35.9004V0.9375Z" fill="currentColor"></path>
      <path d="M154.494 1.07178H148.309V35.113H154.494V1.07178Z" fill="currentColor"></path>
      <path d="M45.8516 9.11377H39.666V35.1131H45.8516V9.11377Z" fill="currentColor"></path>
      <path d="M55.8008 1.07178H49.6152V35.113H55.8008V15.412H60.6415V9.24663H55.8008V1.07178Z" fill="currentColor"></path>
      <path d="M42.8916 6.43394C44.6741 6.43394 46.1191 4.99365 46.1191 3.21697C46.1191 1.44029 44.6741 0 42.8916 0C41.1091 0 39.6641 1.44029 39.6641 3.21697C39.6641 4.99365 41.1091 6.43394 42.8916 6.43394Z" fill="currentColor"></path>
      <path d="M102.861 9.11377H96.6758V35.1131H102.861V9.11377Z" fill="currentColor"></path>
      <path d="M182.817 24.3915C182.935 23.6939 182.999 22.9777 182.999 22.2477C182.999 15.1535 177.209 9.38232 170.091 9.38232C162.974 9.38232 157.184 15.1535 157.184 22.2477C157.184 29.342 162.974 35.1131 170.091 35.1131C175.497 35.1131 180.134 31.7817 182.054 27.0725H174.75C173.541 28.2327 171.899 28.9478 170.092 28.9478C167.138 28.9478 164.624 27.0377 163.725 24.3915H182.817ZM170.091 15.5464C173.046 15.5464 175.559 17.4565 176.459 20.1027H163.724C164.623 17.4565 167.137 15.5464 170.091 15.5464Z" fill="currentColor"></path>
      <path d="M99.9033 6.43394C101.686 6.43394 103.131 4.99365 103.131 3.21697C103.131 1.44029 101.686 0 99.9033 0C98.1208 0 96.6758 1.44029 96.6758 3.21697C96.6758 4.99365 98.1208 6.43394 99.9033 6.43394Z" fill="currentColor"></path>
      <path d="M112.811 11.4651V9.00049H106.625V35.113H112.811V24.3591C113.03 20.3973 114.162 18.7559 115.499 17.4228C117.112 15.8149 119.818 15.6234 121.685 15.8149V9.12733C118.482 8.82764 115.107 9.50909 112.811 11.4651Z" fill="currentColor"></path>
    </g>
    <defs>
      <clipPath id="clip0_118_308">
        <rect width="183" height="52" fill="white"></rect>
      </clipPath>
    </defs>
  </symbol>
  <symbol fill="none" xmlns="http://www.w3.org/2000/svg" viewBox="0 0 17 17" id="linkedin">
    <g clip-path="url(#clip0_7_69)">
      <path d="M3.64286 5.03906H0V17.002H3.64286V5.03906Z" fill="currentColor"></path>
      <path d="M0 1.57407C0 0.692593 0.728571 0 1.82143 0C2.91429 0 3.58214 0.692593 3.64286 1.57407C3.64286 2.45556 2.975 3.14815 1.82143 3.14815C0.728571 3.14815 0 2.45556 0 1.57407Z" fill="currentColor"></path>
      <path d="M17.0045 17.002H13.3616C13.3616 17.002 13.3616 11.1465 13.3616 10.7057C13.3616 9.44647 12.7545 8.18721 11.2366 8.18721H11.1759C9.71875 8.18721 9.11161 9.44647 9.11161 10.7057C9.11161 11.2724 9.11161 17.002 9.11161 17.002H5.46875V5.03906H9.11161V6.6761C9.11161 6.6761 10.2652 5.03906 12.633 5.03906C15.0616 5.03906 17.0045 6.73906 17.0045 10.265V17.002Z" fill="currentColor"></path>
    </g>
    <defs>
      <clipPath id="clip0_7_69">
        <rect width="17" height="17" fill="white"></rect>
      </clipPath>
    </defs>
  </symbol>
  <symbol fill="none" xmlns="http://www.w3.org/2000/svg" viewBox="0 0 18 18" id="instagram">
    <g clip-path="url(#clip0_7_60)">
      <path d="M9.00642 18.0031C10.3379 17.9715 11.673 17.9645 13.0009 17.8978C14.3712 17.8311 15.6076 17.4026 16.5833 16.3805C17.3231 15.6043 17.7422 14.6701 17.855 13.6234C17.9571 12.7068 17.9923 11.7795 17.9959 10.8558C18.0099 9.11027 17.9853 7.36822 17.9642 5.62266C17.9536 4.75866 17.8585 3.9052 17.5309 3.09388C16.9074 1.55905 15.7661 0.62832 14.1634 0.234954C13.2475 0.0101739 12.3105 0.00666168 11.3806 0.00314949C9.47844 -0.0073871 7.57628 0.0101739 5.67413 0.031247C4.82873 0.0417836 3.98685 0.122564 3.18372 0.424613C1.59155 1.02871 0.619337 2.1772 0.210726 3.81388C0.0486909 4.46364 0.00289832 5.13095 -0.000624185 5.79827C-0.00414669 7.87047 -0.0076692 9.94266 -0.000624185 12.0149C0.00289832 12.9105 0.0557357 13.8061 0.365716 14.6631C0.978632 16.363 2.20094 17.378 3.95515 17.7643C4.93793 17.9786 5.93832 17.9505 6.93519 17.9715C7.62208 17.9856 8.30897 17.9751 8.99586 17.9751C9.0029 17.9821 9.00642 17.9926 9.00642 18.0031ZM8.99586 16.3875C8.99586 16.377 8.99586 16.37 8.99586 16.3594C8.52032 16.3594 8.04478 16.3735 7.56924 16.3559C6.54419 16.3208 5.5121 16.3278 4.49409 16.2049C3.16259 16.0398 2.25026 15.2847 1.85221 13.9782C1.66904 13.3846 1.63734 12.77 1.6303 12.1553C1.61268 10.3395 1.59859 8.52725 1.60916 6.71144C1.61268 5.98793 1.64791 5.25739 1.73949 4.54091C1.92266 3.09388 2.82795 2.11047 4.26513 1.82598C4.88861 1.70305 5.53323 1.66793 6.17081 1.65739C7.74889 1.63281 9.32697 1.63632 10.9086 1.64334C11.8068 1.64686 12.7051 1.63632 13.5927 1.79086C14.9524 2.02969 15.8929 2.8972 16.1677 4.24237C16.2874 4.82891 16.3297 5.43652 16.3438 6.0371C16.3755 7.49466 16.3861 8.95222 16.3685 10.4098C16.3579 11.4108 16.3262 12.4117 16.2346 13.4057C16.1465 14.347 15.7168 15.1372 14.9137 15.6851C14.3043 16.1031 13.6068 16.2611 12.8847 16.2892C11.5884 16.3349 10.2921 16.3559 8.99586 16.3875Z" fill="currentColor"></path>
      <path d="M8.99289 13.6121C11.5502 13.6086 13.632 11.5294 13.625 8.98658C13.6179 6.43322 11.5326 4.36102 8.9788 4.37507C6.41794 4.38912 4.36079 6.44375 4.35727 8.9901C4.35727 11.5364 6.43907 13.6157 8.99289 13.6121ZM11.9941 8.97956C12.0011 10.6373 10.6696 11.9755 9.00698 11.9825C7.34436 11.9895 6.00228 10.6654 5.99171 9.00766C5.98115 7.34288 7.3197 6.00122 8.98584 5.99771C10.6485 5.99419 11.987 7.3218 11.9941 8.97956Z" fill="currentColor"></path>
      <path d="M3.09844 4.18061C3.09492 4.7812 3.57398 5.26588 4.17633 5.26588C4.76811 5.26588 5.25421 4.79174 5.25774 4.20169C5.26478 3.6011 4.78924 3.11642 4.18689 3.10939C3.58455 3.10588 3.10196 3.57652 3.09844 4.18061Z" fill="currentColor"></path>
    </g>
    <defs>
      <clipPath id="clip0_7_60">
        <rect width="18" height="18" fill="white" transform="matrix(-1 0 0 1 18 0)"></rect>
      </clipPath>
    </defs>
  </symbol>
  <symbol fill="none" xmlns="http://www.w3.org/2000/svg" viewBox="0 0 139 46" id="google">
    <path d="M59.2942 24.108C59.2942 30.5394 54.2787 35.2786 48.1237 35.2786C41.9686 35.2786 36.9531 30.5394 36.9531 24.108C36.9531 17.6313 41.9686 12.9375 48.1237 12.9375C54.2787 12.9375 59.2942 17.6313 59.2942 24.108ZM54.4043 24.108C54.4043 20.0891 51.4974 17.3392 48.1237 17.3392C44.7499 17.3392 41.8431 20.0891 41.8431 24.108C41.8431 28.0867 44.7499 30.8768 48.1237 30.8768C51.4974 30.8768 54.4043 28.0817 54.4043 24.108Z" fill="currentColor" fill-opacity="0.36"></path>
    <path d="M83.9915 24.108C83.9915 30.5394 78.8441 35.2786 72.527 35.2786C66.2099 35.2786 61.0625 30.5394 61.0625 24.108C61.0625 17.6364 66.2099 12.9375 72.527 12.9375C78.8441 12.9375 83.9915 17.6313 83.9915 24.108ZM78.9729 24.108C78.9729 20.0891 75.9895 17.3392 72.527 17.3392C69.0645 17.3392 66.0811 20.0891 66.0811 24.108C66.0811 28.0867 69.0645 30.8768 72.527 30.8768C75.9895 30.8768 78.9729 28.0817 78.9729 24.108Z" fill="currentColor" fill-opacity="0.36"></path>
    <path d="M107.503 13.6121V33.659C107.503 41.9053 102.561 45.2732 96.7187 45.2732C91.219 45.2732 87.9089 41.6535 86.6606 38.6933L90.999 36.9162C91.7715 38.7336 93.6644 40.8782 96.7135 40.8782C100.453 40.8782 102.771 38.6077 102.771 34.3336V32.7276H102.597C101.482 34.0818 99.3329 35.2649 96.6215 35.2649C90.9478 35.2649 85.75 30.4017 85.75 24.144C85.75 17.841 90.9478 12.9375 96.6215 12.9375C99.3278 12.9375 101.477 14.1206 102.597 15.4345H102.771V13.6171H107.503V13.6121ZM103.124 24.144C103.124 20.2122 100.458 17.3375 97.0665 17.3375C93.6286 17.3375 90.7483 20.2122 90.7483 24.144C90.7483 28.0356 93.6286 30.8699 97.0665 30.8699C100.458 30.8699 103.124 28.0356 103.124 24.144Z" fill="currentColor" fill-opacity="0.36"></path>
    <path d="M115.149 1.76562V34.6893H110.445V1.76562H115.149Z" fill="currentColor" fill-opacity="0.36"></path>
    <path d="M134.063 27.7896L137.866 30.3279C136.639 32.146 133.681 35.2786 128.571 35.2786C122.233 35.2786 117.5 30.3732 117.5 24.108C117.5 17.4651 122.273 12.9375 128.023 12.9375C133.812 12.9375 136.644 17.5508 137.569 20.0437L138.077 21.3129L123.164 27.4975C124.305 29.7386 126.081 30.8819 128.571 30.8819C131.066 30.8819 132.796 29.653 134.063 27.7896ZM122.359 23.7706L132.328 19.6257C131.78 18.2307 130.13 17.2587 128.189 17.2587C125.699 17.2587 122.233 19.4595 122.359 23.7706Z" fill="currentColor" fill-opacity="0.36"></path>
    <path d="M18.2562 20.9665V16.1474H34.3685C34.526 16.9873 34.6073 17.9808 34.6073 19.0563C34.6073 22.6719 33.6267 27.1428 30.4662 30.3282C27.3921 33.5546 23.4644 35.2754 18.2613 35.2754C8.61731 35.2754 0.507812 27.3579 0.507812 17.6377C0.507812 7.91749 8.61731 0 18.2613 0C23.5965 0 27.3972 2.10997 30.2528 4.86009L26.8789 8.26062C24.8312 6.32478 22.0569 4.81912 18.2562 4.81912C11.2138 4.81912 5.70582 10.5396 5.70582 17.6377C5.70582 24.7358 11.2138 30.4562 18.2562 30.4562C22.8242 30.4562 25.4257 28.6075 27.0923 26.9277C28.4439 25.5654 29.3331 23.6193 29.6837 20.9614L18.2562 20.9665Z" fill="currentColor" fill-opacity="0.36"></path>
  </symbol>
  <symbol fill="none" xmlns="http://www.w3.org/2000/svg" viewBox="0 0 100 60" id="ebay">
    <path d="M25.2224 30.5446V10H30.216V22.6309C32.6754 19.6995 36.0527 18.8491 39.3851 18.8491C44.9624 18.8491 51.1632 22.6209 51.1632 30.7697C51.1632 31.7452 51.0934 32.6756 50.9088 33.566C51.9065 29.5792 56.2117 28.1135 62.9712 27.9484C65.0964 27.8684 67.5308 27.8684 69.4664 27.8684V27.3131C69.4664 23.6214 67.1517 22.1157 63.101 22.1157C60.0978 22.1157 57.9128 23.3663 57.6634 25.4973H52.3555C52.9192 20.1147 58.6062 18.7341 63.5399 18.7341C67.9748 18.7341 71.851 19.8596 73.602 22.9961L71.7811 19.4844H77.6527L86.2132 36.7075L94.7736 19.4744H99.9468L84.4572 49.9787H78.85L83.3098 41.4597L73.607 23.1712C74.1457 24.2367 74.4401 25.4973 74.4401 27.058V37.3378C74.4401 38.7835 74.485 40.2092 74.6097 41.5298H69.9653C69.84 40.4689 69.7767 39.4016 69.7757 38.3333C67.2664 41.3997 64.2733 42.3502 60.1128 42.3502C53.9468 42.3502 50.6494 39.0886 50.6494 35.2668C50.6494 34.6416 50.7142 34.0863 50.804 33.576C49.5519 38.7835 45.1419 42.2801 39.2803 42.2801C35.6536 42.2801 32.2264 40.9695 30.1162 38.4033C30.1162 39.4088 30.0514 40.4643 29.9516 41.4597H25.0329C25.1226 39.839 25.2025 37.8931 25.2025 36.2723V31.8853H5.08838C5.35777 36.4574 8.49561 39.1437 12.8058 39.1437C15.7939 39.1437 18.4479 37.8931 19.3359 35.2668H24.4991C23.5013 40.6594 17.7944 42.4652 12.8806 42.4652C3.95597 42.5553 0 37.5979 0 30.9548C0 23.6364 4.08567 18.8091 12.9804 18.8091C20.0093 18.8091 25.1775 22.5009 25.2224 30.5246V30.5446ZM63.2706 31.31C58.706 31.4451 55.8924 32.2754 55.8924 35.2768C55.8924 37.2228 57.394 39.3237 61.33 39.3237C66.578 39.3237 69.3866 36.4524 69.3866 31.7502V31.2049C67.5109 31.2049 65.266 31.2349 63.2057 31.305H63.2606L63.2706 31.31ZM38.0332 39.1337C42.6576 39.1337 45.8453 35.7721 45.8453 30.6997C45.8453 25.6273 42.6427 22.2658 37.9633 22.2658C33.3339 22.2658 30.0913 25.6273 30.0913 30.6997C30.0913 35.7721 33.279 39.1337 37.8985 39.1337H38.0332ZM19.9195 28.6387C19.7349 23.9415 16.3577 22.1807 12.7359 22.1807C8.8049 22.1807 5.68203 24.1566 5.17319 28.6387H19.9195Z" fill="currentColor" fill-opacity="0.36"></path>
  </symbol>
  <symbol fill="none" xmlns="http://www.w3.org/2000/svg" viewBox="0 0 14 14" id="cross">
    <rect y="12.4453" width="17.5989" height="2.19987" transform="rotate(-45 0 12.4453)" fill="currentColor"></rect>
    <rect width="17.5989" height="2.19987" transform="matrix(-0.707107 -0.707107 -0.707107 0.707107 14 12.4453)" fill="currentColor"></rect>
  </symbol>
  <symbol fill="none" xmlns="http://www.w3.org/2000/svg" viewBox="0 0 34 25" id="competence-icon-8">
    <path d="M11.8633 14.9727C11.1425 15.7398 10.5051 16.4356 9.85257 17.1157C7.72046 19.3457 5.58075 21.5678 3.44105 23.7978C2.90233 24.3592 2.28774 24.3513 1.74902 23.7899C1.30135 23.3233 0.853685 22.8646 0.406017 22.3902C-0.125114 21.8287 -0.140289 21.204 0.390842 20.6505C3.67627 17.2185 6.96928 13.7866 10.2623 10.3625C11.2183 9.37403 12.4931 9.40567 13.4643 10.4099C14.5948 11.5803 15.7178 12.7585 16.8407 13.9368C16.9925 14.095 17.1139 14.2768 17.2277 14.4192C20.3766 11.1375 23.4571 7.92692 26.568 4.68474C26.4315 4.68474 26.2949 4.68474 26.1659 4.68474C24.8608 4.68474 23.5633 4.68474 22.2583 4.68474C21.4616 4.68474 21.0367 4.24982 21.0367 3.4195C21.0367 2.76316 21.0291 2.09891 21.0367 1.44257C21.0443 0.675517 21.454 0.216868 22.1748 0.216868C25.741 0.208961 29.3072 0.208961 32.8733 0.216868C33.579 0.216868 34.0039 0.675517 34.0039 1.41885C34.0039 5.11967 34.0039 8.8284 34.0039 12.5292C34.0039 13.2646 33.579 13.7154 32.8733 13.7233C32.2511 13.7312 31.6365 13.7233 31.0144 13.7233C30.0963 13.7233 29.7093 13.32 29.7093 12.3394C29.7093 11.0347 29.7093 9.72988 29.7093 8.42511C29.7093 8.28277 29.7093 8.14043 29.7093 7.87947C29.5348 8.04553 29.4361 8.14043 29.3299 8.25113C25.8852 11.8413 22.4404 15.4235 19.0032 19.0136C18.5783 19.4564 18.1079 19.7727 17.4857 19.8202C16.7497 19.8676 16.1654 19.575 15.6571 19.0373C14.5341 17.8432 13.3884 16.665 12.2578 15.4788C12.1364 15.3444 12.0378 15.1862 11.8633 14.9727Z" fill="currentColor"></path>
  </symbol>
  <symbol fill="none" xmlns="http://www.w3.org/2000/svg" viewBox="0 0 36 26" id="competence-icon-7">
    <g clip-path="url(#clip0_7_215)">
      <path d="M12.5547 23.7647C12.5888 23.6229 12.6365 23.3055 12.7319 23.0016C14.9201 15.904 17.1152 8.81305 19.3102 1.71538C19.6443 0.634864 20.4077 0.00681219 21.3757 5.89438e-05C22.2756 -0.0066943 23.1072 0.567332 23.339 1.47227C23.4413 1.86395 23.4481 2.33668 23.3254 2.72162C21.1099 9.96785 18.8739 17.2006 16.6244 24.4401C16.2767 25.5476 15.3019 26.1554 14.2589 25.9798C13.2705 25.8042 12.5547 24.9533 12.5547 23.7647Z" fill="currentColor"></path>
      <path d="M31.0108 12.982C29.2111 11.2127 27.4592 9.4771 25.7004 7.75502C25.1551 7.22151 24.8756 6.60697 24.9983 5.85735C25.1278 5.08073 25.5641 4.52021 26.3276 4.26359C27.1524 3.98671 27.9091 4.14878 28.5295 4.75658C29.9542 6.1545 31.3653 7.55917 32.7832 8.96385C33.6217 9.7945 34.467 10.6184 35.2918 11.4558C36.253 12.4283 36.253 13.6033 35.2782 14.5758C33.0491 16.7976 30.8063 19.0194 28.5635 21.2277C27.6637 22.1124 26.3958 22.1259 25.5641 21.2953C24.7324 20.4646 24.7597 19.2153 25.6527 18.3171C27.2615 16.7098 28.8771 15.1161 30.4927 13.5155C30.6427 13.3602 30.7927 13.2049 31.0108 12.982Z" fill="currentColor"></path>
      <path d="M5.00104 13.0282C6.7598 14.7638 8.49811 16.4791 10.2432 18.1877C10.7477 18.6739 11.0749 19.2277 11.0272 19.9368C10.9795 20.7742 10.5568 21.4022 9.77287 21.7264C8.99574 22.0505 8.23907 21.9357 7.6051 21.3684C7.04611 20.8687 6.52803 20.3217 5.99631 19.7949C4.258 18.0729 2.5197 16.3575 0.788205 14.6355C-0.261596 13.5887 -0.261596 12.4204 0.781388 11.3804C3.00369 9.17209 5.226 6.97053 7.45512 4.77572C8.17771 4.06663 9.1798 3.93157 10.0046 4.39754C10.809 4.85001 11.2249 5.79546 10.9386 6.70715C10.8159 7.09209 10.5568 7.47702 10.2705 7.76741C8.68898 9.36793 7.0802 10.9414 5.48504 12.5284C5.33507 12.677 5.19192 12.8323 5.00104 13.0282Z" fill="currentColor"></path>
    </g>
    <defs>
      <clipPath id="clip0_7_215">
        <rect width="36" height="26" fill="white"></rect>
      </clipPath>
    </defs>
  </symbol>
  <symbol fill="none" xmlns="http://www.w3.org/2000/svg" viewBox="0 0 35 32" id="competence-icon-6">
    <path d="M26.7023 5.41705C26.6914 7.75168 25.2162 9.68987 22.9324 10.3616C20.8453 10.9783 18.4194 10.0863 17.283 8.15914C16.5509 6.90372 15.5346 6.36412 14.1359 6.43019C13.5131 6.46323 12.9012 6.4412 12.2783 6.4412C11.1091 6.4412 10.2349 6.93676 9.62299 7.96092C8.4647 9.89911 6.71634 10.7801 4.50903 10.4828C2.33451 10.1964 0.870256 8.90799 0.214621 6.78259C-0.681414 3.89733 1.3292 0.7698 4.36698 0.285252C6.46501 -0.0451205 8.49748 0.879924 9.57928 2.73001C10.2458 3.87531 11.2074 4.34884 12.4641 4.35985C13.1197 4.37086 13.7753 4.38188 14.431 4.35985C15.6221 4.32682 16.5509 3.85328 17.1847 2.78507C18.791 0.0539915 22.2877 -0.617767 24.7354 1.32042C26.0467 2.35559 26.7023 3.73214 26.7023 5.41705Z" fill="currentColor"></path>
    <path d="M26.7909 26.0662C26.6925 28.3568 25.1846 30.372 23.0319 30.9997C20.8246 31.6385 18.4315 30.7465 17.2623 28.7422C16.552 27.5198 15.5358 27.0353 14.1918 27.0463C13.6235 27.0573 13.0662 27.0463 12.498 27.0463C11.2195 27.0573 10.247 27.5418 9.56952 28.6981C8.55329 30.4161 6.96883 31.264 5.00193 31.1759C2.92575 31.0878 1.37408 30.0306 0.478045 28.1255C-0.65839 25.7028 0.335991 22.8175 2.69628 21.507C5.07842 20.1855 8.1162 20.9124 9.50396 23.236C10.247 24.4804 11.2414 25.042 12.651 24.9649C13.252 24.9319 13.853 24.9539 14.454 24.9649C15.6669 24.9759 16.552 24.4584 17.1967 23.4012C18.3223 21.529 20.0269 20.6701 22.1686 20.9013C24.223 21.1216 25.6544 22.2999 26.3975 24.2491C26.6051 24.8328 26.6598 25.4715 26.7909 26.0662Z" fill="currentColor"></path>
    <path d="M21.5894 16.7045C21.0649 16.7265 20.5295 16.7265 20.0159 16.7926C19.0543 16.9137 18.3331 17.4093 17.8414 18.2683C17.0109 19.6999 15.787 20.5478 14.148 20.8121C11.7112 21.1976 9.28533 19.6999 8.52042 17.2992C7.48233 14.0395 9.84262 10.6146 13.241 10.5485C15.186 10.5045 16.7596 11.3304 17.7649 13.0263C18.4642 14.2047 19.4477 14.7002 20.748 14.6892C21.5894 14.6892 22.4308 14.7002 23.2504 14.6121C24.1683 14.513 24.8567 14.0065 25.3375 13.1915C26.4411 11.3084 28.113 10.3723 30.2547 10.5816C32.5713 10.8128 34.1339 12.1343 34.8114 14.4139C35.6309 17.145 33.6422 20.3056 30.8339 20.7681C28.4845 21.1645 26.5395 20.2725 25.3265 18.2242C24.7255 17.2001 23.8077 16.7926 22.6931 16.7375C22.3325 16.7155 21.9609 16.7375 21.6003 16.7375C21.5894 16.7265 21.5894 16.7155 21.5894 16.7045Z" fill="currentColor"></path>
  </symbol>
  <symbol fill="none" xmlns="http://www.w3.org/2000/svg" viewBox="0 0 33 28" id="competence-icon-5">
    <path d="M12.679 27.7673C9.93175 27.7673 7.18447 27.692 4.4481 27.7888C1.65722 27.8856 -0.283315 25.6697 0.0437416 23.0343C0.512523 19.2586 3.34701 16.2144 7.15177 15.6658C7.56604 15.6013 7.98031 15.5905 8.40549 15.5905C11.2945 15.5798 14.1835 15.569 17.0725 15.5905C21.2261 15.6336 24.5185 18.3228 25.3252 22.3458C25.5869 23.6582 25.576 24.9597 24.7256 26.1C23.908 27.1972 22.796 27.7565 21.4114 27.7673C18.4897 27.778 15.5789 27.7673 12.679 27.7673Z" fill="currentColor"></path>
    <path d="M19.6238 6.61967C19.6129 10.3738 16.5168 13.4287 12.7339 13.4287C8.9182 13.4287 5.82206 10.3308 5.84386 6.55513C5.85477 2.79024 8.94 -0.221666 12.7557 -0.210909C16.5604 -0.200152 19.6347 2.85478 19.6238 6.61967Z" fill="currentColor"></path>
    <path d="M22.0597 3.88376C23.0592 3.88376 23.8694 3.08431 23.8694 2.09813C23.8694 1.11195 23.0592 0.3125 22.0597 0.3125C21.0602 0.3125 20.25 1.11195 20.25 2.09813C20.25 3.08431 21.0602 3.88376 22.0597 3.88376Z" fill="currentColor"></path>
    <path d="M26.6222 3.88376C27.6217 3.88376 28.4319 3.08431 28.4319 2.09813C28.4319 1.11195 27.6217 0.3125 26.6222 0.3125C25.6227 0.3125 24.8125 1.11195 24.8125 2.09813C24.8125 3.08431 25.6227 3.88376 26.6222 3.88376Z" fill="currentColor"></path>
    <path d="M31.1925 3.88376C32.192 3.88376 33.0022 3.08431 33.0022 2.09813C33.0022 1.11195 32.192 0.3125 31.1925 0.3125C30.193 0.3125 29.3828 1.11195 29.3828 2.09813C29.3828 3.08431 30.193 3.88376 31.1925 3.88376Z" fill="currentColor"></path>
  </symbol>
  <symbol fill="none" xmlns="http://www.w3.org/2000/svg" viewBox="0 0 29 29" id="competence-icon-4">
    <g clip-path="url(#clip0_7_247)">
      <path d="M25.7085 5.34305C26.0844 5.15555 26.4546 4.96805 26.8248 4.78055C27.2633 4.55896 27.7019 4.33737 28.1404 4.11009C28.3625 3.99646 28.5789 3.99077 28.7839 4.14987C28.9833 4.30327 29.0345 4.50782 28.989 4.75782C28.5049 7.31464 28.0322 9.87146 27.5481 12.4283C27.4627 12.8885 27.1039 13.076 26.6767 12.8771C24.3189 11.7749 21.9611 10.6612 19.5976 9.55896C19.3755 9.45668 19.2274 9.29759 19.2217 9.04191C19.2103 8.77487 19.3527 8.59873 19.5862 8.48509C20.3892 8.076 21.1865 7.66691 22.0522 7.22373C21.6023 6.84305 21.2036 6.45668 20.7594 6.13282C14.5858 1.55896 5.83226 4.77487 4.118 12.2408C3.91297 13.1442 3.77059 13.1612 2.96187 13.1499C2.2101 13.1385 1.46403 13.1499 0.712263 13.1499C0.171219 13.1499 -0.0679801 12.8885 0.0288385 12.3658C1.11662 6.47373 4.49958 2.50214 10.2062 0.678274C15.7704 -1.10013 21.6763 0.701002 25.5035 5.11577C25.5662 5.18964 25.6288 5.25782 25.7085 5.34305Z" fill="currentColor"></path>
      <path d="M6.98329 21.8212C7.87174 22.736 8.8741 23.4519 10.0074 23.9916C15.9532 26.8326 23.0381 23.5996 24.7751 17.2473C24.8549 16.9632 24.9061 16.6735 24.9745 16.3894C25.0542 16.0598 25.2364 15.8951 25.5724 15.8894C26.5122 15.8837 27.4519 15.878 28.3916 15.8894C28.8187 15.8951 29.0465 16.1848 28.9839 16.6053C28.1011 22.6507 23.3969 27.628 17.3941 28.7132C11.8812 29.7132 7.23388 28.0541 3.48074 23.9007C3.33266 23.736 3.23584 23.7076 3.03651 23.8155C2.34169 24.1848 1.63549 24.5314 0.940672 24.8951C0.695779 25.0201 0.45658 25.0826 0.223076 24.9007C-0.0104273 24.7246 -0.0275129 24.486 0.023744 24.2132C0.502141 21.6848 0.974844 19.1564 1.45324 16.628C1.54436 16.1507 1.89747 15.9689 2.34169 16.1735C4.69381 17.2757 7.04024 18.378 9.39236 19.4803C9.62586 19.5882 9.77964 19.753 9.77964 20.0257C9.77964 20.2985 9.63156 20.4576 9.40375 20.5769C8.72602 20.9178 8.05399 21.2644 7.37626 21.611C7.25096 21.6791 7.12567 21.7473 6.98329 21.8212Z" fill="currentColor"></path>
    </g>
    <defs>
      <clipPath id="clip0_7_247">
        <rect width="29" height="29" fill="white"></rect>
      </clipPath>
    </defs>
  </symbol>
  <symbol fill="none" xmlns="http://www.w3.org/2000/svg" viewBox="0 0 28 33" id="competence-icon-3">
    <g clip-path="url(#clip0_7_256)">
      <path d="M14.3589 0C14.7332 0 15.4136 0.189358 16.043 0.58529C19.5132 2.78873 22.9835 4.97496 26.4367 7.19562C28.0527 8.22848 28.478 10.2254 27.4233 11.7746C27.3212 11.9296 27.1681 12.0845 26.998 12.1878C23.0685 14.7011 19.122 17.1972 15.1924 19.6933C14.4099 20.1925 13.6274 20.2097 12.8279 19.6933C8.88139 17.18 4.93485 14.6839 1.00533 12.1706C0.375922 11.7574 0.137769 11.0861 0.052714 10.3631C-0.117395 8.9687 0.460976 7.90141 1.60071 7.16119C3.35284 6.02504 5.10496 4.92332 6.85709 3.8216C8.52416 2.7543 10.1912 1.70423 11.8583 0.636933C12.5387 0.206573 13.2192 0 14.3589 0Z" fill="currentColor"></path>
      <path d="M0.548951 14.7344C1.41651 15.2852 2.25004 15.8189 3.08358 16.3353C5.94142 18.1428 8.78224 19.9848 11.6571 21.7751C13.2391 22.7563 14.8551 22.7219 16.4372 21.7406C20.0265 19.4855 23.5818 17.196 27.154 14.9409C27.2391 14.8893 27.3412 14.8204 27.4602 14.7516C27.7494 15.1303 27.9025 15.5607 27.9706 16.0255C28.1407 17.3682 27.6474 18.4699 26.5246 19.1929C22.8843 21.5341 19.2099 23.858 15.5526 26.1647C15.4165 26.2508 15.2804 26.3369 15.1443 26.423C14.3788 26.905 13.5963 26.8877 12.8308 26.4057C11.0277 25.2696 9.24154 24.1162 7.43838 22.9801C5.46511 21.7234 3.47483 20.4668 1.50156 19.2101C0.123677 18.3322 -0.386651 16.5763 0.310798 15.1131C0.378841 14.9926 0.463896 14.8893 0.548951 14.7344Z" fill="currentColor"></path>
      <path d="M0.464154 21.3984C1.17861 21.846 1.85905 22.2764 2.52248 22.7067C5.55042 24.6347 8.57837 26.58 11.6233 28.4736C13.2053 29.4548 14.8554 29.4376 16.4204 28.4391C20.0267 26.184 23.599 23.8773 27.1883 21.605C27.2904 21.5362 27.3925 21.4845 27.5115 21.4157C27.7667 21.7944 27.9028 22.1903 27.9368 22.6034C28.0899 23.9978 27.5286 25.0651 26.3888 25.8053C23.1908 27.8538 19.9927 29.8851 16.7776 31.9164C16.2163 32.2779 15.6209 32.6222 15.0085 32.8288C13.9198 33.1903 12.8651 33.0009 11.8955 32.3812C8.45929 30.2122 5.0401 28.026 1.60389 25.8398C0.157957 24.9274 -0.386393 23.2748 0.243012 21.7772C0.311056 21.6567 0.379099 21.5534 0.464154 21.3984Z" fill="currentColor"></path>
    </g>
    <defs>
      <clipPath id="clip0_7_256">
        <rect width="28" height="33" fill="white"></rect>
      </clipPath>
    </defs>
  </symbol>
  <symbol fill="none" xmlns="http://www.w3.org/2000/svg" viewBox="0 0 34 32" id="competence-icon-2">
    <path d="M11.9925 0.789062C17.9 0.832945 22.9436 5.31625 23.8567 11.3793C24.8823 18.2323 20.2883 24.7049 13.7135 25.6557C11.3252 25.9994 9.02819 25.685 6.82955 24.6391C6.67501 24.566 6.46428 24.5513 6.29569 24.5952C5.42466 24.8146 4.55364 25.0706 3.68261 25.3046C1.7228 25.8385 0.0369357 24.1052 0.535669 22.05C0.760451 21.1212 1.00631 20.1924 1.22406 19.2562C1.26621 19.0734 1.24514 18.8393 1.16787 18.6784C-2.23195 11.2257 2.12319 2.42734 9.93434 1.01579C10.6157 0.891455 11.3041 0.8622 11.9925 0.789062Z" fill="currentColor"></path>
    <path d="M27.2203 7.78906C27.3544 7.84816 27.4462 7.8851 27.5309 7.93681C31.9212 10.5297 34.1022 14.4597 33.9963 19.7489C33.961 21.4405 33.5234 23.0435 32.8317 24.5801C32.7682 24.7204 32.7541 24.9125 32.7823 25.0602C32.987 26.0206 33.2199 26.9735 33.4317 27.9338C33.8975 30.0466 32.2106 31.753 30.213 31.199C29.3872 30.97 28.5614 30.7188 27.7285 30.512C27.5238 30.4603 27.2627 30.4824 27.0721 30.5711C22.4559 32.6469 18.1856 32.078 14.247 28.7981C14.1765 28.739 14.1059 28.6726 14.0353 28.5987C14.0212 28.5839 14.0141 28.5618 14 28.5248C18.835 28.0299 22.7171 25.7768 25.4204 21.5513C28.1238 17.3259 28.632 12.7015 27.2203 7.78906Z" fill="currentColor"></path>
  </symbol>
  <symbol fill="none" xmlns="http://www.w3.org/2000/svg" viewBox="0 0 32 30" id="competence-icon-1">
    <path d="M21.2581 29.8791C20.458 29.8338 19.9397 29.5322 19.513 29.0118C18.3927 27.6619 16.9524 27.1641 15.23 27.5337C14.2927 27.7373 13.5382 28.2501 12.9438 29.0043C12.1207 30.0525 11.3968 30.226 10.1469 29.7358C8.62276 29.14 7.23576 28.318 5.96308 27.2999C5.18575 26.6739 4.95712 25.8142 5.34579 24.9092C6.46606 22.2999 4.89616 19.5397 2.04596 19.1249C0.940931 18.9666 0.354125 18.3934 0.178845 17.2999C-0.0955063 15.5578 -0.0497812 13.8157 0.285537 12.0887C0.460817 11.1838 1.11621 10.5804 2.03834 10.4598C4.035 10.2034 5.44486 8.86852 5.74969 6.92282C5.85639 6.23654 5.75732 5.57289 5.53631 4.91678C5.17051 3.84589 5.40676 3.10683 6.31364 2.40547C7.57108 1.4477 8.95046 0.708638 10.4289 0.143027C11.2977 -0.188798 12.1055 0.0299045 12.7533 0.768969C14.2851 2.52613 16.6933 2.82779 18.5223 1.47033C18.8119 1.25162 19.071 0.980131 19.3148 0.708638C19.9321 0.022363 20.7552 -0.181257 21.624 0.143027C23.2472 0.761428 24.7409 1.60607 26.0898 2.69205C26.89 3.33307 27.1186 4.10984 26.7833 5.07515C25.9221 7.56384 27.3853 10.0676 29.9917 10.5653C31.0738 10.769 31.6073 11.3421 31.7902 12.4206C32.0798 14.1098 32.0645 15.7991 31.7673 17.4809C31.5768 18.5367 30.99 19.1174 29.9154 19.2908C27.271 19.7056 25.7087 22.3904 26.6842 24.8715C27.05 25.8067 26.829 26.6287 26.0441 27.2622C24.8095 28.2652 23.453 29.0721 21.9669 29.6604C21.7078 29.781 21.4182 29.8338 21.2581 29.8791ZM16.0379 9.7207C13.0886 9.7207 10.688 12.0736 10.6804 14.9771C10.6728 17.9107 13.0657 20.2788 16.0302 20.2788C18.9643 20.2788 21.3496 17.9032 21.3496 14.9847C21.3496 12.1038 18.949 9.7207 16.0379 9.7207Z" fill="currentColor"></path>
  </symbol>
  <symbol fill="none" xmlns="http://www.w3.org/2000/svg" viewBox="0 0 9 9" id="arrow">
    <path d="M1 3.96094L4.47183 7.43277L7.94366 3.96094" stroke="currentColor" stroke-width="0.957746"></path>
  </symbol>
  <symbol fill="none" xmlns="http://www.w3.org/2000/svg" viewBox="0 0 16 28" id="arrow-2">
    <path d="M1 19.5L8.07107 26.5711L15.1421 19.5" stroke="currentColor" stroke-width="2"></path>
    <path d="M8 25.5V0" stroke="currentColor" stroke-width="2"></path>
  </symbol>
  <symbol fill="none" xmlns="http://www.w3.org/2000/svg" viewBox="0 0 63 58" id="amazon">
    <path d="M0.116263 44.2656C0.30794 43.9583 0.606453 43.9363 1.02437 44.2029C10.5611 49.722 20.9399 52.4972 32.1514 52.4972C39.6331 52.4972 47.0143 51.0955 54.3074 48.3202L55.1307 47.9534C55.492 47.7934 55.7434 47.6899 55.8974 47.6115C56.4913 47.3795 56.9217 47.4955 57.2737 47.9534C57.5942 48.4018 57.5125 48.8283 56.9595 49.2077C56.2902 49.7032 55.3883 50.2801 54.32 50.9167C51.0615 52.8578 47.3976 54.3599 43.3473 55.4355C39.4835 56.4723 35.5019 57.0077 31.501 57.0285C25.5653 57.0285 19.9375 55.9937 14.6303 53.924C9.39446 51.8787 4.57136 48.9075 0.39278 45.153C0.128832 44.9618 0 44.7673 0 44.576C0 44.4537 0.0502755 44.344 0.128832 44.2342L0.116263 44.2656ZM17.3326 27.9937C17.3326 25.3596 17.9831 23.1175 19.2777 21.2454C20.5786 19.3889 22.3476 17.9809 24.6289 17.0245C26.7216 16.1433 29.2323 15.5193 32.2646 15.1367C33.2889 15.0207 34.97 14.867 37.2921 14.682V13.7099C37.2921 11.2859 37.0282 9.63645 36.5129 8.80545C35.721 7.67969 34.4704 7.10896 32.7328 7.10896H32.2614C31.0045 7.23126 29.9173 7.61697 28.9966 8.30999C28.0726 9.01789 27.4418 10.0403 27.2244 11.1824C27.0704 11.9664 26.6839 12.396 26.0901 12.5183L19.4756 11.6904C18.8189 11.5305 18.4984 11.2201 18.4984 10.6681C18.4984 10.5521 18.5172 10.4361 18.5549 10.2824C19.2117 6.902 20.8017 4.38391 23.3312 2.74386C25.8889 1.13204 28.8364 0.191287 32.2174 0H33.6346C37.9677 0 41.3928 1.13204 43.828 3.37417C44.1894 3.75988 44.5413 4.15813 44.8964 4.62224C45.2106 5.05812 45.4871 5.4501 45.6317 5.80445C45.8296 6.15253 46.0307 6.66681 46.147 7.29398C46.3072 7.96191 46.4235 8.39779 46.5021 8.62985C46.5743 8.89953 46.6623 9.41381 46.7032 10.2417C46.722 11.0633 46.7534 11.5274 46.7534 11.6873V25.5038C46.7534 26.4885 46.9074 27.3916 47.1839 28.2163C47.4605 29.0317 47.7307 29.6306 48.0072 29.9818L49.3521 31.741C49.5534 32.0199 49.674 32.3486 49.7009 32.6912C49.7009 33.011 49.5469 33.2807 49.2358 33.5065C46.0873 36.2566 44.3559 37.7462 44.0857 37.9845C43.6552 38.3389 43.1022 38.3765 42.436 38.1068C41.9523 37.7001 41.4917 37.2666 41.0566 36.8086L40.2459 35.896C40.0856 35.6985 39.8028 35.3504 39.41 34.7922L38.6245 33.6539C36.5003 35.9744 34.4201 37.4326 32.3337 38.0221C31.0328 38.4141 29.4617 38.6117 27.5292 38.6117C24.6195 38.6117 22.1842 37.718 20.2926 35.9054C18.4135 34.0992 17.4646 31.5497 17.4646 28.2132L17.3295 28.0156L17.3326 27.9937ZM27.171 26.8428C27.171 28.3324 27.5386 29.5146 28.2865 30.4146C29.028 31.3083 30.0556 31.7567 31.3187 31.7567C31.4287 31.7567 31.5953 31.7316 31.8215 31.7003C32.0666 31.6626 32.1703 31.6375 32.2646 31.6375C33.8734 31.2205 35.0989 30.1919 36.0007 28.5581C36.4362 27.8196 36.7532 27.0175 36.9402 26.1812C37.179 25.3408 37.2544 24.6321 37.289 24.0927C37.3393 23.5722 37.3393 22.6722 37.3393 21.4586V20.0443C35.1303 20.0443 33.4429 20.198 32.2991 20.5084C28.9589 21.4586 27.259 23.5722 27.259 26.8711L27.1678 26.8209V26.8428H27.171ZM51.1966 45.2346C51.2751 45.0746 51.3945 44.9461 51.5391 44.7861C52.4849 44.1558 53.4119 43.7137 54.2948 43.4816C55.6771 43.127 57.0923 42.9158 58.518 42.8513C58.8856 42.82 59.2533 42.8513 59.6052 42.9297C61.2989 43.0897 62.3484 43.3719 62.6752 43.7858C62.8417 44.0304 62.9077 44.3848 62.9077 44.8144V45.2064C62.9077 46.5422 62.5401 48.1101 61.8142 49.9164C61.0884 51.7226 60.0766 53.1808 58.7882 54.3128C58.5966 54.4665 58.4269 54.5449 58.2729 54.5449C58.1944 54.5449 58.1127 54.5449 58.0404 54.5135C57.8016 54.3975 57.7576 54.2 57.8676 53.8832C59.2847 50.5875 59.9791 48.2795 59.9791 46.9812C59.9791 46.583 59.9006 46.2694 59.7466 46.075C59.3727 45.6454 58.3106 45.3945 56.5415 45.3945C55.7788 45.4059 55.0167 45.4467 54.2571 45.5168C53.305 45.6454 52.4283 45.7614 51.6365 45.8774C51.404 45.8774 51.25 45.8335 51.1652 45.7614C51.0866 45.683 51.0677 45.6391 51.1086 45.5607C51.1086 45.5168 51.1274 45.4823 51.1652 45.3945V45.2408L51.1966 45.2346Z" fill="currentColor" fill-opacity="0.36"></path>
  </symbol>
</svg>
