<svg width="0" height="0" class="hidden">
  <symbol xmlns="http://www.w3.org/2000/svg" xml:space="preserve" viewBox="0 0 102.8 102.8" id="moon">
    <radialGradient id="a" cx="22.479" cy="78.497" r="90.268" fx="8.932" fy="94.957" gradientUnits="userSpaceOnUse">
      <stop offset=".335"></stop>
      <stop offset=".676"></stop>
      <stop offset=".967"></stop>
    </radialGradient>
    <circle cx="51.4" cy="51.4" r="51.4" fill="url(#a)"></circle>
  </symbol>
  <symbol xmlns="http://www.w3.org/2000/svg" fill="none" viewBox="0 0 75 60" id="windows">
    <path fill="#000458" fill-opacity=".36" d="m10 10.684 22.178-3.01L32.19 29l-22.169.127zM32.17 31.46l.017 21.346-22.169-3.039V31.315zm2.688-24.18L64.265 3v25.73l-29.407.232zm29.417 24.38-.01 25.615-29.407-4.142-.042-21.52z"></path>
  </symbol>
  <symbol xmlns="http://www.w3.org/2000/svg" fill="none" viewBox="0 0 100 60" id="visa">
    <path fill="#000458" fill-opacity=".36" d="M72.228 16.252a20.6 20.6 0 0 0-7.207-1.251c-7.948 0-13.56 4.02-13.6 9.79-.05 4.238 3.988 6.627 7.043 8.044 3.134 1.456 4.182 2.374 4.172 3.675-.02 1.98-2.503 2.878-4.813 2.878-3.174 0-4.907-.444-7.575-1.556l-.988-.464-1.128 6.643c1.932.808 5.414 1.501 9.01 1.561 8.45 0 13.973-3.995 14.038-10.134.07-3.386-2.116-5.945-6.716-8.06-2.796-1.37-4.53-2.288-4.53-3.68 0-1.232 1.485-2.548 4.59-2.548 2.066-.05 4.12.339 6.025 1.142l.745.334 1.128-6.419zm20.624-.713h-6.21c-1.931 0-3.387.534-4.231 2.459L70.47 45.158h8.449l1.689-4.453 10.312.01c.243 1.042.988 4.443.988 4.443h7.45zm-52.861-.25h8.052l-5.037 29.635h-8.042l5.027-29.644zM19.55 31.624l.834 4.114 7.868-20.198h8.53L24.11 45.12h-8.509L8.648 20.072a1.7 1.7 0 0 0-.74-.993A34.4 34.4 0 0 0 0 16.143l.11-.624h12.959c1.758.07 3.174.624 3.646 2.509l2.83 13.61zm63.367 3.022 3.208-8.289c-.04.09.66-1.71 1.068-2.822l.552 2.558 1.862 8.548h-6.696z"></path>
  </symbol>
  <symbol xmlns="http://www.w3.org/2000/svg" fill="none" viewBox="0 0 299 31" id="sign-3">
    <path stroke="currentColor" stroke-width="2" d="M1 29.278c69.667-15.5 197.3-41.3 150.5-20.5-58.5 26 99-14 147 10"></path>
  </symbol>
  <symbol xmlns="http://www.w3.org/2000/svg" fill="none" viewBox="0 0 149 122" id="sign-2">
    <path stroke="currentColor" stroke-width="2" d="M67.349 1.445c42.908 0 73.897 32.455 73.897 60.502s-28.605 47.68-67.938 47.68S1 87.189 1 57.54c0-27.595 23.44-46.095 66.349-46.095 42.908 0 80.651 24.058 80.651 50.502s-21.851 58.498-74.692 58.498S8.151 77.974 8.151 61.947s7.54-38.865 59.198-38.865c51.657 0 92.651 34.458 69.651 90.363"></path>
  </symbol>
  <symbol xmlns="http://www.w3.org/2000/svg" fill="none" viewBox="0 0 379 118" id="sign-1">
    <path stroke="currentColor" stroke-width="2" d="M239.503 1.952c-121 11-238.245 53-238.245 93.821 5.112 24.886 93.46 27.764 197.329 6.429s183.93-58.805 178.818-83.69c-4.441-21.622-110.71-13.05-196.402 0"></path>
  </symbol>
  <symbol xmlns="http://www.w3.org/2000/svg" fill="none" viewBox="0 0 29 29" id="plus">
    <path stroke="currentColor" stroke-width="5" d="M14.25 0v28.5M28.5 14.25H0"></path>
  </symbol>
  <symbol xmlns="http://www.w3.org/2000/svg" viewBox="0 0 402.8 402.8" id="planet">
    <radialGradient id="a" cx="88.031" cy="307.406" r="353.501" fx="34.98" fy="371.865" gradientUnits="userSpaceOnUse">
      <stop offset=".221"></stop>
      <stop offset=".729"></stop>
      <stop offset=".967"></stop>
    </radialGradient>
    <circle cx="201.4" cy="201.4" r="201.4" fill="url(#a)"></circle>
  </symbol>
  <symbol xmlns="http://www.w3.org/2000/svg" fill="none" viewBox="0 0 21 21" id="pen">
    <g clip-path="url(#a)">
      <path fill="currentColor" d="M5.878 20.058 0 21l.942-5.878L16.064 0 21 4.936z"></path>
    </g>
    <defs>
      <clipPath id="a">
        <path fill="#fff" d="M0 0h21v21H0z"></path>
      </clipPath>
    </defs>
  </symbol>
  <symbol xmlns="http://www.w3.org/2000/svg" fill="none" viewBox="0 0 29 6" id="minus">
    <path stroke="currentColor" stroke-width="5" d="M28.5 3.25H0"></path>
  </symbol>
  <symbol xmlns="http://www.w3.org/2000/svg" fill="none" viewBox="0 0 14 6" id="menu">
    <path fill="currentColor" d="M0 0h14v1H0zM0 5h14v1H0z"></path>
  </symbol>
  <symbol xmlns="http://www.w3.org/2000/svg" fill="none" viewBox="0 0 183 52" id="logo">
    <g fill="currentColor" clip-path="url(#a)">
      <path d="M19.63 22.113c0 3.695-3.014 6.702-6.722 6.702s-6.724-3.006-6.724-6.702c0-3.695 3.016-6.7 6.724-6.7 1.303 0 2.567.371 3.653 1.073l3.368-5.17a12.9 12.9 0 0 0-7.021-2.068C5.79 9.247 0 15.02 0 22.113S5.79 34.98 12.908 34.98c2.519 0 4.869-.725 6.858-1.974v6.128c0 3.695-3.016 6.702-6.724 6.702-3.707 0-6.723-3.006-6.723-6.702H.135C.135 46.228 5.925 52 13.042 52c7.118 0 12.908-5.771 12.908-12.866v-17.02zM84.797 28.521a6.7 6.7 0 0 1-5.123-.49 6.67 6.67 0 0 1-3.275-3.955 6.64 6.64 0 0 1 .492-5.106 6.68 6.68 0 0 1 3.968-3.264 6.7 6.7 0 0 1 5.123.49 6.7 6.7 0 0 1 2.721 2.657l5.408-2.992a12.85 12.85 0 0 0-5.227-5.11 12.87 12.87 0 0 0-9.835-.94 12.81 12.81 0 0 0-7.62 6.266 12.75 12.75 0 0 0-.943 9.803 12.79 12.79 0 0 0 6.287 7.595 12.9 12.9 0 0 0 6.04 1.51c1.27 0 2.546-.189 3.795-.57a12.8 12.8 0 0 0 7.62-6.267l-5.461-2.892a6.68 6.68 0 0 1-3.97 3.265M136.697 28.521a6.7 6.7 0 0 1-5.123-.49 6.67 6.67 0 0 1-3.274-3.955 6.64 6.64 0 0 1 .491-5.106 6.68 6.68 0 0 1 3.969-3.264 6.7 6.7 0 0 1 5.122.49 6.67 6.67 0 0 1 2.721 2.657l5.409-2.992a12.85 12.85 0 0 0-5.228-5.11 12.87 12.87 0 0 0-9.835-.94 12.81 12.81 0 0 0-7.62 6.266 12.75 12.75 0 0 0-.943 9.803 12.78 12.78 0 0 0 6.288 7.595 12.88 12.88 0 0 0 9.835.94 12.8 12.8 0 0 0 7.62-6.267l-5.462-2.892a6.68 6.68 0 0 1-3.97 3.265M35.9.938h-6.185v34.04H35.9zM154.494 1.072h-6.185v34.041h6.185zM45.852 9.114h-6.186v26h6.186zM55.8 1.072h-6.185v34.041h6.186V15.412h4.84V9.247h-4.84zM42.892 6.434a3.22 3.22 0 0 0 3.227-3.217A3.22 3.22 0 0 0 42.892 0a3.22 3.22 0 0 0-3.228 3.217 3.22 3.22 0 0 0 3.228 3.217M102.861 9.114h-6.185v26h6.185zM182.817 24.392c.118-.698.182-1.414.182-2.144 0-7.095-5.79-12.866-12.908-12.866s-12.907 5.772-12.907 12.866 5.79 12.865 12.907 12.865c5.406 0 10.043-3.331 11.963-8.04h-7.304a6.7 6.7 0 0 1-4.658 1.875 6.73 6.73 0 0 1-6.367-4.556zm-12.726-8.846a6.73 6.73 0 0 1 6.368 4.557h-12.735a6.73 6.73 0 0 1 6.367-4.557M99.903 6.434a3.22 3.22 0 0 0 3.228-3.217A3.22 3.22 0 0 0 99.903 0a3.22 3.22 0 0 0-3.227 3.217 3.22 3.22 0 0 0 3.227 3.217M112.811 11.465V9h-6.186v26.113h6.186V24.359c.219-3.962 1.351-5.603 2.688-6.936 1.613-1.608 4.319-1.8 6.186-1.608V9.127c-3.203-.3-6.578.382-8.874 2.338"></path>
    </g>
    <defs>
      <clipPath id="a">
        <path fill="#fff" d="M0 0h183v52H0z"></path>
      </clipPath>
    </defs>
  </symbol>
  <symbol xmlns="http://www.w3.org/2000/svg" fill="none" viewBox="0 0 17 17" id="linkedin">
    <g fill="currentColor" clip-path="url(#a)">
      <path d="M3.643 5.04H0v11.962h3.643zM0 1.574C0 .693.729 0 1.821 0s1.761.693 1.822 1.574c0 .882-.668 1.574-1.822 1.574C.73 3.148 0 2.456 0 1.574M17.005 17.002h-3.643v-6.296c0-1.26-.607-2.519-2.125-2.519h-.061c-1.457 0-2.064 1.26-2.064 2.519v6.296H5.469V5.039h3.643v1.637s1.153-1.637 3.521-1.637c2.429 0 4.372 1.7 4.372 5.226z"></path>
    </g>
    <defs>
      <clipPath id="a">
        <path fill="#fff" d="M0 0h17v17H0z"></path>
      </clipPath>
    </defs>
  </symbol>
  <symbol xmlns="http://www.w3.org/2000/svg" fill="none" viewBox="0 0 18 18" id="instagram">
    <g fill="currentColor" clip-path="url(#a)">
      <path d="M9.006 18.003c1.332-.032 2.667-.038 3.995-.105 1.37-.067 2.607-.495 3.582-1.517a4.63 4.63 0 0 0 1.272-2.758c.102-.916.137-1.843.14-2.767.015-1.746-.01-3.488-.03-5.233-.011-.864-.107-1.718-.434-2.53C16.907 1.56 15.766.629 14.163.236 13.248.01 12.31.007 11.381.003 9.478-.007 7.576.01 5.674.031c-.845.01-1.687.092-2.49.394C1.592 1.029.619 2.177.21 3.814c-.162.65-.208 1.317-.212 1.984-.003 2.072-.007 4.145 0 6.217.004.896.057 1.791.367 2.648.613 1.7 1.835 2.715 3.59 3.101.982.215 1.982.187 2.98.207.686.015 1.373.004 2.06.004a.04.04 0 0 1 .01.028m-.01-1.616v-.028c-.476 0-.951.014-1.427-.003-1.025-.035-2.057-.028-3.075-.151-1.331-.165-2.244-.92-2.642-2.227-.183-.593-.215-1.208-.222-1.823a350 350 0 0 1-.02-5.444 18 18 0 0 1 .13-2.17c.183-1.447 1.088-2.43 2.525-2.715.624-.123 1.268-.158 1.906-.169a237 237 0 0 1 4.738-.014c.898.004 1.796-.007 2.684.148 1.36.239 2.3 1.106 2.575 2.451.12.587.162 1.195.176 1.795.031 1.458.042 2.915.024 4.373a37 37 0 0 1-.133 2.996c-.088.941-.518 1.731-1.321 2.28-.61.417-1.307.575-2.03.603-1.296.046-2.592.067-3.888.098"></path>
      <path d="M8.993 13.612c2.557-.003 4.639-2.083 4.632-4.625a4.63 4.63 0 0 0-4.646-4.612C6.418 4.39 4.36 6.444 4.357 8.99a4.635 4.635 0 0 0 4.636 4.622m3.001-4.632a2.987 2.987 0 0 1-2.987 3.002 2.99 2.99 0 0 1-3.015-2.974 2.99 2.99 0 0 1 2.994-3.01 2.99 2.99 0 0 1 3.008 2.982M3.098 4.18c-.003.601.476 1.086 1.078 1.086a1.077 1.077 0 0 0 .01-2.157 1.07 1.07 0 0 0-1.088 1.072"></path>
    </g>
    <defs>
      <clipPath id="a">
        <path fill="#fff" d="M18 0H0v18h18z"></path>
      </clipPath>
    </defs>
  </symbol>
  <symbol xmlns="http://www.w3.org/2000/svg" fill="none" viewBox="0 0 139 46" id="google">
    <path fill="#000458" fill-opacity=".36" d="M59.294 24.108c0 6.431-5.015 11.17-11.17 11.17s-11.17-4.739-11.17-11.17c0-6.477 5.015-11.17 11.17-11.17s11.17 4.693 11.17 11.17m-4.89 0c0-4.019-2.907-6.769-6.28-6.769s-6.28 2.75-6.28 6.769c0 3.979 2.906 6.769 6.28 6.769s6.28-2.795 6.28-6.769M83.992 24.108c0 6.431-5.148 11.17-11.465 11.17s-11.465-4.739-11.465-11.17c0-6.472 5.148-11.17 11.465-11.17s11.465 4.693 11.465 11.17m-5.02 0c0-4.019-2.982-6.769-6.445-6.769s-6.446 2.75-6.446 6.769c0 3.979 2.983 6.769 6.446 6.769s6.446-2.795 6.446-6.769M107.503 13.612V33.66c0 8.246-4.942 11.614-10.784 11.614-5.5 0-8.81-3.62-10.058-6.58l4.338-1.777c.773 1.818 2.665 3.962 5.715 3.962 3.739 0 6.057-2.27 6.057-6.544v-1.606h-.174c-1.115 1.354-3.264 2.537-5.975 2.537-5.674 0-10.872-4.863-10.872-11.121 0-6.303 5.198-11.206 10.871-11.206 2.707 0 4.856 1.183 5.976 2.496h.174v-1.817h4.732zm-4.379 10.532c0-3.932-2.666-6.806-6.057-6.806-3.438 0-6.319 2.874-6.319 6.806 0 3.892 2.88 6.726 6.319 6.726 3.391 0 6.057-2.834 6.057-6.726M115.149 1.766v32.923h-4.704V1.766zM134.063 27.79l3.803 2.538c-1.227 1.818-4.185 4.95-9.295 4.95-6.338 0-11.071-4.905-11.071-11.17 0-6.643 4.773-11.17 10.523-11.17 5.789 0 8.621 4.613 9.546 7.106l.508 1.269-14.913 6.185c1.141 2.24 2.917 3.384 5.407 3.384 2.495 0 4.225-1.229 5.492-3.092m-11.704-4.02 9.969-4.144c-.548-1.395-2.198-2.367-4.139-2.367-2.49 0-5.956 2.2-5.83 6.512M18.256 20.967v-4.82h16.112c.158.84.24 1.834.24 2.91 0 3.615-.981 8.086-4.142 11.271-3.074 3.227-7.002 4.947-12.205 4.947-9.644 0-17.753-7.917-17.753-17.637S8.618 0 18.26 0c5.336 0 9.136 2.11 11.992 4.86l-3.374 3.4c-2.048-1.935-4.822-3.44-8.623-3.44-7.042 0-12.55 5.72-12.55 12.818s5.508 12.818 12.55 12.818c4.568 0 7.17-1.848 8.836-3.528 1.352-1.363 2.241-3.309 2.592-5.967z"></path>
  </symbol>
  <symbol xmlns="http://www.w3.org/2000/svg" fill="none" viewBox="0 0 100 60" id="ebay">
    <path fill="#000458" fill-opacity=".36" d="M25.222 30.545V10h4.994v12.63c2.46-2.93 5.837-3.78 9.17-3.78 5.576 0 11.777 3.77 11.777 11.92 0 .975-.07 1.906-.254 2.796.998-3.987 5.303-5.453 12.062-5.618 2.125-.08 4.56-.08 6.495-.08v-.555c0-3.692-2.314-5.197-6.365-5.197-3.003 0-5.188 1.25-5.438 3.381h-5.307c.563-5.382 6.25-6.763 11.184-6.763 4.435 0 8.311 1.126 10.062 4.262l-1.82-3.512h5.87l8.561 17.224 8.56-17.234h5.174L84.457 49.98H78.85l4.46-8.52-9.703-18.288c.539 1.066.833 2.326.833 3.887v10.28c0 1.445.045 2.871.17 4.192h-4.645a28 28 0 0 1-.19-3.197c-2.509 3.067-5.502 4.017-9.662 4.017-6.166 0-9.464-3.261-9.464-7.083 0-.625.065-1.18.155-1.691-1.252 5.207-5.662 8.704-11.524 8.704-3.626 0-7.054-1.31-9.164-3.877 0 1.006-.065 2.061-.164 3.057h-4.92c.09-1.621.17-3.567.17-5.188v-4.387H5.089c.27 4.572 3.408 7.259 7.718 7.259 2.988 0 5.642-1.25 6.53-3.877h5.163c-.998 5.392-6.705 7.198-11.618 7.198C3.956 42.555 0 37.598 0 30.955c0-7.319 4.086-12.146 12.98-12.146 7.03 0 12.197 3.692 12.242 11.716zm38.049.765c-4.565.135-7.379.965-7.379 3.967 0 1.946 1.502 4.047 5.438 4.047 5.248 0 8.057-2.872 8.057-7.574v-.545c-1.876 0-4.121.03-6.181.1h.055zm-25.238 7.824c4.625 0 7.812-3.362 7.812-8.434 0-5.073-3.202-8.434-7.882-8.434-4.63 0-7.872 3.361-7.872 8.434s3.188 8.434 7.807 8.434zM19.92 28.639c-.184-4.697-3.561-6.458-7.183-6.458-3.931 0-7.054 1.976-7.563 6.458z"></path>
  </symbol>
  <symbol xmlns="http://www.w3.org/2000/svg" fill="none" viewBox="0 0 14 14" id="cross">
    <path fill="currentColor" d="M0 12.445 12.444.001 14 1.556 1.555 14.001z"></path>
    <path fill="currentColor" d="M14 12.445 1.556.001 0 1.557 12.444 14z"></path>
  </symbol>
  <symbol xmlns="http://www.w3.org/2000/svg" fill="none" viewBox="0 0 34 25" id="competence-icon-8">
    <path fill="currentColor" d="M11.863 14.973c-.72.767-1.358 1.463-2.01 2.143-2.133 2.23-4.272 4.452-6.412 6.682-.539.561-1.153.553-1.692-.008-.448-.467-.895-.925-1.343-1.4-.531-.561-.546-1.186-.015-1.74 3.285-3.431 6.578-6.863 9.871-10.287.956-.989 2.231-.957 3.202.047q1.694 1.757 3.377 3.527c.151.158.273.34.387.482l9.34-9.734h-4.31c-.796 0-1.221-.435-1.221-1.265 0-.657-.008-1.321 0-1.977.007-.767.417-1.226 1.138-1.226q5.349-.012 10.698 0c.706 0 1.13.459 1.13 1.202v11.11c0 .736-.424 1.186-1.13 1.194-.622.008-1.236 0-1.859 0-.918 0-1.305-.403-1.305-1.384V7.88c-.174.167-.273.261-.38.372-3.444 3.59-6.889 7.173-10.326 10.763-.425.442-.895.759-1.517.806-.736.048-1.32-.245-1.829-.783-1.123-1.194-2.269-2.372-3.4-3.558-.12-.135-.22-.293-.394-.506"></path>
  </symbol>
  <symbol xmlns="http://www.w3.org/2000/svg" fill="none" viewBox="0 0 36 26" id="competence-icon-7">
    <g fill="currentColor" clip-path="url(#a)">
      <path d="M12.555 23.765c.034-.142.082-.46.177-.763 2.188-7.098 4.383-14.189 6.578-21.287C19.644.635 20.408.007 21.376 0c.9-.007 1.731.567 1.963 1.472.102.392.11.865-.014 1.25a4995 4995 0 0 1-6.7 21.718c-.348 1.108-1.323 1.715-2.366 1.54-.989-.176-1.704-1.027-1.704-2.215M31.01 12.982c-1.799-1.77-3.55-3.505-5.31-5.227-.545-.533-.824-1.148-.702-1.898.13-.776.566-1.337 1.33-1.593.824-.277 1.581-.115 2.201.493 1.425 1.398 2.836 2.802 4.254 4.207.839.83 1.684 1.654 2.509 2.492.961.972.961 2.147-.014 3.12-2.229 2.222-4.472 4.443-6.714 6.652-.9.884-2.168.898-3 .067-.832-.83-.804-2.08.089-2.978 1.609-1.607 3.224-3.2 4.84-4.802zM5.001 13.028c1.759 1.736 3.497 3.451 5.242 5.16.505.486.832 1.04.784 1.749-.047.837-.47 1.465-1.254 1.79-.777.323-1.534.209-2.168-.359-.559-.5-1.077-1.046-1.609-1.573-1.738-1.722-3.476-3.437-5.208-5.16-1.05-1.046-1.05-2.215-.007-3.255q3.333-3.312 6.674-6.604c.723-.71 1.725-.844 2.55-.378.804.452 1.22 1.397.934 2.31-.123.384-.382.769-.668 1.06-1.582 1.6-3.19 3.173-4.786 4.76-.15.149-.293.304-.484.5"></path>
    </g>
    <defs>
      <clipPath id="a">
        <path fill="#fff" d="M0 0h36v26H0z"></path>
      </clipPath>
    </defs>
  </symbol>
  <symbol xmlns="http://www.w3.org/2000/svg" fill="none" viewBox="0 0 35 32" id="competence-icon-6">
    <path fill="currentColor" d="M26.702 5.417c-.01 2.335-1.486 4.273-3.77 4.945-2.087.616-4.513-.276-5.649-2.203-.732-1.255-1.748-1.795-3.147-1.729-.623.033-1.235.011-1.858.011-1.169 0-2.043.496-2.655 1.52-1.158 1.938-2.907 2.82-5.114 2.522C2.335 10.196.87 8.908.215 6.783-.681 3.897 1.329.77 4.367.285c2.098-.33 4.13.595 5.212 2.445.667 1.145 1.628 1.619 2.885 1.63.656.01 1.311.022 1.967 0 1.191-.033 2.12-.507 2.754-1.575C18.79.054 22.288-.618 24.735 1.32c1.312 1.036 1.967 2.412 1.967 4.097M26.79 26.066c-.098 2.29-1.605 4.306-3.758 4.934-2.207.639-4.6-.253-5.77-2.258-.71-1.222-1.726-1.707-3.07-1.696-.569.011-1.126 0-1.694 0-1.278.011-2.251.496-2.928 1.652-1.017 1.718-2.601 2.566-4.568 2.478-2.076-.088-3.628-1.145-4.524-3.05-1.136-2.423-.142-5.309 2.218-6.619 2.382-1.322 5.42-.595 6.808 1.729.743 1.244 1.737 1.806 3.147 1.729.601-.033 1.202-.011 1.803 0 1.213.01 2.098-.507 2.743-1.564 1.125-1.872 2.83-2.73 4.972-2.5 2.054.22 3.485 1.399 4.229 3.348.207.584.262 1.223.393 1.817"></path>
    <path fill="currentColor" d="M21.59 16.705c-.525.022-1.06.022-1.574.088-.962.12-1.683.616-2.175 1.475-.83 1.432-2.054 2.28-3.693 2.544-2.437.386-4.863-1.112-5.628-3.513-1.038-3.26 1.323-6.684 4.721-6.75 1.945-.044 3.519.781 4.524 2.477.7 1.179 1.683 1.674 2.983 1.663.841 0 1.683.011 2.502-.077.918-.099 1.607-.605 2.087-1.42 1.104-1.884 2.776-2.82 4.918-2.61 2.316.23 3.879 1.552 4.556 3.832.82 2.731-1.169 5.892-3.977 6.354-2.35.396-4.294-.495-5.507-2.544-.602-1.024-1.52-1.431-2.634-1.486-.36-.023-.732 0-1.093 0-.01-.011-.01-.023-.01-.034"></path>
  </symbol>
  <symbol xmlns="http://www.w3.org/2000/svg" fill="none" viewBox="0 0 33 28" id="competence-icon-5">
    <path fill="currentColor" d="M12.679 27.767c-2.747 0-5.495-.075-8.23.022-2.792.097-4.732-2.12-4.405-4.755.469-3.775 3.303-6.82 7.108-7.368a8 8 0 0 1 1.253-.075c2.89-.011 5.779-.022 8.668 0 4.153.043 7.445 2.732 8.252 6.755.262 1.312.251 2.614-.6 3.754-.817 1.097-1.929 1.656-3.314 1.667-2.921.011-5.832 0-8.732 0M19.624 6.62c-.011 3.754-3.107 6.809-6.89 6.809-3.816 0-6.912-3.098-6.89-6.874C5.854 2.79 8.94-.222 12.756-.21c3.804.01 6.879 3.066 6.868 6.83M22.06 3.884c1 0 1.81-.8 1.81-1.786S23.06.313 22.06.313s-1.81.799-1.81 1.785.81 1.786 1.81 1.786M26.622 3.884c1 0 1.81-.8 1.81-1.786s-.81-1.785-1.81-1.785-1.81.799-1.81 1.785.81 1.786 1.81 1.786M31.193 3.884c.999 0 1.81-.8 1.81-1.786S32.191.313 31.192.313c-1 0-1.81.799-1.81 1.785s.81 1.786 1.81 1.786"></path>
  </symbol>
  <symbol xmlns="http://www.w3.org/2000/svg" fill="none" viewBox="0 0 29 29" id="competence-icon-4">
    <g fill="currentColor" clip-path="url(#a)">
      <path d="M25.709 5.343q.562-.281 1.116-.562.658-.332 1.315-.67c.223-.115.439-.12.644.039.2.153.25.358.205.608-.484 2.557-.957 5.113-1.44 7.67-.086.46-.445.648-.872.45-2.358-1.103-4.716-2.217-7.08-3.319-.222-.102-.37-.261-.375-.517-.012-.267.13-.443.364-.557.803-.409 1.6-.818 2.466-1.261-.45-.381-.848-.767-1.293-1.091C14.586 1.559 5.832 4.775 4.118 12.24c-.205.903-.347.92-1.156.909-.752-.011-1.498 0-2.25 0-.54 0-.78-.261-.683-.784C1.117 6.474 4.499 2.502 10.206.678 15.77-1.1 21.676.701 25.504 5.116c.062.074.125.142.204.227M6.983 21.821c.889.915 1.891 1.63 3.024 2.17 5.946 2.842 13.031-.391 14.768-6.744.08-.284.131-.573.2-.858.08-.33.261-.494.597-.5.94-.005 1.88-.011 2.82 0 .427.006.655.296.592.716-.883 6.046-5.587 11.023-11.59 12.108-5.513 1-10.16-.659-13.913-4.812-.148-.165-.245-.193-.444-.085-.695.369-1.402.715-2.096 1.08-.245.124-.484.187-.718.005-.233-.176-.25-.415-.2-.688.48-2.528.952-5.057 1.43-7.585.091-.477.444-.66.889-.454l7.05 3.306c.234.108.388.273.388.546s-.148.432-.376.55c-.678.342-1.35.688-2.028 1.035-.125.068-.25.136-.393.21"></path>
    </g>
    <defs>
      <clipPath id="a">
        <path fill="#fff" d="M0 0h29v29H0z"></path>
      </clipPath>
    </defs>
  </symbol>
  <symbol xmlns="http://www.w3.org/2000/svg" fill="none" viewBox="0 0 28 33" id="competence-icon-3">
    <g fill="currentColor" clip-path="url(#a)">
      <path d="M14.359 0c.374 0 1.055.19 1.684.585 3.47 2.204 6.94 4.39 10.394 6.61 1.616 1.033 2.041 3.03.986 4.58-.102.155-.255.31-.425.413-3.93 2.513-7.876 5.01-11.806 7.505-.782.5-1.565.517-2.364 0-3.947-2.513-7.893-5.01-11.823-7.522-.63-.414-.867-1.085-.952-1.808C-.117 8.97.46 7.901 1.6 7.161a445 445 0 0 1 5.256-3.34c1.667-1.067 3.334-2.117 5.001-3.184.68-.43 1.361-.637 2.5-.637"></path>
      <path d="M.549 14.734c.868.551 1.701 1.085 2.535 1.601 2.857 1.808 5.698 3.65 8.573 5.44 1.582.981 3.198.947 4.78-.034 3.59-2.256 7.145-4.545 10.717-6.8.085-.052.187-.12.306-.19.29.38.442.81.51 1.275.17 1.342-.323 2.444-1.445 3.167a1473 1473 0 0 1-11.38 7.23c-.766.482-1.549.465-2.314-.017-1.803-1.136-3.59-2.29-5.393-3.426-1.973-1.257-3.963-2.513-5.936-3.77A3.22 3.22 0 0 1 .31 15.113c.068-.12.153-.224.238-.379"></path>
      <path d="M.464 21.398c.715.448 1.395.878 2.058 1.309 3.028 1.928 6.056 3.873 9.101 5.767 1.582.98 3.232.964 4.797-.035 3.607-2.255 7.179-4.562 10.768-6.834.102-.069.204-.12.324-.19.255.38.39.775.425 1.188.153 1.395-.408 2.462-1.548 3.202a1825 1825 0 0 1-9.611 6.111c-.562.362-1.157.706-1.77.913-1.088.361-2.143.172-3.112-.448-3.437-2.169-6.856-4.355-10.292-6.541-1.446-.913-1.99-2.565-1.361-4.063.068-.12.136-.224.221-.379"></path>
    </g>
    <defs>
      <clipPath id="a">
        <path fill="#fff" d="M0 0h28v33H0z"></path>
      </clipPath>
    </defs>
  </symbol>
  <symbol xmlns="http://www.w3.org/2000/svg" fill="none" viewBox="0 0 34 32" id="competence-icon-2">
    <path fill="currentColor" d="M11.993.79c5.907.043 10.95 4.526 11.864 10.59 1.025 6.852-3.569 13.325-10.143 14.276-2.389.343-4.686.029-6.884-1.017a.83.83 0 0 0-.534-.044c-.871.22-1.742.476-2.613.71-1.96.534-3.646-1.2-3.147-3.255.224-.929.47-1.858.688-2.794a.95.95 0 0 0-.056-.578c-3.4-7.452.955-16.25 8.766-17.662.682-.125 1.37-.154 2.059-.227"></path>
    <path fill="currentColor" d="M27.22 7.79c.134.058.226.095.31.147 4.391 2.593 6.572 6.523 6.466 11.812-.035 1.692-.473 3.295-1.164 4.831a.86.86 0 0 0-.05.48c.205.96.438 1.914.65 2.874.465 2.113-1.221 3.819-3.219 3.265-.826-.229-1.652-.48-2.485-.687a1.05 1.05 0 0 0-.656.06c-4.616 2.075-8.886 1.506-12.825-1.774a3 3 0 0 1-.212-.2c-.014-.014-.02-.036-.035-.073 4.835-.495 8.717-2.748 11.42-6.974 2.704-4.225 3.212-8.85 1.8-13.762"></path>
  </symbol>
  <symbol xmlns="http://www.w3.org/2000/svg" fill="none" viewBox="0 0 32 30" id="competence-icon-1">
    <path fill="currentColor" d="M21.258 29.88c-.8-.046-1.318-.348-1.745-.868-1.12-1.35-2.56-1.848-4.283-1.478-.937.203-1.692.716-2.286 1.47-.823 1.048-1.547 1.222-2.797.732A16 16 0 0 1 5.963 27.3c-.777-.626-1.006-1.486-.617-2.39 1.12-2.61-.45-5.37-3.3-5.785C.941 18.967.354 18.393.179 17.3a15 15 0 0 1 .107-5.211c.175-.905.83-1.509 1.752-1.63 1.997-.256 3.407-1.59 3.712-3.536.106-.686.007-1.35-.214-2.006-.365-1.071-.13-1.81.778-2.512C7.57 1.448 8.95.71 10.429.143c.869-.332 1.676-.113 2.324.626 1.532 1.757 3.94 2.059 5.77.701.289-.218.548-.49.792-.761.617-.687 1.44-.89 2.309-.566a16.4 16.4 0 0 1 4.466 2.55c.8.64 1.029 1.417.693 2.382-.86 2.489.602 4.993 3.209 5.49 1.082.204 1.615.777 1.798 1.856.29 1.689.275 3.378-.023 5.06-.19 1.056-.777 1.636-1.852 1.81-2.644.415-4.206 3.1-3.23 5.58.365.936.144 1.758-.64 2.391a15.5 15.5 0 0 1-4.078 2.398c-.26.121-.549.174-.709.22m-5.22-20.16c-2.95 0-5.35 2.354-5.358 5.257-.007 2.934 2.386 5.302 5.35 5.302 2.934 0 5.32-2.376 5.32-5.294 0-2.881-2.401-5.264-5.312-5.264"></path>
  </symbol>
  <symbol xmlns="http://www.w3.org/2000/svg" fill="none" viewBox="0 0 12 11" id="close">
    <path fill="currentColor" d="m11.305 10.094-9.9-9.9-.707.707 9.9 9.9z"></path>
    <path fill="currentColor" d="m.695 10.094 9.9-9.9.707.708-9.9 9.9z"></path>
  </symbol>
  <symbol xmlns="http://www.w3.org/2000/svg" fill="none" viewBox="0 0 9 9" id="arrow">
    <path stroke="currentColor" stroke-width=".958" d="m1 3.96 3.472 3.473L7.944 3.96"></path>
  </symbol>
  <symbol xmlns="http://www.w3.org/2000/svg" fill="none" viewBox="0 0 16 28" id="arrow-2">
    <path stroke="currentColor" stroke-width="2" d="m1 19.5 7.071 7.071 7.071-7.071M8 25.5V0"></path>
  </symbol>
  <symbol xmlns="http://www.w3.org/2000/svg" fill="none" viewBox="0 0 63 58" id="amazon">
    <path fill="#000458" fill-opacity=".36" d="M.116 44.266c.192-.308.49-.33.908-.063 9.537 5.519 19.916 8.294 31.127 8.294 7.482 0 14.863-1.401 22.156-4.177l.824-.367c.361-.16.612-.263.766-.342.594-.231 1.025-.115 1.377.342.32.449.239.875-.315 1.255-.669.495-1.57 1.072-2.639 1.709-3.258 1.94-6.922 3.443-10.973 4.518a46.7 46.7 0 0 1-11.846 1.593c-5.936 0-11.564-1.034-16.87-3.104A46.8 46.8 0 0 1 .392 45.153C.129 44.962 0 44.767 0 44.576c0-.122.05-.232.129-.342zm17.217-16.272c0-2.634.65-4.876 1.945-6.749 1.3-1.856 3.07-3.264 5.35-4.22 2.094-.882 4.604-1.506 7.637-1.888 1.024-.116 2.705-.27 5.027-.455v-.972c0-2.424-.264-4.074-.78-4.905-.791-1.125-2.042-1.696-3.78-1.696h-.47c-1.258.122-2.345.508-3.265 1.201a4.73 4.73 0 0 0-1.773 2.872c-.154.784-.54 1.214-1.134 1.336l-6.614-.828c-.657-.16-.978-.47-.978-1.022 0-.116.02-.232.057-.386.657-3.38 2.247-5.898 4.776-7.538C25.89 1.132 28.836.19 32.217 0h1.418c4.333 0 7.758 1.132 10.193 3.374.361.386.713.784 1.068 1.248.315.436.591.828.736 1.182.198.349.399.863.515 1.49.16.668.276 1.104.355 1.336.072.27.16.784.201 1.612.019.821.05 1.285.05 1.445v13.817c0 .984.154 1.888.43 2.712.278.816.548 1.415.824 1.766l1.345 1.759c.201.279.322.608.349.95q0 .478-.465.816c-3.149 2.75-4.88 4.24-5.15 4.477-.43.355-.984.392-1.65.123q-.726-.61-1.38-1.298l-.81-.913c-.16-.197-.443-.546-.836-1.104l-.785-1.138c-2.125 2.32-4.205 3.779-6.291 4.368-1.301.392-2.872.59-4.805.59-2.91 0-5.345-.894-7.236-2.707-1.88-1.806-2.828-4.355-2.828-7.692l-.136-.197zm9.838-1.151c0 1.49.368 2.672 1.116 3.572.741.893 1.769 1.342 3.032 1.342.11 0 .276-.025.503-.057.245-.037.348-.062.443-.062 1.608-.418 2.834-1.446 3.736-3.08.435-.738.752-1.54.94-2.377.238-.84.313-1.549.348-2.088.05-.52.05-1.42.05-2.634v-1.415c-2.209 0-3.896.154-5.04.464-3.34.95-5.04 3.064-5.04 6.363l-.091-.05v.022zm24.026 18.392c.078-.16.197-.289.342-.449.946-.63 1.873-1.072 2.756-1.304a20.8 20.8 0 0 1 4.223-.63c.368-.032.735 0 1.087.078 1.694.16 2.743.442 3.07.856.167.244.233.599.233 1.028v.392c0 1.336-.368 2.904-1.094 4.71s-1.737 3.265-3.026 4.397q-.285.231-.515.232c-.079 0-.16 0-.233-.032-.238-.115-.282-.313-.172-.63 1.417-3.296 2.111-5.604 2.111-6.902 0-.398-.078-.712-.232-.906-.374-.43-1.436-.68-3.206-.68q-1.143.016-2.284.122c-.952.128-1.829.244-2.62.36-.233 0-.387-.044-.472-.116-.078-.078-.097-.122-.056-.2 0-.044.018-.079.056-.166v-.154z"></path>
  </symbol>
</svg>
