<svg width="0" height="0" class="hidden">
  <symbol xmlns="http://www.w3.org/2000/svg" fill="none" viewBox="0 0 14 17" id="zoom">
    <path stroke="currentColor" d="m10.168 11.857 3.04 4.176"></path>
    <circle cx="7" cy="7" r="5.5" stroke="currentColor"></circle>
  </symbol>
  <symbol xmlns="http://www.w3.org/2000/svg" fill="none" viewBox="0 0 68 99" id="windows-2-1">
    <path stroke="#fff" stroke-width=".7" d="M57 31v67L1 90.886V47.854z"></path>
  </symbol>
  <symbol xmlns="http://www.w3.org/2000/svg" fill="none" viewBox="0 0 68 99" id="windows-2-2">
    <path stroke="#fff" stroke-width=".7" d="m27 98 40-7.34V22.67L27 1z"></path>
  </symbol>
  <symbol xmlns="http://www.w3.org/2000/svg" fill="none" viewBox="0 0 68 99" id="windows-2">
    <path stroke="#fff" stroke-width=".7" d="M57 31v67L1 90.886V47.854z"></path>
    <path stroke="#fff" stroke-width=".7" d="m27 98 40-7.34V22.67L27 1z"></path>
  </symbol>
  <symbol xmlns="http://www.w3.org/2000/svg" fill="none" viewBox="0 0 58 85" id="windows-1">
    <path fill="#D8E0E5" d="M49 27v57L1 77.947V41.338z"></path>
    <path stroke="#1A1A1A" stroke-width=".7" d="m23 84 34-6.28V19.543L23 1z"></path>
  </symbol>
  <symbol xmlns="http://www.w3.org/2000/svg" fill="none" viewBox="0 0 253 712" id="window-animate-4">
    <path stroke="#B1B1B1" stroke-miterlimit="10" stroke-width=".912" d="M252 209.564v438.852L1.755 711 1 1z"></path>
  </symbol>
  <symbol xmlns="http://www.w3.org/2000/svg" fill="none" viewBox="0 0 279 697" id="window-animate-3">
    <path stroke="#B1B1B1" stroke-miterlimit="10" stroke-width=".912" d="M278 207.704v431.825L1 696V1z"></path>
  </symbol>
  <symbol xmlns="http://www.w3.org/2000/svg" fill="none" viewBox="0 0 323 457" id="window-animate-1">
    <path fill="#D8E0E5" d="M323 457V0L-72 100.173V390.37z"></path>
  </symbol>
  <symbol xmlns="http://www.w3.org/2000/svg" fill="none" viewBox="0 0 302 662" id="window-animate-2">
    <path stroke="#B1B1B1" stroke-miterlimit="10" stroke-width=".912" d="M301 194.59v422.613L1 661V1z"></path>
  </symbol>
  <symbol xmlns="http://www.w3.org/2000/svg" fill="none" viewBox="0 0 59 74" id="services-5">
    <path stroke="currentColor" stroke-miterlimit="10" d="M7.74 65.028c-1.173 0-1.742-.757-2.204-1.478-1.35-2.018-2.558-4.145-3.66-6.344-.746-1.478-.213-3.064 1.208-3.894 4.336-2.523 4.3-8.796-.035-11.32-1.422-.828-1.919-2.414-1.173-3.928.96-2.02 2.026-4.002 3.234-5.876 1.244-1.911 2.594-2.164 4.655-1.154 3.59 1.766 7.747.072 8.92-3.713.213-.65.284-1.334.32-1.983.106-1.766 1.137-3.064 2.843-3.172a58 58 0 0 1 7.071 0c1.706.108 2.736 1.442 2.808 3.208.248 5.047 4.94 7.823 9.381 5.588 1.848-.901 3.305-.65 4.407 1.081a50.5 50.5 0 0 1 3.269 5.732c.853 1.767.32 3.245-1.28 4.326-4.157 2.848-4.121 8.22.036 11.067 1.564 1.082 2.132 2.56 1.28 4.254a54 54 0 0 1-3.376 5.912c-1.031 1.586-2.559 1.839-4.265.974-4.548-2.272-9.204.504-9.452 5.587-.072 1.767-1.137 3.064-2.843 3.172-2.31.145-4.655.145-6.965 0-1.777-.108-2.808-1.405-2.914-3.208-.25-5.047-4.94-7.823-9.382-5.624-.497.325-1.386.793-1.883.793Zm17.626-26.135c-4.727 0-8.6 3.965-8.6 8.76 0 4.83 3.909 8.796 8.67 8.796 4.763 0 8.672-4.038 8.6-8.868-.035-4.795-3.944-8.724-8.67-8.688Zm15.6-11.897c-.533.325-.995.144-1.422-.036-1.172-.54-2.31-1.19-3.411-1.874-.746-.47-.924-1.334-.498-2.127 1.28-2.38-.426-5.264-3.127-5.191-.888.036-1.528-.577-1.635-1.479-.106-1.19-.177-2.415-.106-3.604.035-1.226.604-1.73 1.812-1.839a3.448 3.448 0 0 0 3.092-4.218c-.071-.36-.249-.685-.391-1.01-.427-.828-.32-1.73.426-2.27a30 30 0 0 1 3.234-1.983c.818-.432 1.635-.108 2.168.685 1.492 2.235 4.406 2.2 5.828-.072.604-.937 1.315-1.226 2.31-.757a28 28 0 0 1 3.056 1.694c.888.577 1.03 1.406.604 2.343-1.137 2.488.355 4.94 3.056 5.047 1.03.036 1.67.577 1.741 1.587.107 1.225.142 2.45.071 3.677-.035 1.009-.675 1.55-1.705 1.658-2.701.252-4.087 2.812-2.808 5.227.427.83.32 1.73-.426 2.271a37 37 0 0 1-3.198 1.983c-.853.469-1.67.144-2.204-.65-1.492-2.234-4.406-2.198-5.863.073-.071.252-.355.721-.604.865Zm.924-16.979c-2.168 1.334-2.843 4.254-1.564 6.453 1.315 2.199 4.229 2.92 6.397 1.586 2.167-1.334 2.878-4.29 1.528-6.489-1.315-2.199-4.194-2.884-6.361-1.55Z"></path>
  </symbol>
  <symbol xmlns="http://www.w3.org/2000/svg" fill="none" viewBox="0 0 82 79" id="services-6">
    <path stroke="currentColor" stroke-linecap="round" stroke-linejoin="round" stroke-miterlimit="10" d="M11.164 29.851v-6.975c0-3.234 2.618-5.876 5.814-5.876h47.906c3.2 0 5.814 2.646 5.814 5.876v6.254"></path>
    <path stroke="currentColor" stroke-linecap="round" stroke-linejoin="round" stroke-miterlimit="10" d="M75.304 25.688c-2.138 0-3.907 1.29-4.534 3.235l-4.448 14.609H15.33l-4.444-14.61c-.632-1.944-2.4-3.234-4.534-3.234-2.663 0-4.822 2.181-4.822 4.873 0 .443.062.866.173 1.273l5.408 17.773h.004c.656 1.9 2.441 3.26 4.542 3.26h58.336c2.101 0 3.886-1.365 4.542-3.26h.004l5.409-17.773c.11-.407.172-.834.172-1.273 0-2.692-2.158-4.873-4.817-4.873"></path>
    <path stroke="currentColor" stroke-linecap="round" stroke-linejoin="round" stroke-miterlimit="10" d="M15.264 43.32v-3.55c0-1.94 1.571-3.524 3.487-3.524h18.67c1.92 0 3.488 1.588 3.488 3.524v2.816m.005.946v-3.761c0-1.94 1.572-3.525 3.488-3.525h18.67c1.92 0 3.487 1.588 3.487 3.525v3.065M21.842 28.255c.7 0 1.268-.573 1.268-1.281s-.568-1.282-1.268-1.282-1.268.574-1.268 1.282c0 .707.568 1.281 1.268 1.281m9.461 0c.7 0 1.268-.573 1.268-1.281s-.568-1.282-1.268-1.282-1.268.574-1.268 1.282c0 .707.568 1.281 1.268 1.281m19.102 0c.7 0 1.267-.574 1.267-1.282 0-.707-.567-1.281-1.267-1.281s-1.268.574-1.268 1.281c0 .708.567 1.282 1.268 1.282m9.461 0c.7 0 1.267-.573 1.267-1.281s-.567-1.282-1.267-1.282-1.268.574-1.268 1.282c0 .707.567 1.281 1.268 1.281m-18.932 0c.7 0 1.268-.574 1.268-1.282 0-.707-.568-1.281-1.268-1.281s-1.268.574-1.268 1.281c0 .708.568 1.282 1.268 1.282M21.147 52.862l-5.884 8.866h-3.078l.846-8.866m47.362 0 5.888 8.866h3.077l-.85-8.866"></path>
  </symbol>
  <symbol xmlns="http://www.w3.org/2000/svg" fill="none" viewBox="0 0 47 67" id="services-4">
    <path stroke="currentColor" stroke-miterlimit="10" d="M43.749 1H3.519C2.446 1 1.53 1.911 1.53 2.98v37.794a1.99 1.99 0 0 0 1.988 1.981H15.96s4.095-.04 4.572 5.467c.358 3.843-1.352 6.22-2.504 9.072-.477 1.228-.557 3.17.04 4.714.874 2.457 3.02 4.2 5.525 4.2 2.504 0 4.651-1.743 5.526-4.2.596-1.545.516-3.486.04-4.714-1.114-2.852-2.624-5.23-2.505-9.072.159-5.507 4.572-5.467 4.572-5.467h12.442a1.99 1.99 0 0 0 1.988-1.98V2.98C45.737 1.91 44.822 1 43.749 1ZM1.531 34.634h44.205M1.531 24.175h44.205"></path>
  </symbol>
  <symbol xmlns="http://www.w3.org/2000/svg" fill="none" viewBox="0 0 66 68" id="services-3">
    <path stroke="currentColor" stroke-miterlimit="10" d="M64.276 27.657 34.182 1.44A2.03 2.03 0 0 0 32.915 1c-.475 0-.871.16-1.227.44L1.593 27.657A2.05 2.05 0 0 0 1 29.058c0 1.08.871 1.961 1.94 1.961h7.048v33.662c0 1.12.911 2.001 1.98 2.001h11.523v-16.65s.158-6.605 9.345-6.605c9.503 0 9.503 6.605 9.503 6.605v16.65h11.404c1.109 0 1.98-.92 1.98-2V31.018h7.206c1.07 0 1.94-.88 1.94-1.96a2.05 2.05 0 0 0-.593-1.402Z"></path>
    <path stroke="currentColor" stroke-miterlimit="10" d="M32.914 28.298c3.04 0 5.504-2.491 5.504-5.564s-2.464-5.564-5.504-5.564-5.504 2.491-5.504 5.564 2.464 5.564 5.504 5.564Z"></path>
  </symbol>
  <symbol xmlns="http://www.w3.org/2000/svg" fill="none" viewBox="0 0 64 63" id="services-2">
    <path stroke="currentColor" stroke-miterlimit="10" d="m32.746 46.39 14.918 14.926c.66.66 1.722.66 2.346 0L61.848 49.47c.66-.66.66-1.723 0-2.347L46.931 32.197M31.353 16.61 16.435 1.684c-.66-.66-1.722-.66-2.345 0L2.25 13.53c-.66.66-.66 1.723 0 2.347l14.918 14.926m-1.32-20.391-9.53 9.536m10.226.697-4.765 4.767m30.9 21.382-4.765 4.767m15.027-4.071-9.566 9.536"></path>
    <path stroke="currentColor" stroke-miterlimit="10" d="M17.536 59.3 3.828 61.756s-.917.256-1.613-.44c-.623-.624-.44-1.614-.44-1.614l2.2-13.973c.402-2.127 1.172-2.934 2.345-4.071L46.125 1.794c.696-.697 1.87-.697 2.602 0l13.012 13.02c.696.696.696 1.87 0 2.603L21.898 57.282c-1.65 1.65-2.31 1.504-4.362 2.017ZM38.977 8.945 54.59 24.57"></path>
    <path stroke="currentColor" stroke-miterlimit="10" d="m20.467 58.566-.366-7.702-7.88.477.44-7.922L5 43.09m7.66.33 30.385-30.44M20.102 50.864l30.385-30.403"></path>
  </symbol>
  <symbol xmlns="http://www.w3.org/2000/svg" fill="none" viewBox="0 0 68 69" id="services-1">
    <path stroke="currentColor" stroke-linecap="round" stroke-linejoin="round" stroke-miterlimit="10" d="M54.27 24.693h3.67v43.112H9.927c-8.127 0-8.206-6.45-8.206-6.45m0 0V18.818c0-9.517 10.423-7.282 10.423-7.282v42.289S1.72 52.79 1.72 61.355m10.425-36.663H33.61M20.104 63.01V35.619m-4.022-.001h17.649M20.104 48.362h25.525"></path>
    <path stroke="currentColor" stroke-linecap="round" stroke-linejoin="round" stroke-miterlimit="10" d="M24.904 58.208H45.63v-16.22m-12.763 16.22v-9.846m10.639-14.537-9.89 1.789s-.666.183-1.165-.32c-.447-.451-.322-1.176-.322-1.176l1.59-10.154c.28-1.549.858-2.133 1.69-2.972L54.693 1.58a1.317 1.317 0 0 1 1.869 0l9.386 9.464a1.343 1.343 0 0 1 0 1.884L46.665 32.341c-1.192 1.213-1.661 1.102-3.16 1.483M49.54 6.779 60.797 18.13"></path>
    <path stroke="currentColor" stroke-linecap="round" stroke-linejoin="round" stroke-miterlimit="10" d="m45.632 33.283-.254-5.589-5.693.34.306-5.776-5.512-.22m5.513.22L52.458 9.72m-7.079 17.974 12.466-12.542"></path>
  </symbol>
  <symbol xmlns="http://www.w3.org/2000/svg" fill="none" viewBox="0 0 21 21" id="phone">
    <g fill="currentColor" clip-path="url(#a)">
      <path d="M0 6.195c-.025-.896.254-1.66.927-2.276.484-.444.927-.929 1.403-1.389.763-.731 1.551-.747 2.314-.008A95 95 0 0 1 7.05 4.938c.78.805.763 1.552-.025 2.366a34 34 0 0 1-1.337 1.33c-.247.23-.288.436-.132.757.87 1.774 2.167 3.187 3.652 4.428.714.6 1.56 1.052 2.339 1.577.312.214.558.173.812-.115.402-.443.837-.862 1.272-1.281.845-.838 1.617-.847 2.454-.017q1.157 1.134 2.29 2.293c.828.838.828 1.626 0 2.464-.41.42-.846.822-1.24 1.257-.763.855-1.723 1.093-2.823.978-1.6-.172-3.036-.797-4.406-1.57C5.908 17.147 2.888 13.96.95 9.778.426 8.643.024 7.468 0 6.195m21.001 3.64q-.776.137-1.55.262c-1.125-4.74-4.038-7.566-8.814-8.552.065-.502.14-1.027.213-1.545 4.719.493 9.298 4.478 10.151 9.835M10.406 5.76l.23-1.562c2.864.181 5.777 3.007 6.097 5.916l-1.559.27c-.607-2.554-2.183-4.082-4.768-4.625"></path>
    </g>
    <defs>
      <clipPath id="a">
        <path fill="#fff" d="M0 0h21v21H0z"></path>
      </clipPath>
    </defs>
  </symbol>
  <symbol xmlns="http://www.w3.org/2000/svg" fill="none" viewBox="0 0 24 16" id="menu">
    <path fill="currentColor" d="M0 15h24v1H0zm0-7h24v1H0zm0-8h24v1H0z"></path>
  </symbol>
  <symbol xmlns="http://www.w3.org/2000/svg" fill="none" viewBox="0 0 246 21" id="logo">
    <g fill="#fff" clip-path="url(#a)">
      <path d="M176.645 8.277v5.007h4.139v-.677h-3.433v-1.533h2.877v-.632h-2.877V8.91h3.433v-.632zm33.062 0v5.007h4.139v-.677h-3.432v-1.533h2.877v-.632h-2.877V8.91h3.432v-.632zm6.664 0v5.007h4.139v-.677h-3.432v-1.533h2.877v-.632h-2.877V8.91h3.432v-.632zm-28.873 3.879-3.534-3.879h-.706v5.007h.706V9.495l3.534 3.79h.707V8.276h-.707zm11.609-3.879h-.707v5.007h.707zm7.067 3.879-3.534-3.879h-.706v5.007h.706V9.495l3.534 3.79h.707V8.276h-.707zm24.582-3.879h-.707v5.007h.707zm7.068 3.879-3.533-3.879h-.707v5.007h.707V9.495l3.533 3.79h.707V8.276h-.707zm-42.805-3.879h-3.23s-.707 0-.707.632v3.744c0 .631.707.631.707.631h3.23s.707 0 .707-.631v-1.895h-2.322v.632h1.615v1.263h-3.23V8.909h3.23v.722h.707v-.722c0-.632-.707-.632-.707-.632m50.98 1.353v-.72c0-.632-.706-.632-.706-.632h-3.231s-.707 0-.707.632v3.744c0 .631.707.631.707.631h3.231s.706 0 .706-.631v-1.895h-2.322v.632h1.616v1.263h-3.231V8.909h3.231v.722zm-18.575.18v-.134s-.05-1.263-1.312-1.399h-3.18v5.007h.706v-2.03h1.717l1.261 2.03h.859l-1.262-2.03c.252-.045 1.211-.27 1.211-1.443m-3.735-.901h2.17s.757 0 .757.812-.504.857-.656.857h-2.322v-1.67zM23.04 12.336s.05-1.263-.96-2.21c-1.009-.947-2.372-.947-2.372-.947H3.404V3.045h18.374L23.04.113H3.404s-1.363 0-2.372.947c-.96.947-.96 2.21-.96 2.21v5.638s-.05 1.263.96 2.21 2.372.948 2.372.948h16.304v5.728H1.335L.073 20.726h19.635s1.363 0 2.373-.947c.959-.947.959-2.21.959-2.21zM124.197.068h-22.412l-1.262 2.977h10.197V20.77h3.281V3.045h8.934zm30.186 20.703h3.635l-4.745-8.75h1.11s1.363 0 2.373-.948c.959-.947.959-2.21.959-2.21V3.27s.05-1.263-.959-2.21c-1.01-.947-2.373-.947-2.373-.947h-19.737v20.703h3.282v-8.75h11.71zM137.928 3.045h16.455v6.089h-16.455zM53.781.068v9.021H37.326V.068h-3.332V20.77h3.332v-8.75H53.78v8.75h3.281V.068zm36.244.992c-1.01-.947-2.373-.947-2.373-.947H71.197s-1.363 0-2.373.947c-.959.947-.959 2.21-.959 2.21v17.501h3.332v-8.75h16.455v8.75h3.332v-17.5c-.05 0 0-1.264-.96-2.211M71.197 9.089v-6.09h16.455v6.09z"></path>
      <path d="M191.787 15.269h-3.331v2.57H172V3h16.456v2.617h3.331v-2.39s.051-1.264-.959-2.21c-1.01-.948-2.372-.948-2.372-.948H172s-1.363 0-2.373.947c-.959.947-.959 2.21-.959 2.21V17.57s-.05 1.263.959 2.21c1.01.947 2.373.947 2.373.947h16.456s1.362 0 2.372-.947c.959-.947.959-2.21.959-2.21z"></path>
    </g>
    <defs>
      <clipPath id="a">
        <path fill="#fff" d="M0 0h246v21H0z"></path>
      </clipPath>
    </defs>
  </symbol>
  <symbol xmlns="http://www.w3.org/2000/svg" fill="none" viewBox="0 0 10 15" id="location">
    <path fill="currentColor" d="M5.003 0C2.236 0 0 2.278 0 5.098c0 .852.206 1.654.568 2.36l.007.013C.662 7.637 4.997 15 4.997 15l4.241-7.204A5.16 5.16 0 0 0 10 5.09C10 2.278 7.764 0 5.003 0m0 7.459c-1.28 0-2.317-1.057-2.317-2.361s1.037-2.361 2.317-2.361S7.32 3.793 7.32 5.097c0 1.305-1.036 2.362-2.317 2.362"></path>
  </symbol>
  <symbol xmlns="http://www.w3.org/2000/svg" fill="none" viewBox="0 0 15 15" id="insta">
    <g fill="currentColor">
      <path d="M7.353 14.929H3.677C1.609 14.923 0 13.32 0 11.252V3.899C0 1.83 1.609.228 3.677.222h7.353c2.068 0 3.67 1.609 3.676 3.677 0 2.453.006 4.9 0 7.353 0 2.068-1.608 3.67-3.676 3.677-1.224.005-2.453 0-3.677 0m0-1.477h3.562c1.425-.005 2.315-.884 2.315-2.303q.009-3.577 0-7.153c0-1.407-.89-2.292-2.292-2.292-2.384-.005-4.768 0-7.152 0-.19 0-.385 0-.569.04-1.074.23-1.73 1.063-1.73 2.218a1495 1495 0 0 0 0 7.18c0 1.426.886 2.305 2.31 2.31z"></path>
      <path d="M11.029 7.581c0 2.057-1.62 3.671-3.682 3.671-2.057 0-3.671-1.62-3.671-3.682 0-2.057 1.62-3.671 3.682-3.671 2.057 0 3.671 1.62 3.671 3.682m-1.476-.017c-.006-1.258-.943-2.189-2.2-2.183-1.259 0-2.19.936-2.195 2.195 0 1.27.948 2.211 2.217 2.2 1.253-.012 2.183-.954 2.178-2.212m2.219-3.677c.011.397-.345.753-.742.753a.77.77 0 0 1-.74-.73c-.012-.396.344-.752.74-.752a.76.76 0 0 1 .742.73"></path>
    </g>
  </symbol>
  <symbol xmlns="http://www.w3.org/2000/svg" fill="none" viewBox="0 0 7 15" id="fb">
    <path fill="currentColor" d="M4.547 14.242H2.063V8.097H0v-2.39h2.063v-.332c.015-.702-.022-1.408.058-2.105C2.295 1.783 3.355.823 4.869.765 5.565.738 6.267.796 7 .812v2.205c-.528 0-1.029-.01-1.524.005-.57.021-.897.317-.918.876-.027.586-.006 1.176-.006 1.799h2.364c-.106.817-.206 1.593-.312 2.4H4.547z"></path>
  </symbol>
  <symbol xmlns="http://www.w3.org/2000/svg" fill="none" viewBox="0 0 48 48" id="competencies-6">
    <g stroke="currentColor" stroke-miterlimit="10" clip-path="url(#a)">
      <path d="M24.545 35.345 35.91 46.717c.502.503 1.312.503 1.787 0l9.02-9.025c.503-.503.503-1.313 0-1.788L35.352 24.53M23.484 12.655 12.118 1.283c-.503-.503-1.313-.503-1.787 0l-9.02 9.025c-.503.503-.503 1.313 0 1.789l11.365 11.372M11.671 7.933l-7.26 7.265m7.789.531-3.63 3.633m23.543 16.29-3.63 3.633m11.45-3.102-7.288 7.265"></path>
      <path d="M12.955 45.18 2.511 47.054s-.698.195-1.229-.336c-.475-.475-.335-1.23-.335-1.23l1.676-10.645c.307-1.62.893-2.236 1.787-3.102L34.737 1.367c.53-.531 1.424-.531 1.983 0l9.914 9.92c.53.53.53 1.424 0 1.983L16.278 43.644c-1.256 1.257-1.759 1.145-3.323 1.537ZM29.291 6.815 41.188 18.72"></path>
      <path d="m15.19 44.622-.28-5.868-6.004.363.335-6.036-5.837-.251m5.836.251L32.39 9.89M14.91 38.754l23.15-23.165"></path>
    </g>
    <defs>
      <clipPath id="a">
        <path fill="#fff" d="M0 0h48v48H0z"></path>
      </clipPath>
    </defs>
  </symbol>
  <symbol xmlns="http://www.w3.org/2000/svg" fill="none" viewBox="0 0 22 15" id="email">
    <g fill="currentColor" clip-path="url(#a)">
      <path d="M1.082.142C1.434.083 1.709 0 1.975 0c6.014 0 12.027 0 18.04.008.275 0 .559.084.91.134a6 6 0 0 1-.36.366 3409 3409 0 0 1-7.98 7.687c-1.066 1.033-2.114 1.033-3.17.009A6826 6826 0 0 1 1.443.516c-.103-.1-.198-.2-.361-.374"></path>
      <path d="M20.79 14.883c-.232.034-.507.108-.79.108q-8.995.014-17.989 0c-.275 0-.558-.075-.79-.108 2.19-2.165 4.364-4.322 6.571-6.505.894.925 1.779 1.841 3.23 1.833 1.426-.009 2.311-.9 3.196-1.84 2.2 2.173 4.364 4.322 6.572 6.512M.137 13.934C.086 13.61 0 13.343 0 13.068c0-3.714 0-7.43.009-11.152 0-.267.085-.533.137-.866 2.242 2.215 4.416 4.356 6.52 6.438C4.561 9.57 2.38 11.718.137 13.934M15.334 7.48q3.157-3.11 6.52-6.43c.06.333.137.6.146.866.009 3.715.009 7.438 0 11.152 0 .267-.077.542-.137.858a3820 3820 0 0 1-6.529-6.446"></path>
    </g>
    <defs>
      <clipPath id="a">
        <path fill="#fff" d="M0 0h22v15H0z"></path>
      </clipPath>
    </defs>
  </symbol>
  <symbol xmlns="http://www.w3.org/2000/svg" fill="none" viewBox="0 0 53 53" id="competencies-5">
    <path stroke="currentColor" stroke-linecap="round" stroke-linejoin="round" stroke-miterlimit="10" d="M13.86 47.97c-1.11.323-1.9-.252-2.544-.828C9.452 45.56 7.73 43.798 6.083 42c-1.111-1.223-1.004-2.913.18-4.1 3.547-3.597 1.862-9.64-3.013-10.861-1.61-.432-2.507-1.799-2.185-3.453a51 51 0 0 1 1.613-6.51c.681-2.157 1.971-2.769 4.23-2.337 3.942.755 7.526-2.014 7.705-5.97.036-.683-.072-1.367-.215-2.014-.359-1.726.287-3.273 1.935-3.812 2.294-.756 4.588-1.403 6.917-1.87 1.685-.36 3.01.647 3.584 2.337 1.577 4.783 6.846 6.222 10.609 2.877 1.541-1.366 3.046-1.51 4.587-.143a57 57 0 0 1 4.695 4.639c1.29 1.474 1.183 3.02-.107 4.531-3.297 3.849-1.864 8.991 2.939 10.61 1.828.611 2.724 1.87 2.365 3.74a52 52 0 0 1-1.72 6.581c-.61 1.799-2.007 2.446-3.907 2.086-5.017-.97-8.816 2.95-7.705 7.912.358 1.727-.287 3.273-1.936 3.813a63 63 0 0 1-6.773 1.87c-1.756.36-3.119-.612-3.692-2.338-1.577-4.783-6.845-6.222-10.608-2.877-.502.431-1.22 1.115-1.72 1.259"></path>
    <path stroke="currentColor" stroke-linecap="round" stroke-linejoin="round" stroke-miterlimit="10" d="m46 38.117-8.958-9.06c1.26-4.264.245-9.06-3.08-12.4-3.429-3.483-8.328-4.478-12.632-2.985l7.909 8.065-1.19 6.574-6.509 1.243-7.908-8.065c-1.435 4.334-.42 9.309 2.974 12.755a12.12 12.12 0 0 0 12.143 3.127L38.232 47"></path>
  </symbol>
  <symbol xmlns="http://www.w3.org/2000/svg" fill="none" viewBox="0 0 51 52" id="competencies-4">
    <path stroke="currentColor" stroke-linecap="round" stroke-linejoin="round" stroke-miterlimit="10" d="M40.946 18.68h2.71v32.175H8.2c-6 0-6.06-4.814-6.06-4.814m0 0V14.297c0-7.103 7.698-5.434 7.698-5.434V40.42s-7.697-.771-7.697 5.62m7.697-27.36H25.69m-9.975 28.596V26.834m-2.969 0h13.033m-10.064 9.511h18.85"></path>
    <path stroke="currentColor" stroke-linecap="round" stroke-linejoin="round" stroke-miterlimit="10" d="M19.262 43.692h15.304V31.588m-9.423 12.104v-7.347m7.854-10.849-7.303 1.335s-.492.137-.86-.239c-.33-.336-.238-.877-.238-.877l1.173-7.578c.207-1.155.634-1.591 1.25-2.217L41.257 1.433a.965.965 0 0 1 1.38 0l6.932 7.062c.38.388.38 1.02 0 1.407L35.33 24.389c-.88.905-1.227.823-2.333 1.107m4.456-20.183 8.314 8.472"></path>
    <path stroke="currentColor" stroke-linecap="round" stroke-linejoin="round" stroke-miterlimit="10" d="m34.566 25.092-.187-4.17-4.205.253.227-4.31-4.07-.165m4.071.165 9.206-9.357m-5.229 13.413 9.205-9.36"></path>
  </symbol>
  <symbol xmlns="http://www.w3.org/2000/svg" fill="none" viewBox="0 0 43 51" id="competencies-3">
    <path stroke="currentColor" stroke-linecap="round" stroke-linejoin="round" stroke-miterlimit="10" d="M30.275 36.024h-17.55c-.92 0-1.641-.742-1.641-1.613V22.546c0-.903.755-1.612 1.64-1.612h17.55c.92 0 1.641.741 1.641 1.612v11.865c0 .871-.754 1.613-1.64 1.613"></path>
    <path stroke="currentColor" stroke-linecap="round" stroke-linejoin="round" stroke-miterlimit="10" d="M27.584 20.934v-1c0-3.321-2.722-5.997-6.101-5.997s-6.102 2.676-6.102 5.997v1m6.136 8.866c1.377 0 2.493-1.097 2.493-2.45s-1.116-2.45-2.493-2.45-2.494 1.097-2.494 2.45 1.117 2.45 2.494 2.45m-.001 0v2.806"></path>
    <path stroke="currentColor" stroke-linecap="round" stroke-linejoin="round" stroke-miterlimit="10" d="M41.299 6.263s-4.2 2.29-10.53 1.258c-6.332-1.032-9.251-6.449-9.251-6.449s-2.953 5.417-9.284 6.416-10.53-1.225-10.53-1.225-.624 7.32-.624 14.252 1.837 14.8 6.955 20.023c5.117 5.223 13.483 8.48 13.483 8.48s8.365-3.29 13.482-8.48c5.118-5.192 6.922-13.059 6.922-20.023S41.3 6.263 41.3 6.263"></path>
  </symbol>
  <symbol xmlns="http://www.w3.org/2000/svg" fill="none" viewBox="0 0 47 56" id="competencies-2">
    <path stroke="currentColor" stroke-linecap="round" stroke-linejoin="round" stroke-miterlimit="10" d="M31.546 21.458c1.156-2.195 1.584-6.14.514-8.076-1.076-1.947-2.854-2.3-3.819-2.336-1.047-2.63-4.605-3.636-8.304-3.425-3.744.214-7.622 3.157-8.272 6.971-.642 3.76.222 6.134.556 6.869-.454.077-1.461.433-1.127 2.058.428 2.08 1.016 3.413 1.712 4.216.696.802 1.176.427 1.176.427s.428 3.267 2.354 5.581c1.818 2.184 4.731 2.497 5.41 2.525l.006.003h.092q0-.002.005-.003c.694-.028 3.77-.338 5.59-2.525 1.927-2.314 2.355-5.582 2.355-5.582s.482.373 1.175-.427c.697-.8 1.285-2.134 1.713-4.215.333-1.637-.685-1.987-1.136-2.061"></path>
    <path stroke="currentColor" stroke-linecap="round" stroke-linejoin="round" stroke-miterlimit="10" d="M15.43 32.414v4.301s-5.192 1.956-8.26 3.2C4.6 40.959 2 42.477 2 46.53v7.185h39.754V46.53c0-4.056-2.597-5.57-5.171-6.615-3.068-1.244-8.258-3.2-8.258-3.2v-4.3"></path>
    <path stroke="currentColor" stroke-linecap="round" stroke-linejoin="round" stroke-miterlimit="10" d="m15.429 36.712 6.457 5.69-6.62 1.734-3.07-6.191m16.149-1.233-6.458 5.69 6.62 1.734 3.07-6.191m-13.719 5.514 2.354 3-2.565 7.256m8.196-10.256-2.357 3 2.569 7.256m-3.59-46.122q.128-.203.257-.402c.639-.976 1.36-1.101 2.422-.586 1.872.91 4.033.037 4.658-1.902.105-.327.145-.68.17-1.024.063-.9.591-1.58 1.485-1.628a32 32 0 0 1 3.68.005c.891.054 1.422.735 1.465 1.643.128 2.581 2.568 4.013 4.894 2.875.956-.47 1.718-.336 2.302.546.628.942 1.199 1.93 1.704 2.94.451.906.171 1.66-.673 2.227-2.163 1.451-2.155 4.207.014 5.667.822.555 1.107 1.306.67 2.18a29 29 0 0 1-1.754 3.038c-.543.82-1.333.945-2.23.506-2.368-1.158-4.79.254-4.925 2.872-.045.9-.587 1.577-1.478 1.631-1.204.072-2.42.069-3.627.003a1.6 1.6 0 0 1-.756-.222m1.533-8.468c.33.077.676.12 1.033.117 2.477-.006 4.514-2.067 4.491-4.543-.023-2.448-2.069-4.46-4.526-4.452a4.48 4.48 0 0 0-2.856 1.047"></path>
  </symbol>
  <symbol xmlns="http://www.w3.org/2000/svg" fill="none" viewBox="0 0 50 53" id="competencies-1">
    <path stroke="currentColor" stroke-linecap="round" stroke-linejoin="round" stroke-miterlimit="10" d="M37.253 17.92V2.107H14.236L2.1 14.068v36.827h35.153v-8.601"></path>
    <path stroke="currentColor" stroke-linecap="round" stroke-linejoin="round" stroke-miterlimit="10" d="M14.236 2.106V14.27H2.1"></path>
    <path stroke="currentColor" stroke-linecap="round" stroke-linejoin="round" stroke-miterlimit="10" d="M14.234 12.332h18.507V6.25H14.234m7.764 15.003H6.611m15.387 5.621H6.611m15.387 5.625H6.611m15.387 5.621H6.611m7.694 5.62H6.61m21.032-14.556c.789.634.941 1.465.764 2.416-.145.785-.177 1.547.319 2.143.18.189.675.56 1.892.738 1.67.245 1.74.948 2.236 1.963.084.132.17.26.258.396.523.627 1.386.81 2.253.485.07-.032.145-.06.216-.093l.025-.01c1.103-.535 1.528-.706 2.592-.26l.043.017c.046.018.092.04.138.057 1.064.453 1.407.599 2.264.339.739-.225 1.096-1.312 1.67-2.032q.174-.239.392-.392l.032-.021.042-.029.01-.007c.945-.617 2.533-.438 3.16-1.386.247-.439.254-.967.205-1.519-.032-.331-.064-.666-.11-.998-.081-.584.106-1.066.516-1.483.294-.3.584-.61.839-.944.672-.874.668-1.619-.007-2.495a8 8 0 0 0-.768-.866c-.481-.464-.661-1.01-.573-1.672.064-.47.113-.945.117-1.419.01-.92-.365-1.45-1.235-1.736a12 12 0 0 0-1.524-.363c-.541-.104-.91-.4-1.178-.873-.287-.503-.566-1.016-.913-1.473-.446-.588-1.065-.784-1.776-.549-.378.125-.764.26-1.11.457-.785.438-1.546.46-2.335.007a5.3 5.3 0 0 0-1.061-.442c-.824-.26-1.411-.064-1.942.624-.17.22-.343.456-.446.713-.42 1.051-1.163 1.632-2.295 1.696-.071.004-.138.022-.205.036-1.493.314-1.992 1.03-1.79 2.56q.015.13.042.26c.205.969.018 1.814-.785 2.459-.081.064-.145.153-.216.231-1.061 1.177-1.065 1.99-.01 3.183.084.104.159.203.254.282"></path>
    <path stroke="currentColor" stroke-linecap="round" stroke-linejoin="round" stroke-miterlimit="10" d="M37.447 32.282c2.95 0 5.34-2.41 5.34-5.383s-2.39-5.382-5.34-5.382-5.342 2.41-5.342 5.382c0 2.973 2.392 5.383 5.342 5.383m-4.705 3.928v8.757l4.51-2.673 4.51 2.673v-8.661"></path>
  </symbol>
  <symbol xmlns="http://www.w3.org/2000/svg" fill="none" viewBox="0 0 10 6" id="arrow">
    <path stroke="currentColor" d="m1 1 4.035 4L9 1"></path>
  </symbol>
  <symbol xmlns="http://www.w3.org/2000/svg" fill="none" viewBox="0 0 20 20" id="close">
    <g fill="currentColor">
      <path d="M1 18.28 18.28 1l.72.72L1.72 19z"></path>
      <path d="M19 18.28 1.72 1 1 1.72 18.28 19z"></path>
    </g>
  </symbol>
  <symbol xmlns="http://www.w3.org/2000/svg" fill="none" viewBox="0 0 72 83" id="advantages-7">
    <path stroke="currentColor" stroke-linecap="round" stroke-linejoin="round" stroke-miterlimit="10" d="M4.637 41.41c2.559 2.056 3.053 4.737 2.514 7.82-.494 2.547-.584 5.005 1.033 6.926.584.626 2.2 1.788 6.196 2.368 5.478.805 5.702 3.039 7.319 6.346.27.402.539.849.853 1.295 1.706 2.011 4.535 2.592 7.364 1.564.224-.09.494-.178.718-.313.045 0 .045 0 .09-.044 3.592-1.743 4.984-2.28 8.486-.85.045 0 .09.045.135.045.135.045.314.135.449.18 3.502 1.474 4.58 1.92 7.408 1.116 2.425-.715 3.593-4.245 5.433-6.568a4.3 4.3 0 0 1 1.303-1.251l.09-.09c.044-.044.09-.044.134-.09 0 0 .045 0 .045-.044 3.098-1.966 8.262-1.43 10.327-4.468.808-1.43.853-3.128.674-4.915a78 78 0 0 0-.36-3.217c-.269-1.877.36-3.441 1.662-4.782.943-.983 1.885-1.966 2.739-3.038 2.2-2.815 2.2-5.228-.045-8.043a30 30 0 0 0-2.515-2.815c-1.571-1.52-2.155-3.262-1.885-5.407.224-1.519.359-3.038.359-4.557.045-2.95-1.168-4.692-4.041-5.586-1.617-.536-3.323-.849-4.984-1.162-1.751-.312-2.964-1.295-3.862-2.815-.943-1.608-1.84-3.261-2.963-4.736-1.437-1.921-3.458-2.547-5.792-1.787-1.258.402-2.515.849-3.637 1.474-2.56 1.43-5.03 1.475-7.633 0-1.078-.625-2.29-1.072-3.458-1.43-2.694-.849-4.625-.223-6.33 2.011-.54.715-1.123 1.475-1.438 2.279-1.347 3.396-3.816 5.273-7.498 5.496q-.337 0-.673.134c-4.895 1.028-6.511 3.307-5.838 8.266.045.268.09.581.135.85.674 3.127.045 5.853-2.56 7.953-.269.223-.493.492-.718.76-3.457 3.798-3.502 6.434-.045 10.277.225.268.494.625.809.849"></path>
    <path stroke="currentColor" stroke-linecap="round" stroke-linejoin="round" stroke-miterlimit="10" d="M10.16 57.407 2.168 71.706l12.662-3.44 3.457 12.51 7.32-12.734m36.368-10.635 7.992 14.299-12.662-3.44-3.412 12.51-7.364-12.734m-10.687-12.78c11.506 0 20.834-9.282 20.834-20.733 0-11.45-9.328-20.733-20.834-20.733S15.008 23.08 15.008 34.53s9.328 20.733 20.834 20.733"></path>
    <path stroke="currentColor" stroke-linecap="round" stroke-linejoin="round" stroke-miterlimit="10" d="m23.09 33.189 9.698 9.964 14.952-15.37"></path>
  </symbol>
  <symbol xmlns="http://www.w3.org/2000/svg" fill="none" viewBox="0 0 83 87" id="advantages-8">
    <path stroke="currentColor" stroke-linecap="round" stroke-linejoin="round" stroke-miterlimit="10" d="M63.096 23.238c1.776-3.362 2.434-9.406.79-12.37-1.654-2.983-4.385-3.524-5.868-3.58-1.609-4.03-7.077-5.57-12.76-5.246-5.753.327-11.708 4.835-12.712 10.678-.987 5.76.342 9.397.855 10.522-.697.118-2.245.663-1.732 3.153.658 3.188 1.56 5.228 2.63 6.458 1.07 1.225 1.807.654 1.807.654s.658 5.006 3.618 8.55c2.793 3.345 7.27 3.825 8.314 3.869.004 0 .004.004.009.004h.14q.002-.002.009-.004c1.066-.044 5.793-.52 8.59-3.868 2.96-3.545 3.618-8.551 3.618-8.551s.74.571 1.806-.654c1.07-1.226 1.974-3.27 2.631-6.458.518-2.512-1.052-3.044-1.745-3.157"></path>
    <path stroke="currentColor" stroke-linecap="round" stroke-linejoin="round" stroke-miterlimit="10" d="M58.321 72.647h20.465V61.641c0-6.214-3.99-8.533-7.945-10.134-4.715-1.905-12.69-4.9-12.69-4.9v-6.59M17.697 63.643v9.004h9.086m11.552-32.63v6.589s-7.976 2.996-12.69 4.901q-.737.298-1.47.637"></path>
    <path stroke="currentColor" stroke-linecap="round" stroke-linejoin="round" stroke-miterlimit="10" d="m38.334 46.606 9.923 8.717-10.177 2.655-4.719-9.484"></path>
    <path stroke="currentColor" stroke-linecap="round" stroke-linejoin="round" stroke-miterlimit="10" d="m58.177 46.606-9.92 8.717 10.174 2.655 4.718-9.484M42.06 56.94l3.623 4.592-.812 2.28m9.465-6.872-3.617 4.592 2.24 6.314"></path>
    <path stroke="currentColor" stroke-linecap="round" stroke-linejoin="round" stroke-miterlimit="10" d="M58.794 74.844c.162-2.69-2.153-4.425-5.148-6.514-4.815-3.358-6.902-4.696-8.775-4.513-.723.07-1.416.37-2.223.867-2.885 1.784-7.095 2.713-13.488-3.64-6.39-6.358-5.455-10.544-3.662-13.413 1.794-2.87 1.022-4.291-3.666-10.937-2.1-2.978-3.845-5.28-6.55-5.119-4.78.284-10.98 7.138-10.218 11.399.974 5.463 7.244 15.575 16.904 25.186q.009.006.01.013l.004.004.004.004q.006.009.013.01C31.664 77.795 41.833 84.031 47.327 85c4.284.759 11.178-5.403 11.467-10.156"></path>
  </symbol>
  <symbol xmlns="http://www.w3.org/2000/svg" fill="none" viewBox="0 0 76 57" id="advantages-6">
    <g stroke="currentColor" stroke-linecap="round" stroke-linejoin="round" stroke-miterlimit="10" clip-path="url(#a)">
      <path d="M5.82 55.754c2.519 0 4.56-2.003 4.56-4.474s-2.041-4.474-4.56-4.474-4.56 2.003-4.56 4.474 2.042 4.474 4.56 4.474m18.102-28.167c2.519 0 4.56-2.003 4.56-4.474s-2.041-4.474-4.56-4.474-4.56 2.003-4.56 4.474 2.041 4.474 4.56 4.474m24.85 15.659c2.518 0 4.56-2.004 4.56-4.474s-2.042-4.474-4.56-4.474c-2.52 0-4.561 2.003-4.561 4.474s2.042 4.474 4.56 4.474m21.362-33.052c2.519 0 4.56-2.003 4.56-4.474s-2.041-4.474-4.56-4.474-4.56 2.003-4.56 4.474 2.041 4.474 4.56 4.474M8.102 47.354l13.495-20.36m5.909-1.096 17.358 10.545m6.423-1.415L67.714 9.51"></path>
    </g>
    <defs>
      <clipPath id="a">
        <path fill="currentColor" d="M0 0h76v57H0z"></path>
      </clipPath>
    </defs>
  </symbol>
  <symbol xmlns="http://www.w3.org/2000/svg" fill="none" viewBox="0 0 64 64" id="advantages-4">
    <g clip-path="url(#a)">
      <path stroke="currentColor" stroke-linecap="round" stroke-linejoin="round" stroke-miterlimit="10" d="M32.02 62.784c16.99 0 30.764-13.773 30.764-30.763S49.01 1.258 32.02 1.258 1.258 15.03 1.258 32.02 15.03 62.784 32.02 62.784"></path>
      <path stroke="currentColor" stroke-linecap="round" stroke-linejoin="round" stroke-miterlimit="10" d="M30.977 18.08v14.943L41.12 42.58"></path>
      <path fill="currentColor" d="M32.021 8.52a.877.877 0 1 0 0-1.752.877.877 0 0 0 0 1.753m0 48.753a.876.876 0 1 0 0-1.753.876.876 0 0 0 0 1.753m24.375-24.377a.877.877 0 1 0 0-1.753.877.877 0 0 0 0 1.753m-48.752 0a.877.877 0 1 0 0-1.753.877.877 0 0 0 0 1.753M49.26 50.136a.876.876 0 1 0 0-1.753.876.876 0 0 0 0 1.753M14.783 15.658a.877.877 0 1 0 0-1.753.877.877 0 0 0 0 1.753m34.477 0a.877.877 0 1 0 0-1.753.877.877 0 0 0 0 1.753M14.783 50.136a.877.877 0 1 0 0-1.753.877.877 0 0 0 0 1.753"></path>
    </g>
    <defs>
      <clipPath id="a">
        <path fill="currentColor" d="M0 0h64v64H0z"></path>
      </clipPath>
    </defs>
  </symbol>
  <symbol xmlns="http://www.w3.org/2000/svg" fill="none" viewBox="0 0 873 107" id="shatro-text">
    <path fill="currentColor" d="M89.228 47.678h-73.77V16.24h83.347L104.988.613H16.063C7.213.55 0 7.844 0 16.79v30.274c0 8.948 7.213 16.24 16.063 16.24h73.77v28.068H6.487L.303 107h88.985c8.85 0 16.064-7.293 16.064-16.24V63.857c-.061-8.886-7.274-16.179-16.124-16.179M458.02 15.627h46.311v90.821h15.457v-90.82h40.067L566.038 0H464.202zM398.069 0h-73.164c-8.85 0-16.063 7.293-16.063 16.24v90.208h15.457V62.754h74.377v43.694h15.457V16.24C414.072 7.293 406.919 0 398.069 0m.546 47.065h-74.316V15.627h74.377v31.438zm-154.391 0h-74.376V0H154.39v106.448h15.458V62.692h74.376v43.756h15.457V0h-15.457zM873 16.24C873 7.293 865.787 0 856.937 0h-73.165c-8.85 0-16.063 7.293-16.063 16.24v73.969c0 8.947 7.213 16.239 16.063 16.239h73.165c9.092 0 15.76-6.557 16.063-15.627zm-89.834 74.581V15.627h74.377v75.194zm-80.62-28.129c8.85 0 16.064-7.292 16.064-16.24V16.24c0-8.947-7.214-16.24-16.064-16.24h-89.227v106.448h15.457V62.754h52.069l.182.306 21.822 43.388h16.609l-21.397-43.694h4.485zm-73.77-15.627V15.627h74.376v31.438z"></path>
  </symbol>
  <symbol xmlns="http://www.w3.org/2000/svg" fill="none" viewBox="0 0 75 76" id="advantages-1">
    <path stroke="currentColor" stroke-linecap="round" stroke-linejoin="round" stroke-miterlimit="10" d="M19.53 68.972c-1.582.46-2.705-.358-3.624-1.175-2.655-2.248-5.105-4.75-7.453-7.305-1.583-1.737-1.43-4.138.255-5.824 5.054-5.108 2.655-13.69-4.288-15.427-2.297-.613-3.574-2.555-3.114-4.904a72 72 0 0 1 2.297-9.247c.97-3.065 2.808-3.933 6.024-3.32 5.615 1.073 10.72-2.861 10.975-8.48.051-.97-.102-1.941-.306-2.861-.51-2.452.408-4.649 2.757-5.415 3.267-1.073 6.534-1.992 9.852-2.656 2.4-.511 4.288.92 5.105 3.32 2.246 6.794 9.75 8.838 15.11 4.087 2.196-1.941 4.34-2.146 6.535-.205 2.348 2.044 4.594 4.292 6.687 6.59 1.838 2.095 1.685 4.292-.153 6.437-4.696 5.466-2.654 12.771 4.186 15.07 2.604.869 3.88 2.657 3.37 5.313a74 74 0 0 1-2.451 9.348c-.868 2.555-2.859 3.474-5.564 2.963-7.147-1.379-12.558 4.19-10.976 11.239.51 2.452-.408 4.649-2.757 5.415a90 90 0 0 1-9.648 2.656c-2.501.511-4.441-.868-5.258-3.32-2.246-6.794-9.75-8.838-15.11-4.087-.715.613-1.736 1.584-2.45 1.788"></path>
    <path stroke="currentColor" stroke-linecap="round" stroke-linejoin="round" stroke-miterlimit="10" d="M66.088 55.384 53.019 42.357c1.838-6.13.357-13.026-4.492-17.828-5.003-5.007-12.15-6.437-18.429-4.291l11.537 11.596-1.735 9.45-9.496 1.788-11.537-11.596a17.9 17.9 0 0 0 4.34 18.34c4.798 4.801 11.639 6.283 17.713 4.495l13.835 13.844"></path>
  </symbol>
  <symbol xmlns="http://www.w3.org/2000/svg" fill="none" viewBox="0 0 65 74" id="advantages-2">
    <g stroke="currentColor" stroke-linecap="round" stroke-linejoin="round" stroke-miterlimit="10" clip-path="url(#a)">
      <path d="M47.7 23.034c1.842-3.448 2.515-9.673.81-12.719-1.707-3.045-4.491-3.627-6.018-3.672-1.661-4.12-7.23-5.733-13.067-5.374-5.882.313-11.99 4.97-13.022 10.972-1.033 5.912.36 9.629.853 10.793-.718.135-2.29.672-1.751 3.225.673 3.27 1.616 5.374 2.694 6.628s1.841.672 1.841.672.674 5.15 3.682 8.778c2.874 3.448 7.454 3.94 8.532 3.986h.18c1.077-.045 5.927-.538 8.8-3.986 3.01-3.628 3.683-8.778 3.683-8.778s.763.582 1.84-.672c1.079-1.254 2.022-3.359 2.695-6.628.584-2.553-1.033-3.09-1.751-3.225"></path>
      <path d="M22.374 40.277v6.762s-8.172 3.09-12.977 5.016c-4.041 1.657-8.127 4.031-8.127 10.39v11.286h62.55V62.447c0-6.36-4.086-8.778-8.127-10.39-4.805-1.971-12.977-5.017-12.977-5.017v-6.762"></path>
      <path d="m22.373 47.04 10.148 8.956-10.417 2.732-4.85-9.763m25.418-1.925-10.149 8.956 10.418 2.732 4.805-9.763"></path>
      <path d="m26.191 57.653 3.682 4.703-4.041 11.42M38.72 57.653l-3.683 4.703 4.041 11.42"></path>
    </g>
    <defs>
      <clipPath id="a">
        <path fill="currentColor" d="M0 0h65v74H0z"></path>
      </clipPath>
    </defs>
  </symbol>
  <symbol xmlns="http://www.w3.org/2000/svg" fill="none" viewBox="0 0 52 72" id="advantages-3">
    <g stroke="currentColor" stroke-linecap="round" stroke-linejoin="round" stroke-miterlimit="10" clip-path="url(#a)">
      <path d="M51.742 71.74H.26V.26h33.717l17.765 17.543z"></path>
      <path d="M33.977.261v17.804h17.765m-17.766-2.819H6.888V6.318h27.088M16.73 21.772H6.887v9.92h9.841zm5.852.001h22.53m-22.53 4.959h22.53m-22.53 11.539h22.53m-22.53 4.96h22.53m-22.53 11.487h22.53m-22.53 4.96h22.53M16.73 38.271H6.887v9.92h9.841zm0 16.447H6.887v9.92h9.841z"></path>
    </g>
    <defs>
      <clipPath id="a">
        <path fill="currentColor" d="M0 0h52v72H0z"></path>
      </clipPath>
    </defs>
  </symbol>
  <symbol xmlns="http://www.w3.org/2000/svg" fill="none" viewBox="0 0 113 52" id="advantages-5">
    <g stroke="currentColor" stroke-linecap="round" stroke-linejoin="round" stroke-miterlimit="10" clip-path="url(#a)">
      <path d="M105.881 6.138c-.905 0-1.703.212-2.448.53h-.053c-.319.158-.585.317-.852.476l-13.622 7.839v21.716l13.622 7.84c.267.158.533.317.852.476h.053c.745.37 1.596.53 2.448.53a5.823 5.823 0 0 0 5.853-5.827V11.964a5.823 5.823 0 0 0-5.853-5.826m-78.859 34.11v1.218c0 5.138 4.15 9.269 9.312 9.269h38.685c5.161 0 9.312-4.131 9.312-9.27v-30.93c0-5.138-4.15-9.27-9.312-9.27H36.334c-5.162 0-9.313 4.132-9.313 9.27v1.218"></path>
      <path d="M27.606 11.752C7.384 11.752 1.265 26 1.265 26s6.119 14.248 26.34 14.248S52.72 26 52.72 26s-4.84-14.248-25.113-14.248"></path>
      <path d="M27.02 34.898c4.937 0 8.94-3.984 8.94-8.898s-4.003-8.898-8.94-8.898-8.94 3.983-8.94 8.898 4.003 8.898 8.94 8.898"></path>
    </g>
    <defs>
      <clipPath id="a">
        <path fill="currentColor" d="M0 0h113v52H0z"></path>
      </clipPath>
    </defs>
  </symbol>
  <symbol xmlns="http://www.w3.org/2000/svg" fill="none" viewBox="0 0 1440 2" id="border">
    <path stroke="#ABABAB" stroke-dasharray="8 8" stroke-miterlimit="16" d="M.469 1H1440.47"></path>
  </symbol>
</svg>