<svg width="100" height="60" viewBox="0 0 100 60" fill="none" xmlns="http://www.w3.org/2000/svg">
<path d="M72.2281 16.2523C69.919 15.4075 67.4782 14.9836 65.0207 15.0005C57.0731 15.0005 51.4602 19.0202 51.4205 24.7903C51.3708 29.0295 55.4091 31.4183 58.464 32.8347C61.5983 34.2909 62.6463 35.2086 62.6364 36.5102C62.6165 38.4902 60.1329 39.3879 57.8232 39.3879C54.6491 39.3879 52.9156 38.944 50.2482 37.8319L49.2597 37.368L48.1322 44.011C50.0644 44.8189 53.5464 45.5121 57.1427 45.572C65.5919 45.572 71.1154 41.5772 71.18 35.438C71.2495 32.0517 69.064 29.4933 64.4643 27.3787C61.6678 26.0072 59.9342 25.0896 59.9342 23.6981C59.9342 22.4663 61.4194 21.1497 64.5239 21.1497C66.5901 21.0995 68.6434 21.4887 70.5492 22.2918L71.2942 22.6259L72.4218 16.2074L72.2281 16.2523ZM92.8519 15.5391H86.6429C84.7106 15.5391 83.2553 16.0727 82.4108 17.9978L70.4697 45.158H78.9189L80.6077 40.7045L90.9196 40.7144C91.163 41.7568 91.9081 45.158 91.9081 45.158H99.3589L92.8519 15.5391ZM39.9909 15.2897H48.0428L43.006 44.9236H34.9641L39.9909 15.2798V15.2897ZM19.5509 31.6228L20.3854 35.7372L28.2534 15.5391H36.7821L24.1108 45.1181H15.602L8.6479 20.0725C8.53527 19.6595 8.27076 19.3048 7.90778 19.08C5.40134 17.78 2.7456 16.7935 0 16.1425L0.109278 15.5192H13.0687C14.8271 15.589 16.2427 16.1426 16.7146 18.0277L19.5459 31.6378L19.5509 31.6228ZM82.9175 34.645L86.1263 26.3563C86.0866 26.4461 86.7869 24.6457 87.1942 23.5336L87.7456 26.092L89.6083 34.64H82.9125L82.9175 34.645Z" fill="#000458" fill-opacity="0.36"/>
</svg>
