<svg xmlns="http://www.w3.org/2000/svg" width="100" height="60" fill="none"><path fill="#000458" fill-opacity=".36" d="M72.228 16.252a20.6 20.6 0 0 0-7.207-1.251c-7.948 0-13.56 4.02-13.6 9.79-.05 4.238 3.988 6.627 7.043 8.044 3.134 1.456 4.182 2.374 4.172 3.675-.02 1.98-2.503 2.878-4.813 2.878-3.174 0-4.907-.444-7.575-1.556l-.988-.464-1.128 6.643c1.932.808 5.414 1.501 9.01 1.561 8.45 0 13.973-3.995 14.038-10.134.07-3.386-2.116-5.945-6.716-8.06-2.796-1.37-4.53-2.288-4.53-3.68 0-1.232 1.485-2.548 4.59-2.548 2.066-.05 4.12.339 6.025 1.142l.745.334 1.128-6.419zm20.624-.713h-6.21c-1.931 0-3.387.534-4.231 2.459L70.47 45.158h8.449l1.689-4.453 10.312.01c.243 1.042.988 4.443.988 4.443h7.45zm-52.861-.25h8.052l-5.037 29.635h-8.042l5.027-29.644zM19.55 31.624l.834 4.114 7.868-20.198h8.53L24.11 45.12h-8.509L8.648 20.072a1.7 1.7 0 0 0-.74-.993A34.4 34.4 0 0 0 0 16.143l.11-.624h12.959c1.758.07 3.174.624 3.646 2.509l2.83 13.61zm63.367 3.022 3.208-8.289c-.04.09.66-1.71 1.068-2.822l.552 2.558 1.862 8.548h-6.696z"/></svg>